ArchivoNarrowDevanagari-Regular.ufo
<glyph name="exclam" format="1">
  <advance width="202"/>
  <unicode hex="0021"/>
  <outline>
    <contour>
      <point x="153" y="606" type="curve"/>
      <point x="53" y="606" type="line"/>
      <point x="60" y="494"/>
      <point x="65" y="382"/>
      <point x="70" y="269" type="curve"/>
      <point x="71" y="230"/>
      <point x="73" y="190"/>
      <point x="75" y="151" type="curve"/>
      <point x="130" y="151" type="line"/>
      <point x="133" y="201"/>
      <point x="135" y="260"/>
      <point x="138" y="318" type="curve" smooth="yes"/>
      <point x="144" y="446"/>
      <point x="150" y="572"/>
    </contour>
    <contour>
      <point x="59" y="0" type="line"/>
      <point x="148" y="0" type="line"/>
      <point x="148" y="95" type="line"/>
      <point x="59" y="95" type="line"/>
    </contour>
  </outline>
</glyph>
<glyph name="quotedbl" format="1">
  <advance width="257"/>
  <unicode hex="0022"/>
  <outline>
    <contour>
      <point x="87" y="360" type="line"/>
      <point x="105" y="476" type="line"/>
      <point x="105" y="606" type="line"/>
      <point x="33" y="606" type="line"/>
      <point x="33" y="476" type="line"/>
      <point x="52" y="360" type="line"/>
    </contour>
    <contour>
      <point x="203" y="360" type="line"/>
      <point x="223" y="476" type="line"/>
      <point x="223" y="606" type="line"/>
      <point x="150" y="606" type="line"/>
      <point x="150" y="476" type="line"/>
      <point x="169" y="360" type="line"/>
    </contour>
  </outline>
</glyph>
<glyph name="dollar" format="1">
  <advance width="403"/>
  <unicode hex="0024"/>
  <outline>
    <contour>
      <point x="222" y="545" type="curve"/>
      <point x="222" y="639" type="line"/>
      <point x="179" y="639" type="line"/>
      <point x="179" y="545" type="line"/>
      <point x="103" y="535"/>
      <point x="57" y="487"/>
      <point x="57" y="414" type="curve" smooth="yes"/>
      <point x="57" y="327"/>
      <point x="119" y="302"/>
      <point x="179" y="282" type="curve"/>
      <point x="179" y="124" type="line"/>
      <point x="144" y="132"/>
      <point x="120" y="157"/>
      <point x="120" y="207" type="curve" smooth="yes"/>
      <point x="120" y="216" type="line"/>
      <point x="48" y="216" type="line"/>
      <point x="48" y="215"/>
      <point x="48" y="215"/>
      <point x="48" y="213" type="curve" smooth="yes"/>
      <point x="48" y="211"/>
      <point x="47" y="205"/>
      <point x="47" y="196" type="curve" smooth="yes"/>
      <point x="47" y="132"/>
      <point x="84" y="69"/>
      <point x="179" y="61" type="curve"/>
      <point x="179" y="-43" type="line"/>
      <point x="222" y="-43" type="line"/>
      <point x="222" y="61" type="line"/>
      <point x="299" y="67"/>
      <point x="354" y="111"/>
      <point x="354" y="203" type="curve" smooth="yes"/>
      <point x="354" y="298"/>
      <point x="284" y="323"/>
      <point x="222" y="343" type="curve"/>
      <point x="222" y="483" type="line"/>
      <point x="260" y="474"/>
      <point x="272" y="442"/>
      <point x="272" y="410" type="curve" smooth="yes"/>
      <point x="272" y="402" type="line"/>
      <point x="344" y="402" type="line"/>
      <point x="344" y="403"/>
      <point x="344" y="404"/>
      <point x="344" y="407" type="curve" smooth="yes"/>
      <point x="345" y="410"/>
      <point x="345" y="415"/>
      <point x="345" y="419" type="curve" smooth="yes"/>
      <point x="345" y="484"/>
      <point x="301" y="539"/>
    </contour>
    <contour>
      <point x="179" y="483" type="curve"/>
      <point x="179" y="360" type="line"/>
      <point x="150" y="372"/>
      <point x="130" y="388"/>
      <point x="130" y="419" type="curve" smooth="yes"/>
      <point x="130" y="442"/>
      <point x="139" y="475"/>
    </contour>
    <contour>
      <point x="222" y="123" type="curve"/>
      <point x="222" y="266" type="line"/>
      <point x="255" y="251"/>
      <point x="281" y="232"/>
      <point x="281" y="193" type="curve" smooth="yes"/>
      <point x="281" y="151"/>
      <point x="255" y="128"/>
    </contour>
  </outline>
</glyph>
<glyph name="quotesingle" format="1">
  <advance width="139"/>
  <unicode hex="0027"/>
  <outline>
    <contour>
      <point x="85" y="360" type="line"/>
      <point x="103" y="476" type="line"/>
      <point x="103" y="606" type="line"/>
      <point x="31" y="606" type="line"/>
      <point x="31" y="476" type="line"/>
      <point x="50" y="360" type="line"/>
    </contour>
  </outline>
</glyph>
<glyph name="parenleft" format="1">
  <advance width="241"/>
  <unicode hex="0028"/>
  <outline>
    <contour>
      <point x="228" y="650" type="curve"/>
      <point x="180" y="650" type="line"/>
      <point x="88" y="541"/>
      <point x="35" y="400"/>
      <point x="35" y="255" type="curve" smooth="yes"/>
      <point x="35" y="110"/>
      <point x="88" y="-30"/>
      <point x="180" y="-139" type="curve"/>
      <point x="228" y="-139" type="line"/>
      <point x="162" y="-31"/>
      <point x="110" y="118"/>
      <point x="110" y="256" type="curve" smooth="yes"/>
      <point x="110" y="394"/>
      <point x="162" y="542"/>
    </contour>
  </outline>
</glyph>
<glyph name="asterisk" format="1">
  <advance width="282"/>
  <unicode hex="002A"/>
  <outline>
    <contour>
      <point x="258" y="522" type="line"/>
      <point x="228" y="574" type="line"/>
      <point x="163" y="529" type="line"/>
      <point x="171" y="606" type="line"/>
      <point x="110" y="606" type="line"/>
      <point x="118" y="528" type="line"/>
      <point x="53" y="574" type="line"/>
      <point x="23" y="522" type="line"/>
      <point x="95" y="489" type="line"/>
      <point x="23" y="455" type="line"/>
      <point x="53" y="403" type="line"/>
      <point x="118" y="449" type="line"/>
      <point x="110" y="370" type="line"/>
      <point x="171" y="370" type="line"/>
      <point x="163" y="449" type="line"/>
      <point x="228" y="403" type="line"/>
      <point x="258" y="455" type="line"/>
      <point x="186" y="489" type="line"/>
    </contour>
  </outline>
</glyph>
<glyph name="hyphen" format="1">
  <advance width="241"/>
  <unicode hex="002D"/>
  <outline>
    <contour>
      <point x="9" y="282" type="line"/>
      <point x="9" y="195" type="line"/>
      <point x="232" y="195" type="line"/>
      <point x="232" y="282" type="line"/>
    </contour>
  </outline>
</glyph>
<glyph name="period" format="1">
  <advance width="202"/>
  <unicode hex="002E"/>
  <outline>
    <contour>
      <point x="57" y="95" type="line"/>
      <point x="57" y="0" type="line"/>
      <point x="145" y="0" type="line"/>
      <point x="145" y="95" type="line"/>
    </contour>
  </outline>
</glyph>
<glyph name="slash" format="1">
  <advance width="202"/>
  <unicode hex="002F"/>
  <outline>
    <contour>
      <point x="140" y="650" type="line"/>
      <point x="1" y="-43" type="line"/>
      <point x="64" y="-43" type="line"/>
      <point x="202" y="650" type="line"/>
    </contour>
  </outline>
</glyph>
<glyph name="zero" format="1">
  <advance width="403"/>
  <unicode hex="0030"/>
  <outline>
    <contour>
      <point x="202" y="617" type="curve" smooth="yes"/>
      <point x="97" y="617"/>
      <point x="35" y="550"/>
      <point x="35" y="303" type="curve" smooth="yes"/>
      <point x="35" y="57"/>
      <point x="97" y="-11"/>
      <point x="202" y="-11" type="curve" smooth="yes"/>
      <point x="305" y="-11"/>
      <point x="368" y="57"/>
      <point x="368" y="303" type="curve" smooth="yes"/>
      <point x="368" y="550"/>
      <point x="305" y="617"/>
    </contour>
    <contour>
      <point x="202" y="552" type="curve" smooth="yes"/>
      <point x="274" y="552"/>
      <point x="293" y="461"/>
      <point x="293" y="334" type="curve" smooth="yes"/>
      <point x="293" y="272" type="line" smooth="yes"/>
      <point x="293" y="146"/>
      <point x="274" y="54"/>
      <point x="202" y="54" type="curve" smooth="yes"/>
      <point x="129" y="54"/>
      <point x="110" y="146"/>
      <point x="110" y="272" type="curve" smooth="yes"/>
      <point x="110" y="334" type="line" smooth="yes"/>
      <point x="110" y="461"/>
      <point x="129" y="552"/>
    </contour>
  </outline>
</glyph>
<glyph name="two" format="1">
  <advance width="403"/>
  <unicode hex="0032"/>
  <outline>
    <contour>
      <point x="203" y="617" type="curve" smooth="yes"/>
      <point x="116" y="617"/>
      <point x="40" y="563"/>
      <point x="40" y="433" type="curve" smooth="yes"/>
      <point x="40" y="412"/>
      <point x="42" y="398"/>
      <point x="42" y="398" type="curve"/>
      <point x="118" y="398" type="line"/>
      <point x="118" y="434" type="line" smooth="yes"/>
      <point x="118" y="497"/>
      <point x="140" y="550"/>
      <point x="202" y="550" type="curve" smooth="yes"/>
      <point x="267" y="550"/>
      <point x="285" y="501"/>
      <point x="285" y="461" type="curve" smooth="yes"/>
      <point x="285" y="377"/>
      <point x="223" y="310"/>
      <point x="160" y="242" type="curve" smooth="yes"/>
      <point x="130" y="210"/>
      <point x="100" y="177"/>
      <point x="77" y="143" type="curve" smooth="yes"/>
      <point x="50" y="103"/>
      <point x="34" y="59"/>
      <point x="34" y="11" type="curve" smooth="yes"/>
      <point x="34" y="0" type="line"/>
      <point x="364" y="0" type="line"/>
      <point x="364" y="74" type="line"/>
      <point x="124" y="74" type="line"/>
      <point x="127" y="84"/>
      <point x="133" y="95"/>
      <point x="140" y="105" type="curve" smooth="yes"/>
      <point x="161" y="138"/>
      <point x="191" y="170"/>
      <point x="221" y="203" type="curve" smooth="yes"/>
      <point x="289" y="276"/>
      <point x="362" y="355"/>
      <point x="362" y="460" type="curve" smooth="yes"/>
      <point x="362" y="571"/>
      <point x="291" y="617"/>
    </contour>
  </outline>
</glyph>
<glyph name="three" format="1">
  <advance width="403"/>
  <unicode hex="0033"/>
  <outline>
    <contour>
      <point x="199" y="617" type="curve" smooth="yes"/>
      <point x="107" y="617"/>
      <point x="42" y="552"/>
      <point x="42" y="451" type="curve" smooth="yes"/>
      <point x="42" y="435" type="line"/>
      <point x="116" y="435" type="line"/>
      <point x="116" y="443" type="line" smooth="yes"/>
      <point x="116" y="518"/>
      <point x="151" y="552"/>
      <point x="200" y="552" type="curve" smooth="yes"/>
      <point x="244" y="552"/>
      <point x="283" y="522"/>
      <point x="283" y="446" type="curve" smooth="yes"/>
      <point x="283" y="375"/>
      <point x="242" y="340"/>
      <point x="195" y="340" type="curve" smooth="yes"/>
      <point x="143" y="340" type="line"/>
      <point x="143" y="276" type="line"/>
      <point x="194" y="276" type="line" smooth="yes"/>
      <point x="245" y="276"/>
      <point x="293" y="254"/>
      <point x="293" y="168" type="curve" smooth="yes"/>
      <point x="293" y="88"/>
      <point x="254" y="54"/>
      <point x="196" y="54" type="curve" smooth="yes"/>
      <point x="137" y="54"/>
      <point x="105" y="94"/>
      <point x="105" y="169" type="curve" smooth="yes"/>
      <point x="105" y="179" type="line"/>
      <point x="31" y="179" type="line"/>
      <point x="31" y="171" type="line" smooth="yes"/>
      <point x="31" y="61"/>
      <point x="91" y="-11"/>
      <point x="202" y="-11" type="curve" smooth="yes"/>
      <point x="299" y="-11"/>
      <point x="368" y="55"/>
      <point x="368" y="163" type="curve" smooth="yes"/>
      <point x="368" y="243"/>
      <point x="330" y="292"/>
      <point x="278" y="311" type="curve"/>
      <point x="278" y="315" type="line"/>
      <point x="324" y="340"/>
      <point x="357" y="379"/>
      <point x="357" y="451" type="curve" smooth="yes"/>
      <point x="357" y="559"/>
      <point x="293" y="617"/>
    </contour>
  </outline>
</glyph>
<glyph name="four" format="1">
  <advance width="403"/>
  <unicode hex="0034"/>
  <outline>
    <contour>
      <point x="248" y="617" type="curve"/>
      <point x="175" y="617" type="line"/>
      <point x="140" y="479"/>
      <point x="81" y="331"/>
      <point x="18" y="215" type="curve"/>
      <point x="18" y="149" type="line"/>
      <point x="252" y="149" type="line"/>
      <point x="252" y="0" type="line"/>
      <point x="324" y="0" type="line"/>
      <point x="324" y="149" type="line"/>
      <point x="386" y="149" type="line"/>
      <point x="386" y="214" type="line"/>
      <point x="324" y="214" type="line"/>
      <point x="324" y="527" type="line"/>
      <point x="289" y="527" type="line"/>
      <point x="278" y="480"/>
      <point x="270" y="448"/>
      <point x="252" y="405" type="curve"/>
      <point x="252" y="214" type="line"/>
      <point x="86" y="214" type="line"/>
      <point x="119" y="263"/>
      <point x="215" y="454"/>
    </contour>
  </outline>
</glyph>
<glyph name="five" format="1">
  <advance width="403"/>
  <unicode hex="0035"/>
  <outline>
    <contour>
      <point x="124" y="347" type="curve"/>
      <point x="135" y="532" type="line"/>
      <point x="348" y="532" type="line"/>
      <point x="348" y="606" type="line"/>
      <point x="72" y="606" type="line"/>
      <point x="52" y="271" type="line"/>
      <point x="121" y="259" type="line"/>
      <point x="139" y="301"/>
      <point x="172" y="329"/>
      <point x="211" y="329" type="curve" smooth="yes"/>
      <point x="263" y="329"/>
      <point x="299" y="282"/>
      <point x="299" y="198" type="curve" smooth="yes"/>
      <point x="299" y="100"/>
      <point x="259" y="53"/>
      <point x="205" y="53" type="curve" smooth="yes"/>
      <point x="152" y="53"/>
      <point x="110" y="105"/>
      <point x="110" y="188" type="curve"/>
      <point x="35" y="188" type="line"/>
      <point x="35" y="65"/>
      <point x="103" y="-11"/>
      <point x="205" y="-11" type="curve" smooth="yes"/>
      <point x="309" y="-11"/>
      <point x="374" y="65"/>
      <point x="374" y="198" type="curve" smooth="yes"/>
      <point x="374" y="331"/>
      <point x="310" y="394"/>
      <point x="231" y="394" type="curve" smooth="yes"/>
      <point x="179" y="394"/>
      <point x="143" y="367"/>
    </contour>
  </outline>
</glyph>
<glyph name="semicolon" format="1">
  <advance width="202"/>
  <unicode hex="003B"/>
  <outline>
    <contour>
      <point x="57" y="465" type="line"/>
      <point x="57" y="370" type="line"/>
      <point x="145" y="370" type="line"/>
      <point x="145" y="465" type="line"/>
    </contour>
    <contour>
      <point x="57" y="-110" type="line"/>
      <point x="103" y="-110" type="line"/>
      <point x="145" y="8" type="line"/>
      <point x="145" y="95" type="line"/>
      <point x="57" y="95" type="line"/>
      <point x="57" y="0" type="line"/>
      <point x="92" y="0" type="line"/>
    </contour>
  </outline>
</glyph>
<glyph name="less" format="1">
  <advance width="423"/>
  <unicode hex="003C"/>
  <outline>
    <contour>
      <point x="385" y="83" type="line"/>
      <point x="110" y="225" type="line"/>
      <point x="385" y="366" type="line"/>
      <point x="385" y="446" type="line"/>
      <point x="39" y="271" type="line"/>
      <point x="39" y="177" type="line"/>
      <point x="385" y="4" type="line"/>
    </contour>
  </outline>
</glyph>
<glyph name="equal" format="1">
  <advance width="423"/>
  <unicode hex="003D"/>
  <outline>
    <contour>
      <point x="38" y="355" type="line"/>
      <point x="38" y="281" type="line"/>
      <point x="385" y="281" type="line"/>
      <point x="385" y="355" type="line"/>
    </contour>
    <contour>
      <point x="38" y="167" type="line"/>
      <point x="38" y="94" type="line"/>
      <point x="385" y="94" type="line"/>
      <point x="385" y="167" type="line"/>
    </contour>
  </outline>
</glyph>
<glyph name="greater" format="1">
  <advance width="423"/>
  <unicode hex="003E"/>
  <outline>
    <contour>
      <point x="39" y="4" type="line"/>
      <point x="385" y="177" type="line"/>
      <point x="385" y="271" type="line"/>
      <point x="39" y="446" type="line"/>
      <point x="39" y="366" type="line"/>
      <point x="314" y="225" type="line"/>
      <point x="39" y="83" type="line"/>
    </contour>
  </outline>
</glyph>
<glyph name="question" format="1">
  <advance width="403"/>
  <unicode hex="003F"/>
  <outline>
    <contour>
      <point x="209" y="617" type="curve" smooth="yes"/>
      <point x="95" y="617"/>
      <point x="38" y="536"/>
      <point x="38" y="437" type="curve" smooth="yes"/>
      <point x="38" y="426"/>
      <point x="41" y="406"/>
      <point x="41" y="406" type="curve"/>
      <point x="119" y="406" type="line"/>
      <point x="119" y="406"/>
      <point x="118" y="415"/>
      <point x="118" y="430" type="curve" smooth="yes"/>
      <point x="118" y="470"/>
      <point x="127" y="549"/>
      <point x="202" y="549" type="curve" smooth="yes"/>
      <point x="273" y="549"/>
      <point x="281" y="475"/>
      <point x="281" y="450" type="curve" smooth="yes"/>
      <point x="281" y="392"/>
      <point x="253" y="362"/>
      <point x="226" y="331" type="curve" smooth="yes"/>
      <point x="198" y="300"/>
      <point x="170" y="268"/>
      <point x="170" y="209" type="curve" smooth="yes"/>
      <point x="170" y="159" type="line"/>
      <point x="247" y="159" type="line"/>
      <point x="247" y="195" type="line" smooth="yes"/>
      <point x="247" y="242"/>
      <point x="269" y="265"/>
      <point x="294" y="292" type="curve" smooth="yes"/>
      <point x="326" y="326"/>
      <point x="362" y="364"/>
      <point x="362" y="460" type="curve" smooth="yes"/>
      <point x="362" y="552"/>
      <point x="296" y="617"/>
    </contour>
    <contour>
      <point x="164" y="95" type="line"/>
      <point x="164" y="0" type="line"/>
      <point x="252" y="0" type="line"/>
      <point x="252" y="95" type="line"/>
    </contour>
  </outline>
</glyph>
<glyph name="B" format="1">
  <advance width="484"/>
  <unicode hex="0042"/>
  <outline>
    <contour>
      <point x="287" y="606" type="curve"/>
      <point x="57" y="606" type="line"/>
      <point x="57" y="0" type="line"/>
      <point x="287" y="0" type="line" smooth="yes"/>
      <point x="380" y="0"/>
      <point x="458" y="59"/>
      <point x="458" y="161" type="curve" smooth="yes"/>
      <point x="458" y="239"/>
      <point x="411" y="296"/>
      <point x="351" y="315" type="curve"/>
      <point x="351" y="318" type="line"/>
      <point x="403" y="337"/>
      <point x="444" y="388"/>
      <point x="444" y="458" type="curve" smooth="yes"/>
      <point x="444" y="547"/>
      <point x="377" y="606"/>
    </contour>
    <contour>
      <point x="264" y="346" type="curve"/>
      <point x="135" y="346" type="line"/>
      <point x="135" y="536" type="line"/>
      <point x="270" y="536" type="line" smooth="yes"/>
      <point x="325" y="536"/>
      <point x="362" y="505"/>
      <point x="362" y="441" type="curve" smooth="yes"/>
      <point x="362" y="390"/>
      <point x="324" y="346"/>
    </contour>
    <contour>
      <point x="277" y="71" type="curve"/>
      <point x="135" y="71" type="line"/>
      <point x="135" y="275" type="line"/>
      <point x="271" y="275" type="line" smooth="yes"/>
      <point x="336" y="275"/>
      <point x="377" y="226"/>
      <point x="377" y="171" type="curve" smooth="yes"/>
      <point x="377" y="106"/>
      <point x="334" y="71"/>
    </contour>
  </outline>
</glyph>
<glyph name="C" format="1">
  <advance width="523"/>
  <unicode hex="0043"/>
  <outline>
    <contour>
      <point x="262" y="606" type="move" name="mark0"/>
    </contour>
    <contour>
      <point x="262" y="0" type="move" name="mark1"/>
    </contour>
    <contour>
      <point x="276" y="617" type="curve" smooth="yes"/>
      <point x="118" y="617"/>
      <point x="37" y="514"/>
      <point x="37" y="303" type="curve" smooth="yes"/>
      <point x="37" y="93"/>
      <point x="118" y="-11"/>
      <point x="276" y="-11" type="curve" smooth="yes"/>
      <point x="400" y="-11"/>
      <point x="487" y="61"/>
      <point x="487" y="217" type="curve"/>
      <point x="410" y="217" type="line"/>
      <point x="410" y="112"/>
      <point x="357" y="61"/>
      <point x="276" y="61" type="curve" smooth="yes"/>
      <point x="170" y="61"/>
      <point x="118" y="133"/>
      <point x="118" y="281" type="curve" smooth="yes"/>
      <point x="118" y="325" type="line" smooth="yes"/>
      <point x="118" y="473"/>
      <point x="170" y="545"/>
      <point x="276" y="545" type="curve" smooth="yes"/>
      <point x="355" y="545"/>
      <point x="408" y="493"/>
      <point x="408" y="387" type="curve"/>
      <point x="487" y="387" type="line"/>
      <point x="487" y="542"/>
      <point x="400" y="617"/>
    </contour>
  </outline>
</glyph>
<glyph name="D" format="1">
  <advance width="523"/>
  <unicode hex="0044"/>
  <outline>
    <contour>
      <point x="262" y="606" type="move" name="mark0"/>
    </contour>
    <contour>
      <point x="0" y="0" type="move" name="mark1"/>
    </contour>
    <contour>
      <point x="250" y="606" type="curve"/>
      <point x="62" y="606" type="line"/>
      <point x="62" y="0" type="line"/>
      <point x="250" y="0" type="line" smooth="yes"/>
      <point x="393" y="0"/>
      <point x="480" y="104"/>
      <point x="480" y="312" type="curve" smooth="yes"/>
      <point x="480" y="507"/>
      <point x="393" y="606"/>
    </contour>
    <contour>
      <point x="243" y="71" type="curve"/>
      <point x="140" y="71" type="line"/>
      <point x="140" y="536" type="line"/>
      <point x="243" y="536" type="line" smooth="yes"/>
      <point x="339" y="536"/>
      <point x="399" y="469"/>
      <point x="399" y="334" type="curve" smooth="yes"/>
      <point x="399" y="290" type="line" smooth="yes"/>
      <point x="399" y="142"/>
      <point x="339" y="71"/>
    </contour>
  </outline>
</glyph>
<glyph name="G" format="1">
  <advance width="564"/>
  <unicode hex="0047"/>
  <outline>
    <contour>
      <point x="282" y="606" type="move" name="mark0"/>
    </contour>
    <contour>
      <point x="282" y="0" type="move" name="mark1"/>
    </contour>
    <contour>
      <point x="270" y="316" type="line"/>
      <point x="270" y="248" type="line"/>
      <point x="427" y="248" type="line"/>
      <point x="427" y="233" type="line" smooth="yes"/>
      <point x="427" y="118"/>
      <point x="383" y="61"/>
      <point x="282" y="61" type="curve" smooth="yes"/>
      <point x="180" y="61"/>
      <point x="125" y="133"/>
      <point x="125" y="281" type="curve" smooth="yes"/>
      <point x="125" y="325" type="line" smooth="yes"/>
      <point x="125" y="473"/>
      <point x="187" y="545"/>
      <point x="286" y="545" type="curve" smooth="yes"/>
      <point x="370" y="545"/>
      <point x="427" y="500"/>
      <point x="427" y="400" type="curve"/>
      <point x="507" y="400" type="line"/>
      <point x="507" y="546"/>
      <point x="413" y="617"/>
      <point x="286" y="617" type="curve" smooth="yes"/>
      <point x="135" y="617"/>
      <point x="43" y="514"/>
      <point x="43" y="303" type="curve" smooth="yes"/>
      <point x="43" y="93"/>
      <point x="129" y="-11"/>
      <point x="282" y="-11" type="curve" smooth="yes"/>
      <point x="347" y="-11"/>
      <point x="401" y="12"/>
      <point x="438" y="67" type="curve"/>
      <point x="455" y="0" type="line"/>
      <point x="507" y="0" type="line"/>
      <point x="507" y="316" type="line"/>
    </contour>
  </outline>
</glyph>
<glyph name="H" format="1">
  <advance width="523"/>
  <unicode hex="0048"/>
  <outline>
    <contour>
      <point x="262" y="606" type="move" name="mark0"/>
    </contour>
    <contour>
      <point x="0" y="0" type="move" name="mark1"/>
    </contour>
    <contour>
      <point x="384" y="0" type="line"/>
      <point x="461" y="0" type="line"/>
      <point x="461" y="606" type="line"/>
      <point x="384" y="606" type="line"/>
      <point x="384" y="346" type="line"/>
      <point x="140" y="346" type="line"/>
      <point x="140" y="606" type="line"/>
      <point x="62" y="606" type="line"/>
      <point x="62" y="0" type="line"/>
      <point x="140" y="0" type="line"/>
      <point x="140" y="275" type="line"/>
      <point x="384" y="275" type="line"/>
    </contour>
  </outline>
</glyph>
<glyph name="L" format="1">
  <advance width="403"/>
  <unicode hex="004C"/>
  <outline>
    <contour>
      <point x="202" y="606" type="move" name="mark0"/>
    </contour>
    <contour>
      <point x="202" y="0" type="move" name="mark1"/>
    </contour>
    <contour>
      <point x="387" y="71" type="line"/>
      <point x="140" y="71" type="line"/>
      <point x="140" y="606" type="line"/>
      <point x="62" y="606" type="line"/>
      <point x="62" y="0" type="line"/>
      <point x="387" y="0" type="line"/>
    </contour>
  </outline>
</glyph>
<glyph name="M" format="1">
  <advance width="604"/>
  <unicode hex="004D"/>
  <outline>
    <contour>
      <point x="471" y="0" type="line"/>
      <point x="549" y="0" type="line"/>
      <point x="549" y="606" type="line"/>
      <point x="431" y="606" type="line"/>
      <point x="324" y="209" type="line" smooth="yes"/>
      <point x="312" y="166"/>
      <point x="304" y="72"/>
      <point x="304" y="72" type="curve"/>
      <point x="301" y="72" type="line"/>
      <point x="301" y="72"/>
      <point x="292" y="164"/>
      <point x="280" y="209" type="curve" smooth="yes"/>
      <point x="173" y="606" type="line"/>
      <point x="55" y="606" type="line"/>
      <point x="55" y="0" type="line"/>
      <point x="125" y="0" type="line"/>
      <point x="125" y="440" type="line" smooth="yes"/>
      <point x="125" y="458"/>
      <point x="119" y="534"/>
      <point x="119" y="534" type="curve"/>
      <point x="123" y="534" type="line"/>
      <point x="125" y="523"/>
      <point x="127" y="513"/>
      <point x="129" y="502" type="curve" smooth="yes"/>
      <point x="132" y="481"/>
      <point x="136" y="460"/>
      <point x="141" y="440" type="curve" smooth="yes"/>
      <point x="263" y="0" type="line"/>
      <point x="332" y="0" type="line"/>
      <point x="453" y="440" type="line" smooth="yes"/>
      <point x="459" y="460"/>
      <point x="463" y="481"/>
      <point x="467" y="502" type="curve" smooth="yes"/>
      <point x="469" y="513"/>
      <point x="472" y="523"/>
      <point x="474" y="534" type="curve"/>
      <point x="477" y="534" type="line"/>
      <point x="477" y="534"/>
      <point x="471" y="461"/>
      <point x="471" y="440" type="curve" smooth="yes"/>
    </contour>
  </outline>
</glyph>
<glyph name="O" format="1">
  <advance width="564"/>
  <unicode hex="004F"/>
  <outline>
    <contour>
      <point x="282" y="606" type="move" name="mark0"/>
    </contour>
    <contour>
      <point x="0" y="0" type="move" name="mark1"/>
    </contour>
    <contour>
      <point x="282" y="617" type="curve" smooth="yes"/>
      <point x="133" y="617"/>
      <point x="43" y="514"/>
      <point x="43" y="303" type="curve" smooth="yes"/>
      <point x="43" y="93"/>
      <point x="133" y="-11"/>
      <point x="282" y="-11" type="curve" smooth="yes"/>
      <point x="431" y="-11"/>
      <point x="521" y="93"/>
      <point x="521" y="303" type="curve" smooth="yes"/>
      <point x="521" y="514"/>
      <point x="431" y="617"/>
    </contour>
    <contour>
      <point x="282" y="545" type="curve" smooth="yes"/>
      <point x="379" y="545"/>
      <point x="439" y="473"/>
      <point x="439" y="325" type="curve" smooth="yes"/>
      <point x="439" y="281" type="line" smooth="yes"/>
      <point x="439" y="133"/>
      <point x="379" y="61"/>
      <point x="282" y="61" type="curve" smooth="yes"/>
      <point x="185" y="61"/>
      <point x="125" y="133"/>
      <point x="125" y="281" type="curve" smooth="yes"/>
      <point x="125" y="325" type="line" smooth="yes"/>
      <point x="125" y="473"/>
      <point x="185" y="545"/>
    </contour>
  </outline>
</glyph>
<glyph name="Q" format="1">
  <advance width="564"/>
  <unicode hex="0051"/>
  <outline>
    <contour>
      <point x="43" y="303" type="curve" smooth="yes"/>
      <point x="43" y="93"/>
      <point x="133" y="-11"/>
      <point x="282" y="-11" type="curve" smooth="yes"/>
      <point x="293" y="-11" type="line"/>
      <point x="398" y="-110" type="line"/>
      <point x="502" y="-110" type="line"/>
      <point x="377" y="6" type="line"/>
      <point x="468" y="43"/>
      <point x="521" y="142"/>
      <point x="521" y="303" type="curve" smooth="yes"/>
      <point x="521" y="514"/>
      <point x="431" y="617"/>
      <point x="282" y="617" type="curve" smooth="yes"/>
      <point x="133" y="617"/>
      <point x="43" y="514"/>
    </contour>
    <contour>
      <point x="125" y="281" type="curve"/>
      <point x="125" y="325" type="line" smooth="yes"/>
      <point x="125" y="473"/>
      <point x="185" y="545"/>
      <point x="282" y="545" type="curve" smooth="yes"/>
      <point x="379" y="545"/>
      <point x="439" y="473"/>
      <point x="439" y="325" type="curve" smooth="yes"/>
      <point x="439" y="281" type="line" smooth="yes"/>
      <point x="439" y="133"/>
      <point x="379" y="61"/>
      <point x="282" y="61" type="curve" smooth="yes"/>
      <point x="185" y="61"/>
      <point x="125" y="133"/>
    </contour>
  </outline>
</glyph>
<glyph name="R" format="1">
  <advance width="523"/>
  <unicode hex="0052"/>
  <outline>
    <contour>
      <point x="262" y="606" type="move" name="mark0"/>
    </contour>
    <contour>
      <point x="262" y="0" type="move" name="mark1"/>
    </contour>
    <contour>
      <point x="306" y="606" type="curve"/>
      <point x="62" y="606" type="line"/>
      <point x="62" y="0" type="line"/>
      <point x="140" y="0" type="line"/>
      <point x="140" y="268" type="line"/>
      <point x="302" y="268" type="line"/>
      <point x="415" y="0" type="line"/>
      <point x="501" y="0" type="line"/>
      <point x="379" y="282" type="line"/>
      <point x="447" y="305"/>
      <point x="487" y="363"/>
      <point x="487" y="438" type="curve" smooth="yes"/>
      <point x="487" y="538"/>
      <point x="425" y="606"/>
    </contour>
    <contour>
      <point x="140" y="339" type="line"/>
      <point x="140" y="536" type="line"/>
      <point x="303" y="536" type="line" smooth="yes"/>
      <point x="370" y="536"/>
      <point x="406" y="499"/>
      <point x="406" y="438" type="curve" smooth="yes"/>
      <point x="406" y="378"/>
      <point x="365" y="339"/>
      <point x="303" y="339" type="curve" smooth="yes"/>
    </contour>
  </outline>
</glyph>
<glyph name="T" format="1">
  <advance width="443"/>
  <unicode hex="0054"/>
  <outline>
    <contour>
      <point x="222" y="606" type="move" name="mark0"/>
    </contour>
    <contour>
      <point x="222" y="0" type="move" name="mark1"/>
    </contour>
    <contour>
      <point x="260" y="536" type="line"/>
      <point x="425" y="536" type="line"/>
      <point x="425" y="606" type="line"/>
      <point x="17" y="606" type="line"/>
      <point x="17" y="536" type="line"/>
      <point x="182" y="536" type="line"/>
      <point x="182" y="0" type="line"/>
      <point x="260" y="0" type="line"/>
    </contour>
  </outline>
</glyph>
<glyph name="U" format="1">
  <advance width="523"/>
  <unicode hex="0055"/>
  <outline>
    <contour>
      <point x="262" y="606" type="move" name="mark0"/>
    </contour>
    <contour>
      <point x="0" y="0" type="move" name="mark1"/>
    </contour>
    <contour>
      <point x="461" y="197" type="curve"/>
      <point x="461" y="606" type="line"/>
      <point x="384" y="606" type="line"/>
      <point x="384" y="193" type="line" smooth="yes"/>
      <point x="384" y="107"/>
      <point x="338" y="61"/>
      <point x="262" y="61" type="curve" smooth="yes"/>
      <point x="186" y="61"/>
      <point x="140" y="107"/>
      <point x="140" y="193" type="curve" smooth="yes"/>
      <point x="140" y="606" type="line"/>
      <point x="62" y="606" type="line"/>
      <point x="62" y="197" type="line" smooth="yes"/>
      <point x="62" y="61"/>
      <point x="137" y="-11"/>
      <point x="262" y="-11" type="curve" smooth="yes"/>
      <point x="386" y="-11"/>
      <point x="461" y="61"/>
    </contour>
  </outline>
</glyph>
<glyph name="V" format="1">
  <advance width="484"/>
  <unicode hex="0056"/>
  <outline>
    <contour>
      <point x="7" y="606" type="line"/>
      <point x="192" y="0" type="line"/>
      <point x="292" y="0" type="line"/>
      <point x="476" y="606" type="line"/>
      <point x="401" y="606" type="line"/>
      <point x="247" y="86" type="line"/>
      <point x="243" y="86" type="line"/>
      <point x="93" y="606" type="line"/>
    </contour>
  </outline>
</glyph>
<glyph name="Y" format="1">
  <advance width="484"/>
  <unicode hex="0059"/>
  <outline>
    <contour>
      <point x="242" y="606" type="move" name="mark0"/>
    </contour>
    <contour>
      <point x="0" y="0" type="move" name="mark1"/>
    </contour>
    <contour>
      <point x="203" y="0" type="line"/>
      <point x="281" y="0" type="line"/>
      <point x="281" y="251" type="line"/>
      <point x="476" y="606" type="line"/>
      <point x="401" y="606" type="line"/>
      <point x="250" y="325" type="line"/>
      <point x="247" y="325" type="line"/>
      <point x="93" y="606" type="line"/>
      <point x="7" y="606" type="line"/>
      <point x="203" y="251" type="line"/>
    </contour>
  </outline>
</glyph>
<glyph name="Z" format="1">
  <advance width="443"/>
  <unicode hex="005A"/>
  <outline>
    <contour>
      <point x="222" y="606" type="move" name="mark0"/>
    </contour>
    <contour>
      <point x="0" y="0" type="move" name="mark1"/>
    </contour>
    <contour>
      <point x="128" y="71" type="line"/>
      <point x="417" y="573" type="line"/>
      <point x="417" y="606" type="line"/>
      <point x="36" y="606" type="line"/>
      <point x="36" y="536" type="line"/>
      <point x="306" y="536" type="line"/>
      <point x="18" y="34" type="line"/>
      <point x="18" y="0" type="line"/>
      <point x="423" y="0" type="line"/>
      <point x="423" y="71" type="line"/>
    </contour>
  </outline>
</glyph>
<glyph name="backslash" format="1">
  <advance width="202"/>
  <unicode hex="005C"/>
  <outline>
    <contour>
      <point x="1" y="650" type="line"/>
      <point x="139" y="-43" type="line"/>
      <point x="202" y="-43" type="line"/>
      <point x="63" y="650" type="line"/>
    </contour>
  </outline>
</glyph>
<glyph name="underscore" format="1">
  <advance width="403"/>
  <unicode hex="005F"/>
  <outline>
    <contour>
      <point x="0" y="-63" type="line"/>
      <point x="0" y="-110" type="line"/>
      <point x="402" y="-110" type="line"/>
      <point x="402" y="-63" type="line"/>
    </contour>
  </outline>
</glyph>
<glyph name="grave" format="1">
  <advance width="241"/>
  <unicode hex="0060"/>
  <outline>
    <contour>
      <point x="24" y="636" type="line"/>
      <point x="119" y="522" type="line"/>
      <point x="180" y="522" type="line"/>
      <point x="104" y="639" type="line"/>
      <point x="25" y="639" type="line"/>
    </contour>
  </outline>
</glyph>
<glyph name="b" format="1">
  <advance width="403"/>
  <unicode hex="0062"/>
  <outline>
    <contour>
      <point x="130" y="421" type="curve"/>
      <point x="126" y="421" type="line"/>
      <point x="126" y="639" type="line"/>
      <point x="53" y="639" type="line"/>
      <point x="53" y="0" type="line"/>
      <point x="108" y="0" type="line"/>
      <point x="118" y="54" type="line"/>
      <point x="122" y="54" type="line"/>
      <point x="144" y="11"/>
      <point x="181" y="-11"/>
      <point x="224" y="-11" type="curve" smooth="yes"/>
      <point x="312" y="-11"/>
      <point x="368" y="63"/>
      <point x="368" y="233" type="curve" smooth="yes"/>
      <point x="368" y="402"/>
      <point x="306" y="476"/>
      <point x="229" y="476" type="curve" smooth="yes"/>
      <point x="184" y="476"/>
      <point x="146" y="455"/>
    </contour>
    <contour>
      <point x="209" y="411" type="curve" smooth="yes"/>
      <point x="264" y="411"/>
      <point x="292" y="365"/>
      <point x="292" y="249" type="curve" smooth="yes"/>
      <point x="292" y="216" type="line" smooth="yes"/>
      <point x="292" y="100"/>
      <point x="264" y="54"/>
      <point x="209" y="54" type="curve" smooth="yes"/>
      <point x="153" y="54"/>
      <point x="126" y="109"/>
      <point x="126" y="216" type="curve" smooth="yes"/>
      <point x="126" y="246" type="line" smooth="yes"/>
      <point x="126" y="355"/>
      <point x="153" y="411"/>
    </contour>
  </outline>
</glyph>
<glyph name="f" format="1">
  <advance width="202"/>
  <unicode hex="0066"/>
  <outline>
    <contour>
      <point x="141" y="646" type="curve" smooth="yes"/>
      <point x="70" y="646"/>
      <point x="49" y="592"/>
      <point x="49" y="539" type="curve" smooth="yes"/>
      <point x="49" y="465" type="line"/>
      <point x="8" y="465" type="line"/>
      <point x="8" y="400" type="line"/>
      <point x="49" y="400" type="line"/>
      <point x="49" y="0" type="line"/>
      <point x="121" y="0" type="line"/>
      <point x="121" y="400" type="line"/>
      <point x="202" y="400" type="line"/>
      <point x="202" y="465" type="line"/>
      <point x="121" y="465" type="line"/>
      <point x="121" y="543" type="line" smooth="yes"/>
      <point x="121" y="570"/>
      <point x="135" y="585"/>
      <point x="163" y="585" type="curve" smooth="yes"/>
      <point x="202" y="585" type="line"/>
      <point x="202" y="636" type="line"/>
      <point x="187" y="641"/>
      <point x="162" y="646"/>
    </contour>
  </outline>
</glyph>
<glyph name="h" format="1">
  <advance width="403"/>
  <unicode hex="0068"/>
  <outline>
    <contour>
      <point x="202" y="465" type="move" name="mark0"/>
    </contour>
    <contour>
      <point x="0" y="0" type="move" name="mark1"/>
    </contour>
    <contour>
      <point x="131" y="416" type="curve"/>
      <point x="126" y="416" type="line"/>
      <point x="126" y="639" type="line"/>
      <point x="53" y="639" type="line"/>
      <point x="53" y="0" type="line"/>
      <point x="126" y="0" type="line"/>
      <point x="126" y="284" type="line" smooth="yes"/>
      <point x="126" y="364"/>
      <point x="166" y="411"/>
      <point x="212" y="411" type="curve" smooth="yes"/>
      <point x="251" y="411"/>
      <point x="278" y="394"/>
      <point x="278" y="330" type="curve" smooth="yes"/>
      <point x="278" y="0" type="line"/>
      <point x="350" y="0" type="line"/>
      <point x="350" y="335" type="line" smooth="yes"/>
      <point x="350" y="438"/>
      <point x="305" y="476"/>
      <point x="235" y="476" type="curve" smooth="yes"/>
      <point x="189" y="476"/>
      <point x="155" y="458"/>
    </contour>
  </outline>
</glyph>
<glyph name="i" format="1">
  <advance width="161"/>
  <unicode hex="0069"/>
  <outline>
    <contour>
      <point x="44" y="639" type="line"/>
      <point x="44" y="552" type="line"/>
      <point x="117" y="552" type="line"/>
      <point x="117" y="639" type="line"/>
    </contour>
    <contour>
      <point x="44" y="465" type="line"/>
      <point x="44" y="0" type="line"/>
      <point x="117" y="0" type="line"/>
      <point x="117" y="465" type="line"/>
    </contour>
  </outline>
</glyph>
<glyph name="k" format="1">
  <advance width="362"/>
  <unicode hex="006B"/>
  <outline>
    <contour>
      <point x="0" y="0" type="move" name="mark0"/>
    </contour>
    <contour>
      <point x="181" y="0" type="move" name="mark1"/>
    </contour>
    <contour>
      <point x="356" y="465" type="line"/>
      <point x="276" y="465" type="line"/>
      <point x="126" y="249" type="line"/>
      <point x="126" y="639" type="line"/>
      <point x="53" y="639" type="line"/>
      <point x="53" y="0" type="line"/>
      <point x="126" y="0" type="line"/>
      <point x="126" y="158" type="line"/>
      <point x="175" y="212" type="line"/>
      <point x="281" y="0" type="line"/>
      <point x="363" y="0" type="line"/>
      <point x="219" y="274" type="line"/>
    </contour>
  </outline>
</glyph>
<glyph name="l" format="1">
  <advance width="161"/>
  <unicode hex="006C"/>
  <outline>
    <contour>
      <point x="80" y="465" type="move" name="mark0"/>
    </contour>
    <contour>
      <point x="80" y="0" type="move" name="mark1"/>
    </contour>
    <contour>
      <point x="44" y="639" type="line"/>
      <point x="44" y="0" type="line"/>
      <point x="117" y="0" type="line"/>
      <point x="117" y="639" type="line"/>
    </contour>
  </outline>
</glyph>
<glyph name="o" format="1">
  <advance width="403"/>
  <unicode hex="006F"/>
  <outline>
    <contour>
      <point x="202" y="465" type="move" name="mark0"/>
    </contour>
    <contour>
      <point x="0" y="0" type="move" name="mark1"/>
    </contour>
    <contour>
      <point x="202" y="476" type="curve" smooth="yes"/>
      <point x="93" y="476"/>
      <point x="35" y="400"/>
      <point x="35" y="232" type="curve" smooth="yes"/>
      <point x="35" y="65"/>
      <point x="93" y="-11"/>
      <point x="202" y="-11" type="curve" smooth="yes"/>
      <point x="310" y="-11"/>
      <point x="368" y="65"/>
      <point x="368" y="232" type="curve" smooth="yes"/>
      <point x="368" y="400"/>
      <point x="310" y="476"/>
    </contour>
    <contour>
      <point x="202" y="411" type="curve" smooth="yes"/>
      <point x="262" y="411"/>
      <point x="292" y="356"/>
      <point x="292" y="249" type="curve" smooth="yes"/>
      <point x="292" y="216" type="line" smooth="yes"/>
      <point x="292" y="109"/>
      <point x="262" y="54"/>
      <point x="202" y="54" type="curve" smooth="yes"/>
      <point x="141" y="54"/>
      <point x="111" y="109"/>
      <point x="111" y="216" type="curve" smooth="yes"/>
      <point x="111" y="249" type="line" smooth="yes"/>
      <point x="111" y="356"/>
      <point x="141" y="411"/>
    </contour>
  </outline>
</glyph>
<glyph name="u" format="1">
  <advance width="403"/>
  <unicode hex="0075"/>
  <outline>
    <contour>
      <point x="202" y="465" type="move" name="mark0"/>
    </contour>
    <contour>
      <point x="0" y="0" type="move" name="mark1"/>
    </contour>
    <contour>
      <point x="286" y="54" type="line"/>
      <point x="295" y="0" type="line"/>
      <point x="350" y="0" type="line"/>
      <point x="350" y="465" type="line"/>
      <point x="278" y="465" type="line"/>
      <point x="278" y="181" type="line" smooth="yes"/>
      <point x="278" y="101"/>
      <point x="237" y="54"/>
      <point x="191" y="54" type="curve" smooth="yes"/>
      <point x="152" y="54"/>
      <point x="126" y="71"/>
      <point x="126" y="135" type="curve" smooth="yes"/>
      <point x="126" y="465" type="line"/>
      <point x="53" y="465" type="line"/>
      <point x="53" y="130" type="line" smooth="yes"/>
      <point x="53" y="27"/>
      <point x="98" y="-11"/>
      <point x="168" y="-11" type="curve" smooth="yes"/>
      <point x="214" y="-11"/>
      <point x="255" y="8"/>
      <point x="280" y="54" type="curve"/>
    </contour>
  </outline>
</glyph>
<glyph name="v" format="1">
  <advance width="362"/>
  <unicode hex="0076"/>
  <outline>
    <contour>
      <point x="142" y="0" type="line"/>
      <point x="221" y="0" type="line"/>
      <point x="354" y="465" type="line"/>
      <point x="281" y="465" type="line"/>
      <point x="217" y="225" type="line" smooth="yes"/>
      <point x="214" y="212"/>
      <point x="210" y="200"/>
      <point x="207" y="187" type="curve" smooth="yes"/>
      <point x="200" y="162"/>
      <point x="193" y="136"/>
      <point x="187" y="111" type="curve"/>
      <point x="183" y="111" type="line"/>
      <point x="178" y="131"/>
      <point x="173" y="150"/>
      <point x="168" y="169" type="curve" smooth="yes"/>
      <point x="163" y="188"/>
      <point x="158" y="208"/>
      <point x="152" y="227" type="curve"/>
      <point x="88" y="465" type="line"/>
      <point x="9" y="465" type="line"/>
    </contour>
  </outline>
</glyph>
<glyph name="bar" format="1">
  <advance width="188"/>
  <unicode hex="007C"/>
  <outline>
    <contour>
      <point x="59" y="639" type="line"/>
      <point x="59" y="-153" type="line"/>
      <point x="129" y="-153" type="line"/>
      <point x="129" y="639" type="line"/>
    </contour>
  </outline>
</glyph>
<glyph name="braceright" format="1">
  <advance width="242"/>
  <unicode hex="007D"/>
  <outline>
    <contour>
      <point x="18" y="650" type="curve"/>
      <point x="18" y="599" type="line"/>
      <point x="50" y="599"/>
      <point x="88" y="589"/>
      <point x="88" y="537" type="curve" smooth="yes"/>
      <point x="88" y="478"/>
      <point x="91" y="420"/>
      <point x="94" y="360" type="curve" smooth="yes"/>
      <point x="94" y="358"/>
      <point x="94" y="356"/>
      <point x="94" y="354" type="curve" smooth="yes"/>
      <point x="95" y="294"/>
      <point x="115" y="259"/>
      <point x="171" y="259" type="curve"/>
      <point x="171" y="250" type="line"/>
      <point x="115" y="250"/>
      <point x="95" y="215"/>
      <point x="94" y="155" type="curve" smooth="yes"/>
      <point x="94" y="152"/>
      <point x="94" y="149"/>
      <point x="94" y="147" type="curve" smooth="yes"/>
      <point x="91" y="88"/>
      <point x="88" y="31"/>
      <point x="88" y="-27" type="curve" smooth="yes"/>
      <point x="88" y="-80"/>
      <point x="50" y="-90"/>
      <point x="18" y="-90" type="curve"/>
      <point x="18" y="-141" type="line"/>
      <point x="91" y="-141"/>
      <point x="156" y="-121"/>
      <point x="156" y="-10" type="curve" smooth="yes"/>
      <point x="156" y="164" type="line" smooth="yes"/>
      <point x="156" y="204"/>
      <point x="193" y="217"/>
      <point x="225" y="217" type="curve"/>
      <point x="225" y="292" type="line"/>
      <point x="193" y="292"/>
      <point x="156" y="305"/>
      <point x="156" y="345" type="curve" smooth="yes"/>
      <point x="156" y="519" type="line" smooth="yes"/>
      <point x="156" y="630"/>
      <point x="91" y="650"/>
    </contour>
  </outline>
</glyph>
<glyph name="asciitilde" format="1">
  <advance width="423"/>
  <unicode hex="007E"/>
  <outline>
    <contour>
      <point x="392" y="262" type="curve"/>
      <point x="392" y="343" type="line"/>
      <point x="392" y="343"/>
      <point x="349" y="278"/>
      <point x="288" y="278" type="curve" smooth="yes"/>
      <point x="260" y="278"/>
      <point x="235" y="292"/>
      <point x="211" y="305" type="curve" smooth="yes"/>
      <point x="187" y="319"/>
      <point x="162" y="332"/>
      <point x="135" y="332" type="curve" smooth="yes"/>
      <point x="65" y="332"/>
      <point x="31" y="268"/>
      <point x="31" y="268" type="curve"/>
      <point x="31" y="187" type="line"/>
      <point x="31" y="187"/>
      <point x="74" y="251"/>
      <point x="135" y="251" type="curve" smooth="yes"/>
      <point x="164" y="251"/>
      <point x="188" y="237"/>
      <point x="213" y="224" type="curve"/>
      <point x="237" y="210"/>
      <point x="261" y="197"/>
      <point x="288" y="197" type="curve" smooth="yes"/>
      <point x="358" y="197"/>
      <point x="392" y="262"/>
    </contour>
  </outline>
</glyph>
<glyph name="exclamdown" format="1">
  <advance width="241"/>
  <unicode hex="00A1"/>
  <outline>
    <contour>
      <point x="95" y="370" type="line"/>
      <point x="183" y="370" type="line"/>
      <point x="183" y="465" type="line"/>
      <point x="95" y="465" type="line"/>
    </contour>
    <contour>
      <point x="165" y="314" type="curve"/>
      <point x="110" y="314" type="line"/>
      <point x="108" y="275"/>
      <point x="106" y="235"/>
      <point x="105" y="196" type="curve"/>
      <point x="100" y="83"/>
      <point x="95" y="-29"/>
      <point x="88" y="-141" type="curve"/>
      <point x="188" y="-141" type="line"/>
      <point x="185" y="-107"/>
      <point x="179" y="19"/>
      <point x="173" y="147" type="curve" smooth="yes"/>
      <point x="170" y="205"/>
      <point x="168" y="264"/>
    </contour>
  </outline>
</glyph>
<glyph name="cent" format="1">
  <advance width="403"/>
  <unicode hex="00A2"/>
  <outline>
    <contour>
      <point x="229" y="545" type="curve"/>
      <point x="229" y="639" type="line"/>
      <point x="186" y="639" type="line"/>
      <point x="186" y="545" type="line"/>
      <point x="88" y="535"/>
      <point x="42" y="458"/>
      <point x="42" y="303" type="curve" smooth="yes"/>
      <point x="42" y="148"/>
      <point x="88" y="72"/>
      <point x="186" y="61" type="curve"/>
      <point x="186" y="-43" type="line"/>
      <point x="229" y="-43" type="line"/>
      <point x="229" y="61" type="line"/>
      <point x="323" y="71"/>
      <point x="360" y="152"/>
      <point x="360" y="243" type="curve"/>
      <point x="288" y="243" type="line"/>
      <point x="288" y="175"/>
      <point x="272" y="135"/>
      <point x="229" y="126" type="curve"/>
      <point x="229" y="480" type="line"/>
      <point x="271" y="471"/>
      <point x="285" y="434"/>
      <point x="285" y="363" type="curve"/>
      <point x="360" y="363" type="line"/>
      <point x="360" y="474"/>
      <point x="322" y="537"/>
    </contour>
    <contour>
      <point x="186" y="478" type="curve"/>
      <point x="186" y="127" type="line"/>
      <point x="138" y="141"/>
      <point x="118" y="194"/>
      <point x="118" y="286" type="curve" smooth="yes"/>
      <point x="118" y="320" type="line" smooth="yes"/>
      <point x="118" y="412"/>
      <point x="139" y="466"/>
    </contour>
  </outline>
</glyph>
<glyph name="yen" format="1">
  <advance width="403"/>
  <unicode hex="00A5"/>
  <outline>
    <contour>
      <point x="381" y="269" type="line"/>
      <point x="381" y="326" type="line"/>
      <point x="268" y="326" type="line"/>
      <point x="400" y="606" type="line"/>
      <point x="327" y="606" type="line"/>
      <point x="210" y="347" type="line"/>
      <point x="206" y="347" type="line"/>
      <point x="86" y="606" type="line"/>
      <point x="2" y="606" type="line"/>
      <point x="135" y="326" type="line"/>
      <point x="22" y="326" type="line"/>
      <point x="22" y="269" type="line"/>
      <point x="163" y="269" type="line"/>
      <point x="163" y="207" type="line"/>
      <point x="22" y="207" type="line"/>
      <point x="22" y="149" type="line"/>
      <point x="163" y="149" type="line"/>
      <point x="163" y="0" type="line"/>
      <point x="240" y="0" type="line"/>
      <point x="240" y="149" type="line"/>
      <point x="381" y="149" type="line"/>
      <point x="381" y="207" type="line"/>
      <point x="240" y="207" type="line"/>
      <point x="240" y="269" type="line"/>
    </contour>
  </outline>
</glyph>
<glyph name="section" format="1">
  <advance width="403"/>
  <unicode hex="00A7"/>
  <outline>
    <contour>
      <point x="214" y="617" type="curve" smooth="yes"/>
      <point x="122" y="617"/>
      <point x="69" y="567"/>
      <point x="69" y="484" type="curve" smooth="yes"/>
      <point x="69" y="426"/>
      <point x="91" y="390"/>
      <point x="122" y="363" type="curve"/>
      <point x="91" y="342"/>
      <point x="60" y="302"/>
      <point x="60" y="245" type="curve" smooth="yes"/>
      <point x="60" y="149"/>
      <point x="121" y="113"/>
      <point x="178" y="81" type="curve" smooth="yes"/>
      <point x="227" y="53"/>
      <point x="272" y="27"/>
      <point x="272" y="-34" type="curve" smooth="yes"/>
      <point x="272" y="-59"/>
      <point x="260" y="-97"/>
      <point x="210" y="-97" type="curve" smooth="yes"/>
      <point x="160" y="-97"/>
      <point x="145" y="-61"/>
      <point x="145" y="-25" type="curve" smooth="yes"/>
      <point x="145" y="-17" type="line"/>
      <point x="70" y="-17" type="line"/>
      <point x="70" y="-18"/>
      <point x="70" y="-19"/>
      <point x="70" y="-21" type="curve" smooth="yes"/>
      <point x="69" y="-24"/>
      <point x="69" y="-29"/>
      <point x="69" y="-34" type="curve" smooth="yes"/>
      <point x="69" y="-103"/>
      <point x="116" y="-161"/>
      <point x="202" y="-161" type="curve" smooth="yes"/>
      <point x="294" y="-161"/>
      <point x="347" y="-111"/>
      <point x="347" y="-28" type="curve" smooth="yes"/>
      <point x="347" y="30"/>
      <point x="324" y="65"/>
      <point x="294" y="92" type="curve"/>
      <point x="325" y="114"/>
      <point x="356" y="154"/>
      <point x="356" y="211" type="curve" smooth="yes"/>
      <point x="356" y="307"/>
      <point x="295" y="343"/>
      <point x="238" y="375" type="curve" smooth="yes"/>
      <point x="189" y="403"/>
      <point x="144" y="429"/>
      <point x="144" y="490" type="curve" smooth="yes"/>
      <point x="144" y="515"/>
      <point x="156" y="553"/>
      <point x="207" y="553" type="curve" smooth="yes"/>
      <point x="256" y="553"/>
      <point x="271" y="517"/>
      <point x="271" y="481" type="curve" smooth="yes"/>
      <point x="271" y="473" type="line"/>
      <point x="347" y="473" type="line"/>
      <point x="347" y="490" type="line" smooth="yes"/>
      <point x="347" y="559"/>
      <point x="301" y="617"/>
    </contour>
    <contour>
      <point x="161" y="335" type="curve"/>
      <point x="220" y="299"/>
      <point x="286" y="273"/>
      <point x="286" y="193" type="curve" smooth="yes"/>
      <point x="286" y="160"/>
      <point x="273" y="135"/>
      <point x="255" y="120" type="curve"/>
      <point x="247" y="125"/>
      <point x="239" y="130"/>
      <point x="231" y="135" type="curve" smooth="yes"/>
      <point x="180" y="165"/>
      <point x="131" y="194"/>
      <point x="131" y="263" type="curve" smooth="yes"/>
      <point x="131" y="296"/>
      <point x="142" y="321"/>
    </contour>
  </outline>
</glyph>
<glyph name="dieresis" format="1">
  <advance width="241"/>
  <unicode hex="00A8"/>
  <outline>
    <contour>
      <point x="16" y="639" type="line"/>
      <point x="16" y="555" type="line"/>
      <point x="93" y="555" type="line"/>
      <point x="93" y="639" type="line"/>
    </contour>
    <contour>
      <point x="149" y="639" type="line"/>
      <point x="149" y="555" type="line"/>
      <point x="225" y="555" type="line"/>
      <point x="225" y="639" type="line"/>
    </contour>
  </outline>
</glyph>
<glyph name="guillemotleft" format="1">
  <advance width="403"/>
  <unicode hex="00AB"/>
  <outline>
    <contour>
      <point x="172" y="111" type="line"/>
      <point x="235" y="111" type="line"/>
      <point x="135" y="288" type="line"/>
      <point x="235" y="465" type="line"/>
      <point x="172" y="465" type="line"/>
      <point x="48" y="288" type="line"/>
    </contour>
    <contour>
      <point x="307" y="111" type="line"/>
      <point x="369" y="111" type="line"/>
      <point x="270" y="288" type="line"/>
      <point x="369" y="465" type="line"/>
      <point x="307" y="465" type="line"/>
      <point x="181" y="288" type="line"/>
    </contour>
  </outline>
</glyph>
<glyph name="logicalnot" format="1">
  <advance width="423"/>
  <unicode hex="00AC"/>
  <outline>
    <contour>
      <point x="310" y="318" type="line"/>
      <point x="310" y="174" type="line"/>
      <point x="385" y="174" type="line"/>
      <point x="385" y="400" type="line"/>
      <point x="34" y="400" type="line"/>
      <point x="34" y="318" type="line"/>
    </contour>
  </outline>
</glyph>
<glyph name="macron" format="1">
  <advance width="241"/>
  <unicode hex="00AF"/>
  <outline>
    <contour>
      <point x="11" y="593" type="line"/>
      <point x="11" y="530" type="line"/>
      <point x="232" y="530" type="line"/>
      <point x="232" y="593" type="line"/>
    </contour>
  </outline>
</glyph>
<glyph name="twosuperior" format="1">
  <advance width="241"/>
  <unicode hex="00B2"/>
  <outline>
    <contour>
      <point x="125" y="650" type="curve" smooth="yes"/>
      <point x="72" y="650"/>
      <point x="25" y="617"/>
      <point x="25" y="538" type="curve" smooth="yes"/>
      <point x="25" y="527"/>
      <point x="27" y="512"/>
      <point x="27" y="512" type="curve"/>
      <point x="82" y="512" type="line"/>
      <point x="82" y="539" type="line" smooth="yes"/>
      <point x="82" y="571"/>
      <point x="94" y="598"/>
      <point x="124" y="598" type="curve" smooth="yes"/>
      <point x="156" y="598"/>
      <point x="164" y="573"/>
      <point x="164" y="553" type="curve" smooth="yes"/>
      <point x="164" y="508"/>
      <point x="132" y="474"/>
      <point x="98" y="438" type="curve" smooth="yes"/>
      <point x="91" y="430"/>
      <point x="84" y="423"/>
      <point x="77" y="415" type="curve" smooth="yes"/>
      <point x="47" y="382"/>
      <point x="21" y="346"/>
      <point x="21" y="299" type="curve" smooth="yes"/>
      <point x="21" y="285" type="line"/>
      <point x="223" y="285" type="line"/>
      <point x="223" y="340" type="line"/>
      <point x="89" y="340" type="line"/>
      <point x="98" y="360"/>
      <point x="115" y="377"/>
      <point x="130" y="393" type="curve" smooth="yes"/>
      <point x="133" y="396"/>
      <point x="136" y="399"/>
      <point x="139" y="402" type="curve" smooth="yes"/>
      <point x="177" y="444"/>
      <point x="222" y="495"/>
      <point x="222" y="553" type="curve" smooth="yes"/>
      <point x="222" y="622"/>
      <point x="178" y="650"/>
    </contour>
  </outline>
</glyph>
<glyph name="acute" format="1">
  <advance width="241"/>
  <unicode hex="00B4"/>
  <outline>
    <contour>
      <point x="60" y="522" type="line"/>
      <point x="121" y="522" type="line"/>
      <point x="217" y="636" type="line"/>
      <point x="216" y="639" type="line"/>
      <point x="136" y="639" type="line"/>
    </contour>
  </outline>
</glyph>
<glyph name="paragraph" format="1">
  <advance width="389"/>
  <unicode hex="00B6"/>
  <outline>
    <contour>
      <point x="328" y="-153" type="line"/>
      <point x="328" y="552" type="line"/>
      <point x="370" y="552" type="line"/>
      <point x="370" y="606" type="line"/>
      <point x="186" y="606" type="line" smooth="yes"/>
      <point x="91" y="606"/>
      <point x="16" y="520"/>
      <point x="16" y="413" type="curve" smooth="yes"/>
      <point x="16" y="313"/>
      <point x="80" y="232"/>
      <point x="165" y="221" type="curve"/>
      <point x="165" y="-153" type="line"/>
      <point x="223" y="-153" type="line"/>
      <point x="223" y="552" type="line"/>
      <point x="270" y="552" type="line"/>
      <point x="270" y="-153" type="line"/>
    </contour>
  </outline>
</glyph>
<glyph name="cedilla" format="1">
  <advance width="241"/>
  <unicode hex="00B8"/>
  <outline>
    <contour>
      <point x="126" y="-32" type="curve"/>
      <point x="133" y="10" type="line"/>
      <point x="84" y="10" type="line"/>
      <point x="72" y="-68" type="line"/>
      <point x="101" y="-68" type="line" smooth="yes"/>
      <point x="124" y="-68"/>
      <point x="131" y="-75"/>
      <point x="131" y="-89" type="curve" smooth="yes"/>
      <point x="131" y="-106"/>
      <point x="118" y="-111"/>
      <point x="99" y="-111" type="curve" smooth="yes"/>
      <point x="32" y="-111" type="line"/>
      <point x="32" y="-154" type="line"/>
      <point x="53" y="-158"/>
      <point x="81" y="-161"/>
      <point x="106" y="-161" type="curve" smooth="yes"/>
      <point x="142" y="-161"/>
      <point x="198" y="-149"/>
      <point x="198" y="-89" type="curve" smooth="yes"/>
      <point x="198" y="-49"/>
      <point x="164" y="-34"/>
    </contour>
  </outline>
</glyph>
<glyph name="onesuperior" format="1">
  <advance width="241"/>
  <unicode hex="00B9"/>
  <outline>
    <contour>
      <point x="225" y="285" type="line"/>
      <point x="225" y="336" type="line"/>
      <point x="160" y="336" type="line"/>
      <point x="160" y="640" type="line"/>
      <point x="134" y="640" type="line"/>
      <point x="107" y="621"/>
      <point x="62" y="606"/>
      <point x="34" y="602" type="curve"/>
      <point x="34" y="564" type="line"/>
      <point x="105" y="564" type="line"/>
      <point x="105" y="336" type="line"/>
      <point x="35" y="336" type="line"/>
      <point x="35" y="285" type="line"/>
    </contour>
  </outline>
</glyph>
<glyph name="ordmasculine" format="1">
  <advance width="264"/>
  <unicode hex="00BA"/>
  <outline>
    <contour>
      <point x="132" y="650" type="curve" smooth="yes"/>
      <point x="58" y="650"/>
      <point x="19" y="598"/>
      <point x="19" y="484" type="curve" smooth="yes"/>
      <point x="19" y="371"/>
      <point x="58" y="319"/>
      <point x="132" y="319" type="curve" smooth="yes"/>
      <point x="206" y="319"/>
      <point x="245" y="371"/>
      <point x="245" y="484" type="curve" smooth="yes"/>
      <point x="245" y="598"/>
      <point x="206" y="650"/>
    </contour>
    <contour>
      <point x="132" y="603" type="curve" smooth="yes"/>
      <point x="171" y="603"/>
      <point x="191" y="567"/>
      <point x="191" y="496" type="curve" smooth="yes"/>
      <point x="191" y="473" type="line" smooth="yes"/>
      <point x="191" y="402"/>
      <point x="171" y="366"/>
      <point x="132" y="366" type="curve" smooth="yes"/>
      <point x="92" y="366"/>
      <point x="73" y="402"/>
      <point x="73" y="473" type="curve" smooth="yes"/>
      <point x="73" y="496" type="line" smooth="yes"/>
      <point x="73" y="567"/>
      <point x="92" y="603"/>
    </contour>
  </outline>
</glyph>
<glyph name="onequarter" format="1">
  <advance width="605"/>
  <unicode hex="00BC"/>
  <outline>
    <contour>
      <point x="469" y="617" type="line"/>
      <point x="102" y="-11" type="line"/>
      <point x="157" y="-11" type="line"/>
      <point x="524" y="617" type="line"/>
    </contour>
    <contour>
      <point x="217" y="251" type="line"/>
      <point x="217" y="302" type="line"/>
      <point x="153" y="302" type="line"/>
      <point x="153" y="606" type="line"/>
      <point x="127" y="606" type="line"/>
      <point x="100" y="588"/>
      <point x="55" y="572"/>
      <point x="27" y="568" type="curve"/>
      <point x="27" y="530" type="line"/>
      <point x="98" y="530" type="line"/>
      <point x="98" y="302" type="line"/>
      <point x="28" y="302" type="line"/>
      <point x="28" y="251" type="line"/>
    </contour>
    <contour>
      <point x="491" y="365" type="curve"/>
      <point x="436" y="365" type="line"/>
      <point x="414" y="284"/>
      <point x="381" y="198"/>
      <point x="344" y="131" type="curve"/>
      <point x="344" y="85" type="line"/>
      <point x="477" y="85" type="line"/>
      <point x="477" y="0" type="line"/>
      <point x="532" y="0" type="line"/>
      <point x="532" y="85" type="line"/>
      <point x="568" y="85" type="line"/>
      <point x="568" y="135" type="line"/>
      <point x="532" y="135" type="line"/>
      <point x="532" y="314" type="line"/>
      <point x="508" y="314" type="line"/>
      <point x="501" y="279"/>
      <point x="485" y="237"/>
      <point x="477" y="216" type="curve"/>
      <point x="477" y="135" type="line"/>
      <point x="402" y="135" type="line"/>
      <point x="425" y="174"/>
      <point x="471" y="275"/>
    </contour>
  </outline>
</glyph>
<glyph name="questiondown" format="1">
  <advance width="443"/>
  <unicode hex="00BF"/>
  <outline>
    <contour>
      <point x="171" y="465" type="line"/>
      <point x="171" y="370" type="line"/>
      <point x="260" y="370" type="line"/>
      <point x="260" y="465" type="line"/>
    </contour>
    <contour>
      <point x="254" y="256" type="curve"/>
      <point x="254" y="306" type="line"/>
      <point x="177" y="306" type="line"/>
      <point x="177" y="270" type="line" smooth="yes"/>
      <point x="177" y="222"/>
      <point x="154" y="196"/>
      <point x="129" y="167" type="curve" smooth="yes"/>
      <point x="97" y="132"/>
      <point x="62" y="92"/>
      <point x="62" y="2" type="curve" smooth="yes"/>
      <point x="62" y="-89"/>
      <point x="129" y="-152"/>
      <point x="219" y="-152" type="curve" smooth="yes"/>
      <point x="331" y="-152"/>
      <point x="385" y="-76"/>
      <point x="385" y="28" type="curve" smooth="yes"/>
      <point x="385" y="39"/>
      <point x="383" y="59"/>
      <point x="383" y="59" type="curve"/>
      <point x="304" y="59" type="line"/>
      <point x="304" y="59"/>
      <point x="305" y="50"/>
      <point x="305" y="35" type="curve" smooth="yes"/>
      <point x="305" y="-6"/>
      <point x="297" y="-84"/>
      <point x="225" y="-84" type="curve" smooth="yes"/>
      <point x="151" y="-84"/>
      <point x="142" y="-12"/>
      <point x="142" y="11" type="curve" smooth="yes"/>
      <point x="142" y="70"/>
      <point x="170" y="101"/>
      <point x="198" y="132" type="curve" smooth="yes"/>
      <point x="226" y="164"/>
      <point x="254" y="196"/>
    </contour>
  </outline>
</glyph>
<glyph name="Atilde" format="1">
  <advance width="484"/>
  <unicode hex="00C3"/>
  <outline>
    <contour>
      <point x="370" y="781" type="curve"/>
      <point x="319" y="781" type="line"/>
      <point x="316" y="760"/>
      <point x="305" y="754"/>
      <point x="289" y="754" type="curve" smooth="yes"/>
      <point x="272" y="754"/>
      <point x="257" y="760"/>
      <point x="241" y="767" type="curve" smooth="yes"/>
      <point x="224" y="774"/>
      <point x="207" y="781"/>
      <point x="187" y="781" type="curve" smooth="yes"/>
      <point x="134" y="781"/>
      <point x="112" y="729"/>
      <point x="112" y="689" type="curve"/>
      <point x="164" y="689" type="line"/>
      <point x="166" y="709"/>
      <point x="178" y="716"/>
      <point x="194" y="716" type="curve" smooth="yes"/>
      <point x="211" y="716"/>
      <point x="226" y="710"/>
      <point x="242" y="703" type="curve" smooth="yes"/>
      <point x="258" y="696"/>
      <point x="275" y="689"/>
      <point x="295" y="689" type="curve" smooth="yes"/>
      <point x="349" y="689"/>
      <point x="370" y="740"/>
    </contour>
    <contour>
      <point x="400" y="0" type="line"/>
      <point x="484" y="0" type="line"/>
      <point x="292" y="606" type="line"/>
      <point x="192" y="606" type="line"/>
      <point x="-1" y="0" type="line"/>
      <point x="77" y="0" type="line"/>
      <point x="118" y="135" type="line"/>
      <point x="359" y="135" type="line"/>
    </contour>
    <contour>
      <point x="237" y="543" type="curve"/>
      <point x="240" y="543" type="line"/>
      <point x="240" y="543"/>
      <point x="248" y="496"/>
      <point x="255" y="476" type="curve"/>
      <point x="337" y="206" type="line"/>
      <point x="140" y="206" type="line"/>
      <point x="223" y="476" type="line" smooth="yes"/>
      <point x="229" y="495"/>
      <point x="237" y="543"/>
    </contour>
  </outline>
</glyph>
<glyph name="Aring" format="1">
  <advance width="484"/>
  <unicode hex="00C5"/>
  <outline>
    <contour>
      <point x="241" y="809" type="curve" smooth="yes"/>
      <point x="194" y="809"/>
      <point x="156" y="771"/>
      <point x="156" y="724" type="curve" smooth="yes"/>
      <point x="156" y="676"/>
      <point x="195" y="639"/>
      <point x="241" y="639" type="curve" smooth="yes"/>
      <point x="289" y="639"/>
      <point x="326" y="677"/>
      <point x="326" y="724" type="curve" smooth="yes"/>
      <point x="326" y="770"/>
      <point x="290" y="809"/>
    </contour>
    <contour>
      <point x="241" y="769" type="curve" smooth="yes"/>
      <point x="265" y="769"/>
      <point x="286" y="749"/>
      <point x="286" y="724" type="curve" smooth="yes"/>
      <point x="286" y="699"/>
      <point x="265" y="679"/>
      <point x="241" y="679" type="curve" smooth="yes"/>
      <point x="217" y="679"/>
      <point x="196" y="699"/>
      <point x="196" y="724" type="curve" smooth="yes"/>
      <point x="196" y="749"/>
      <point x="217" y="769"/>
    </contour>
    <contour>
      <point x="400" y="0" type="line"/>
      <point x="484" y="0" type="line"/>
      <point x="292" y="606" type="line"/>
      <point x="192" y="606" type="line"/>
      <point x="-1" y="0" type="line"/>
      <point x="77" y="0" type="line"/>
      <point x="118" y="135" type="line"/>
      <point x="359" y="135" type="line"/>
    </contour>
    <contour>
      <point x="237" y="543" type="curve"/>
      <point x="240" y="543" type="line"/>
      <point x="240" y="543"/>
      <point x="248" y="496"/>
      <point x="255" y="476" type="curve"/>
      <point x="337" y="206" type="line"/>
      <point x="140" y="206" type="line"/>
      <point x="223" y="476" type="line" smooth="yes"/>
      <point x="229" y="495"/>
      <point x="237" y="543"/>
    </contour>
  </outline>
</glyph>
<glyph name="Ccedilla" format="1">
  <advance width="523"/>
  <unicode hex="00C7"/>
  <outline>
    <contour>
      <point x="276" y="617" type="curve" smooth="yes"/>
      <point x="118" y="617"/>
      <point x="37" y="514"/>
      <point x="37" y="303" type="curve" smooth="yes"/>
      <point x="37" y="115"/>
      <point x="102" y="12"/>
      <point x="228" y="-7" type="curve"/>
      <point x="218" y="-68" type="line"/>
      <point x="248" y="-68" type="line" smooth="yes"/>
      <point x="271" y="-68"/>
      <point x="278" y="-75"/>
      <point x="278" y="-89" type="curve" smooth="yes"/>
      <point x="278" y="-106"/>
      <point x="265" y="-111"/>
      <point x="246" y="-111" type="curve" smooth="yes"/>
      <point x="179" y="-111" type="line"/>
      <point x="179" y="-154" type="line"/>
      <point x="200" y="-158"/>
      <point x="228" y="-161"/>
      <point x="253" y="-161" type="curve" smooth="yes"/>
      <point x="289" y="-161"/>
      <point x="345" y="-149"/>
      <point x="345" y="-89" type="curve" smooth="yes"/>
      <point x="345" y="-49"/>
      <point x="311" y="-34"/>
      <point x="273" y="-32" type="curve"/>
      <point x="276" y="-11" type="line"/>
      <point x="400" y="-11"/>
      <point x="487" y="61"/>
      <point x="487" y="217" type="curve"/>
      <point x="410" y="217" type="line"/>
      <point x="410" y="112"/>
      <point x="357" y="61"/>
      <point x="276" y="61" type="curve" smooth="yes"/>
      <point x="170" y="61"/>
      <point x="118" y="133"/>
      <point x="118" y="281" type="curve" smooth="yes"/>
      <point x="118" y="325" type="line" smooth="yes"/>
      <point x="118" y="473"/>
      <point x="170" y="545"/>
      <point x="276" y="545" type="curve" smooth="yes"/>
      <point x="355" y="545"/>
      <point x="408" y="493"/>
      <point x="408" y="387" type="curve"/>
      <point x="487" y="387" type="line"/>
      <point x="487" y="542"/>
      <point x="400" y="617"/>
    </contour>
  </outline>
</glyph>
<glyph name="Eacute" format="1">
  <advance width="484"/>
  <unicode hex="00C9"/>
  <outline>
    <contour>
      <point x="250" y="664" type="line"/>
      <point x="346" y="778" type="line"/>
      <point x="345" y="781" type="line"/>
      <point x="265" y="781" type="line"/>
      <point x="189" y="664" type="line"/>
    </contour>
    <contour>
      <point x="140" y="536" type="line"/>
      <point x="436" y="536" type="line"/>
      <point x="436" y="606" type="line"/>
      <point x="62" y="606" type="line"/>
      <point x="62" y="0" type="line"/>
      <point x="441" y="0" type="line"/>
      <point x="441" y="71" type="line"/>
      <point x="140" y="71" type="line"/>
      <point x="140" y="275" type="line"/>
      <point x="397" y="275" type="line"/>
      <point x="397" y="346" type="line"/>
      <point x="140" y="346" type="line"/>
    </contour>
  </outline>
</glyph>
<glyph name="Igrave" format="1">
  <advance width="202"/>
  <unicode hex="00CC"/>
  <outline>
    <contour>
      <point x="93" y="664" type="line"/>
      <point x="154" y="664" type="line"/>
      <point x="78" y="781" type="line"/>
      <point x="-2" y="781" type="line"/>
      <point x="-3" y="778" type="line"/>
    </contour>
    <contour>
      <point x="62" y="0" type="line"/>
      <point x="140" y="0" type="line"/>
      <point x="140" y="606" type="line"/>
      <point x="62" y="606" type="line"/>
    </contour>
  </outline>
</glyph>
<glyph name="Idieresis" format="1">
  <advance width="202"/>
  <unicode hex="00CF"/>
  <outline>
    <contour>
      <point x="-4" y="697" type="line"/>
      <point x="73" y="697" type="line"/>
      <point x="73" y="781" type="line"/>
      <point x="-4" y="781" type="line"/>
    </contour>
    <contour>
      <point x="129" y="697" type="line"/>
      <point x="206" y="697" type="line"/>
      <point x="206" y="781" type="line"/>
      <point x="129" y="781" type="line"/>
    </contour>
    <contour>
      <point x="62" y="0" type="line"/>
      <point x="140" y="0" type="line"/>
      <point x="140" y="606" type="line"/>
      <point x="62" y="606" type="line"/>
    </contour>
  </outline>
</glyph>
<glyph name="Ntilde" format="1">
  <advance width="523"/>
  <unicode hex="00D1"/>
  <outline>
    <contour>
      <point x="391" y="781" type="curve"/>
      <point x="339" y="781" type="line"/>
      <point x="337" y="760"/>
      <point x="325" y="754"/>
      <point x="309" y="754" type="curve" smooth="yes"/>
      <point x="292" y="754"/>
      <point x="277" y="760"/>
      <point x="261" y="767" type="curve" smooth="yes"/>
      <point x="245" y="774"/>
      <point x="228" y="781"/>
      <point x="208" y="781" type="curve" smooth="yes"/>
      <point x="155" y="781"/>
      <point x="133" y="729"/>
      <point x="133" y="689" type="curve"/>
      <point x="184" y="689" type="line"/>
      <point x="187" y="709"/>
      <point x="198" y="716"/>
      <point x="214" y="716" type="curve" smooth="yes"/>
      <point x="230" y="716"/>
      <point x="246" y="710"/>
      <point x="261" y="703" type="curve" smooth="yes"/>
      <point x="278" y="696"/>
      <point x="296" y="689"/>
      <point x="316" y="689" type="curve" smooth="yes"/>
      <point x="369" y="689"/>
      <point x="391" y="740"/>
    </contour>
    <contour>
      <point x="397" y="0" type="line"/>
      <point x="461" y="0" type="line"/>
      <point x="461" y="606" type="line"/>
      <point x="392" y="606" type="line"/>
      <point x="392" y="225" type="line" smooth="yes"/>
      <point x="392" y="206"/>
      <point x="394" y="145"/>
      <point x="394" y="145" type="curve"/>
      <point x="392" y="144" type="line"/>
      <point x="392" y="144"/>
      <point x="368" y="202"/>
      <point x="354" y="225" type="curve" smooth="yes"/>
      <point x="129" y="606" type="line"/>
      <point x="62" y="606" type="line"/>
      <point x="62" y="0" type="line"/>
      <point x="132" y="0" type="line"/>
      <point x="132" y="386" type="line" smooth="yes"/>
      <point x="132" y="411"/>
      <point x="128" y="467"/>
      <point x="128" y="467" type="curve"/>
      <point x="131" y="468" type="line"/>
      <point x="131" y="468"/>
      <point x="155" y="412"/>
      <point x="170" y="386" type="curve" smooth="yes"/>
    </contour>
  </outline>
</glyph>
<glyph name="Ocircumflex" format="1">
  <advance width="564"/>
  <unicode hex="00D4"/>
  <outline>
    <contour>
      <point x="283" y="730" type="line"/>
      <point x="322" y="660" type="line"/>
      <point x="392" y="660" type="line"/>
      <point x="317" y="780" type="line"/>
      <point x="248" y="780" type="line"/>
      <point x="172" y="660" type="line"/>
      <point x="243" y="660" type="line"/>
    </contour>
    <contour>
      <point x="282" y="617" type="curve" smooth="yes"/>
      <point x="133" y="617"/>
      <point x="43" y="514"/>
      <point x="43" y="303" type="curve" smooth="yes"/>
      <point x="43" y="93"/>
      <point x="133" y="-11"/>
      <point x="282" y="-11" type="curve" smooth="yes"/>
      <point x="431" y="-11"/>
      <point x="521" y="93"/>
      <point x="521" y="303" type="curve" smooth="yes"/>
      <point x="521" y="514"/>
      <point x="431" y="617"/>
    </contour>
    <contour>
      <point x="282" y="545" type="curve" smooth="yes"/>
      <point x="379" y="545"/>
      <point x="439" y="473"/>
      <point x="439" y="325" type="curve" smooth="yes"/>
      <point x="439" y="281" type="line" smooth="yes"/>
      <point x="439" y="133"/>
      <point x="379" y="61"/>
      <point x="282" y="61" type="curve" smooth="yes"/>
      <point x="185" y="61"/>
      <point x="125" y="133"/>
      <point x="125" y="281" type="curve" smooth="yes"/>
      <point x="125" y="325" type="line" smooth="yes"/>
      <point x="125" y="473"/>
      <point x="185" y="545"/>
    </contour>
  </outline>
</glyph>
<glyph name="Uacute" format="1">
  <advance width="523"/>
  <unicode hex="00DA"/>
  <outline>
    <contour>
      <point x="271" y="664" type="line"/>
      <point x="365" y="778" type="line"/>
      <point x="364" y="781" type="line"/>
      <point x="285" y="781" type="line"/>
      <point x="209" y="664" type="line"/>
    </contour>
    <contour>
      <point x="461" y="197" type="curve"/>
      <point x="461" y="606" type="line"/>
      <point x="384" y="606" type="line"/>
      <point x="384" y="193" type="line" smooth="yes"/>
      <point x="384" y="107"/>
      <point x="338" y="61"/>
      <point x="262" y="61" type="curve" smooth="yes"/>
      <point x="186" y="61"/>
      <point x="140" y="107"/>
      <point x="140" y="193" type="curve" smooth="yes"/>
      <point x="140" y="606" type="line"/>
      <point x="62" y="606" type="line"/>
      <point x="62" y="197" type="line" smooth="yes"/>
      <point x="62" y="61"/>
      <point x="137" y="-11"/>
      <point x="262" y="-11" type="curve" smooth="yes"/>
      <point x="386" y="-11"/>
      <point x="461" y="61"/>
    </contour>
  </outline>
</glyph>
<glyph name="Udieresis" format="1">
  <advance width="523"/>
  <unicode hex="00DC"/>
  <outline>
    <contour>
      <point x="156" y="697" type="line"/>
      <point x="233" y="697" type="line"/>
      <point x="233" y="781" type="line"/>
      <point x="156" y="781" type="line"/>
    </contour>
    <contour>
      <point x="289" y="697" type="line"/>
      <point x="367" y="697" type="line"/>
      <point x="367" y="781" type="line"/>
      <point x="289" y="781" type="line"/>
    </contour>
    <contour>
      <point x="461" y="197" type="curve"/>
      <point x="461" y="606" type="line"/>
      <point x="384" y="606" type="line"/>
      <point x="384" y="193" type="line" smooth="yes"/>
      <point x="384" y="107"/>
      <point x="338" y="61"/>
      <point x="262" y="61" type="curve" smooth="yes"/>
      <point x="186" y="61"/>
      <point x="140" y="107"/>
      <point x="140" y="193" type="curve" smooth="yes"/>
      <point x="140" y="606" type="line"/>
      <point x="62" y="606" type="line"/>
      <point x="62" y="197" type="line" smooth="yes"/>
      <point x="62" y="61"/>
      <point x="137" y="-11"/>
      <point x="262" y="-11" type="curve" smooth="yes"/>
      <point x="386" y="-11"/>
      <point x="461" y="61"/>
    </contour>
  </outline>
</glyph>
<glyph name="adieresis" format="1">
  <advance width="403"/>
  <unicode hex="00E4"/>
  <outline>
    <contour>
      <point x="96" y="555" type="line"/>
      <point x="173" y="555" type="line"/>
      <point x="173" y="639" type="line"/>
      <point x="96" y="639" type="line"/>
    </contour>
    <contour>
      <point x="229" y="555" type="line"/>
      <point x="307" y="555" type="line"/>
      <point x="307" y="639" type="line"/>
      <point x="229" y="639" type="line"/>
    </contour>
    <contour>
      <point x="197" y="476" type="curve" smooth="yes"/>
      <point x="110" y="476"/>
      <point x="48" y="431"/>
      <point x="48" y="347" type="curve" smooth="yes"/>
      <point x="48" y="339"/>
      <point x="48" y="332"/>
      <point x="49" y="327" type="curve"/>
      <point x="120" y="327" type="line"/>
      <point x="120" y="338" type="line" smooth="yes"/>
      <point x="120" y="373"/>
      <point x="137" y="411"/>
      <point x="192" y="411" type="curve" smooth="yes"/>
      <point x="251" y="411"/>
      <point x="265" y="380"/>
      <point x="265" y="336" type="curve" smooth="yes"/>
      <point x="265" y="276" type="line"/>
      <point x="130" y="276"/>
      <point x="30" y="248"/>
      <point x="30" y="120" type="curve" smooth="yes"/>
      <point x="30" y="8"/>
      <point x="106" y="-11"/>
      <point x="152" y="-11" type="curve" smooth="yes"/>
      <point x="201" y="-11"/>
      <point x="241" y="12"/>
      <point x="265" y="50" type="curve"/>
      <point x="270" y="50" type="line"/>
      <point x="278" y="16"/>
      <point x="305" y="-7"/>
      <point x="343" y="-7" type="curve" smooth="yes"/>
      <point x="366" y="-7"/>
      <point x="383" y="-1"/>
      <point x="391" y="4" type="curve"/>
      <point x="391" y="54" type="line"/>
      <point x="362" y="54" type="line" smooth="yes"/>
      <point x="350" y="54"/>
      <point x="338" y="63"/>
      <point x="338" y="85" type="curve" smooth="yes"/>
      <point x="338" y="346" type="line" smooth="yes"/>
      <point x="338" y="428"/>
      <point x="291" y="476"/>
    </contour>
    <contour>
      <point x="265" y="211" type="curve"/>
      <point x="265" y="169" type="line" smooth="yes"/>
      <point x="265" y="92"/>
      <point x="215" y="54"/>
      <point x="169" y="54" type="curve" smooth="yes"/>
      <point x="128" y="54"/>
      <point x="106" y="72"/>
      <point x="106" y="125" type="curve" smooth="yes"/>
      <point x="106" y="197"/>
      <point x="171" y="211"/>
    </contour>
  </outline>
</glyph>
<glyph name="ae" format="1">
  <advance width="644"/>
  <unicode hex="00E6"/>
  <outline>
    <contour>
      <point x="323" y="465" type="move" name="mark0"/>
    </contour>
    <contour>
      <point x="0" y="0" type="move" name="mark1"/>
    </contour>
    <contour>
      <point x="446" y="476" type="curve" smooth="yes"/>
      <point x="392" y="476"/>
      <point x="351" y="459"/>
      <point x="322" y="423" type="curve"/>
      <point x="300" y="457"/>
      <point x="259" y="476"/>
      <point x="202" y="476" type="curve" smooth="yes"/>
      <point x="115" y="476"/>
      <point x="53" y="431"/>
      <point x="53" y="347" type="curve" smooth="yes"/>
      <point x="53" y="339"/>
      <point x="53" y="332"/>
      <point x="54" y="327" type="curve"/>
      <point x="126" y="327" type="line"/>
      <point x="126" y="338" type="line" smooth="yes"/>
      <point x="126" y="373"/>
      <point x="142" y="411"/>
      <point x="197" y="411" type="curve" smooth="yes"/>
      <point x="256" y="411"/>
      <point x="271" y="380"/>
      <point x="271" y="336" type="curve" smooth="yes"/>
      <point x="271" y="276" type="line"/>
      <point x="135" y="276"/>
      <point x="35" y="248"/>
      <point x="35" y="120" type="curve" smooth="yes"/>
      <point x="35" y="8"/>
      <point x="113" y="-11"/>
      <point x="171" y="-11" type="curve" smooth="yes"/>
      <point x="225" y="-11"/>
      <point x="272" y="17"/>
      <point x="305" y="60" type="curve"/>
      <point x="334" y="11"/>
      <point x="382" y="-11"/>
      <point x="446" y="-11" type="curve" smooth="yes"/>
      <point x="537" y="-11"/>
      <point x="598" y="54"/>
      <point x="598" y="158" type="curve"/>
      <point x="527" y="158" type="line"/>
      <point x="527" y="94"/>
      <point x="494" y="54"/>
      <point x="448" y="54" type="curve" smooth="yes"/>
      <point x="379" y="54"/>
      <point x="347" y="103"/>
      <point x="347" y="211" type="curve"/>
      <point x="598" y="211" type="line"/>
      <point x="598" y="257" type="line" smooth="yes"/>
      <point x="598" y="413"/>
      <point x="547" y="476"/>
    </contour>
    <contour>
      <point x="446" y="411" type="curve" smooth="yes"/>
      <point x="496" y="411"/>
      <point x="522" y="364"/>
      <point x="522" y="276" type="curve"/>
      <point x="347" y="276" type="line"/>
      <point x="354" y="365"/>
      <point x="381" y="411"/>
    </contour>
    <contour>
      <point x="271" y="211" type="curve"/>
      <point x="271" y="162" type="line" smooth="yes"/>
      <point x="271" y="89"/>
      <point x="220" y="54"/>
      <point x="174" y="54" type="curve" smooth="yes"/>
      <point x="133" y="54"/>
      <point x="111" y="72"/>
      <point x="111" y="125" type="curve" smooth="yes"/>
      <point x="111" y="197"/>
      <point x="176" y="211"/>
    </contour>
  </outline>
</glyph>
<glyph name="iacute" format="1">
  <advance width="202"/>
  <unicode hex="00ED"/>
  <outline>
    <contour>
      <point x="110" y="522" type="line"/>
      <point x="204" y="636" type="line"/>
      <point x="203" y="639" type="line"/>
      <point x="125" y="639" type="line"/>
      <point x="49" y="522" type="line"/>
    </contour>
    <contour>
      <point x="65" y="0" type="line"/>
      <point x="137" y="0" type="line"/>
      <point x="137" y="465" type="line"/>
      <point x="65" y="465" type="line"/>
    </contour>
  </outline>
</glyph>
<glyph name="icircumflex" format="1">
  <advance width="202"/>
  <unicode hex="00EE"/>
  <outline>
    <contour>
      <point x="102" y="589" type="line"/>
      <point x="141" y="519" type="line"/>
      <point x="211" y="519" type="line"/>
      <point x="136" y="638" type="line"/>
      <point x="67" y="638" type="line"/>
      <point x="-10" y="519" type="line"/>
      <point x="62" y="519" type="line"/>
    </contour>
    <contour>
      <point x="65" y="465" type="line"/>
      <point x="65" y="0" type="line"/>
      <point x="137" y="0" type="line"/>
      <point x="137" y="465" type="line"/>
    </contour>
  </outline>
</glyph>
<glyph name="idieresis" format="1">
  <advance width="202"/>
  <unicode hex="00EF"/>
  <outline>
    <contour>
      <point x="-4" y="555" type="line"/>
      <point x="73" y="555" type="line"/>
      <point x="73" y="639" type="line"/>
      <point x="-4" y="639" type="line"/>
    </contour>
    <contour>
      <point x="129" y="555" type="line"/>
      <point x="206" y="555" type="line"/>
      <point x="206" y="639" type="line"/>
      <point x="129" y="639" type="line"/>
    </contour>
    <contour>
      <point x="65" y="0" type="line"/>
      <point x="137" y="0" type="line"/>
      <point x="137" y="465" type="line"/>
      <point x="65" y="465" type="line"/>
    </contour>
  </outline>
</glyph>
<glyph name="eth" format="1">
  <advance width="403"/>
  <unicode hex="00F0"/>
  <outline>
    <contour>
      <point x="263" y="546" type="curve"/>
      <point x="326" y="552" type="line"/>
      <point x="326" y="606" type="line"/>
      <point x="223" y="596" type="line"/>
      <point x="214" y="606"/>
      <point x="205" y="615"/>
      <point x="196" y="625" type="curve" smooth="yes"/>
      <point x="192" y="630"/>
      <point x="187" y="634"/>
      <point x="183" y="639" type="curve"/>
      <point x="105" y="639" type="line"/>
      <point x="103" y="636" type="line"/>
      <point x="118" y="620"/>
      <point x="132" y="604"/>
      <point x="145" y="589" type="curve"/>
      <point x="82" y="583" type="line"/>
      <point x="82" y="530" type="line"/>
      <point x="187" y="539" type="line"/>
      <point x="205" y="514"/>
      <point x="222" y="490"/>
      <point x="236" y="465" type="curve"/>
      <point x="222" y="471"/>
      <point x="208" y="476"/>
      <point x="192" y="476" type="curve" smooth="yes"/>
      <point x="101" y="476"/>
      <point x="35" y="404"/>
      <point x="35" y="232" type="curve" smooth="yes"/>
      <point x="35" y="65"/>
      <point x="93" y="-11"/>
      <point x="202" y="-11" type="curve" smooth="yes"/>
      <point x="310" y="-11"/>
      <point x="368" y="65"/>
      <point x="368" y="232" type="curve" smooth="yes"/>
      <point x="368" y="361"/>
      <point x="326" y="461"/>
    </contour>
    <contour>
      <point x="292" y="249" type="curve"/>
      <point x="292" y="216" type="line" smooth="yes"/>
      <point x="292" y="109"/>
      <point x="262" y="54"/>
      <point x="202" y="54" type="curve" smooth="yes"/>
      <point x="141" y="54"/>
      <point x="111" y="109"/>
      <point x="111" y="216" type="curve" smooth="yes"/>
      <point x="111" y="249" type="line" smooth="yes"/>
      <point x="111" y="356"/>
      <point x="141" y="411"/>
      <point x="202" y="411" type="curve" smooth="yes"/>
      <point x="261" y="411"/>
      <point x="292" y="356"/>
    </contour>
  </outline>
</glyph>
<glyph name="ntilde" format="1">
  <advance width="403"/>
  <unicode hex="00F1"/>
  <outline>
    <contour>
      <point x="331" y="639" type="curve"/>
      <point x="279" y="639" type="line"/>
      <point x="277" y="619"/>
      <point x="265" y="612"/>
      <point x="249" y="612" type="curve" smooth="yes"/>
      <point x="232" y="612"/>
      <point x="217" y="618"/>
      <point x="201" y="625" type="curve" smooth="yes"/>
      <point x="185" y="632"/>
      <point x="168" y="639"/>
      <point x="148" y="639" type="curve" smooth="yes"/>
      <point x="95" y="639"/>
      <point x="72" y="588"/>
      <point x="72" y="547" type="curve"/>
      <point x="124" y="547" type="line"/>
      <point x="126" y="568"/>
      <point x="138" y="575"/>
      <point x="154" y="575" type="curve" smooth="yes"/>
      <point x="171" y="575"/>
      <point x="186" y="568"/>
      <point x="202" y="562" type="curve"/>
      <point x="218" y="554"/>
      <point x="235" y="547"/>
      <point x="255" y="547" type="curve" smooth="yes"/>
      <point x="309" y="547"/>
      <point x="331" y="598"/>
    </contour>
    <contour>
      <point x="235" y="476" type="curve" smooth="yes"/>
      <point x="189" y="476"/>
      <point x="149" y="457"/>
      <point x="123" y="411" type="curve"/>
      <point x="118" y="411" type="line"/>
      <point x="108" y="465" type="line"/>
      <point x="53" y="465" type="line"/>
      <point x="53" y="0" type="line"/>
      <point x="126" y="0" type="line"/>
      <point x="126" y="284" type="line" smooth="yes"/>
      <point x="126" y="364"/>
      <point x="166" y="411"/>
      <point x="212" y="411" type="curve" smooth="yes"/>
      <point x="251" y="411"/>
      <point x="278" y="394"/>
      <point x="278" y="330" type="curve" smooth="yes"/>
      <point x="278" y="0" type="line"/>
      <point x="350" y="0" type="line"/>
      <point x="350" y="335" type="line" smooth="yes"/>
      <point x="350" y="438"/>
      <point x="305" y="476"/>
    </contour>
  </outline>
</glyph>
<glyph name="divide" format="1">
  <advance width="485"/>
  <unicode hex="00F7"/>
  <outline>
    <contour>
      <point x="205" y="407" type="line"/>
      <point x="205" y="326" type="line"/>
      <point x="279" y="326" type="line"/>
      <point x="279" y="407" type="line"/>
    </contour>
    <contour>
      <point x="38" y="263" type="line"/>
      <point x="38" y="188" type="line"/>
      <point x="446" y="188" type="line"/>
      <point x="446" y="263" type="line"/>
    </contour>
    <contour>
      <point x="205" y="125" type="line"/>
      <point x="205" y="45" type="line"/>
      <point x="279" y="45" type="line"/>
      <point x="279" y="125" type="line"/>
    </contour>
  </outline>
</glyph>
<glyph name="ucircumflex" format="1">
  <advance width="403"/>
  <unicode hex="00FB"/>
  <outline>
    <contour>
      <point x="202" y="589" type="line"/>
      <point x="241" y="519" type="line"/>
      <point x="312" y="519" type="line"/>
      <point x="237" y="638" type="line"/>
      <point x="167" y="638" type="line"/>
      <point x="92" y="519" type="line"/>
      <point x="163" y="519" type="line"/>
    </contour>
    <contour>
      <point x="286" y="54" type="line"/>
      <point x="295" y="0" type="line"/>
      <point x="350" y="0" type="line"/>
      <point x="350" y="465" type="line"/>
      <point x="278" y="465" type="line"/>
      <point x="278" y="181" type="line" smooth="yes"/>
      <point x="278" y="101"/>
      <point x="237" y="54"/>
      <point x="191" y="54" type="curve" smooth="yes"/>
      <point x="152" y="54"/>
      <point x="126" y="71"/>
      <point x="126" y="135" type="curve" smooth="yes"/>
      <point x="126" y="465" type="line"/>
      <point x="53" y="465" type="line"/>
      <point x="53" y="130" type="line" smooth="yes"/>
      <point x="53" y="27"/>
      <point x="98" y="-11"/>
      <point x="168" y="-11" type="curve" smooth="yes"/>
      <point x="214" y="-11"/>
      <point x="255" y="8"/>
      <point x="280" y="54" type="curve"/>
    </contour>
  </outline>
</glyph>
<glyph name="udieresis" format="1">
  <advance width="403"/>
  <unicode hex="00FC"/>
  <outline>
    <contour>
      <point x="96" y="555" type="line"/>
      <point x="173" y="555" type="line"/>
      <point x="173" y="639" type="line"/>
      <point x="96" y="639" type="line"/>
    </contour>
    <contour>
      <point x="229" y="555" type="line"/>
      <point x="307" y="555" type="line"/>
      <point x="307" y="639" type="line"/>
      <point x="229" y="639" type="line"/>
    </contour>
    <contour>
      <point x="295" y="0" type="line"/>
      <point x="350" y="0" type="line"/>
      <point x="350" y="465" type="line"/>
      <point x="278" y="465" type="line"/>
      <point x="278" y="181" type="line" smooth="yes"/>
      <point x="278" y="101"/>
      <point x="237" y="54"/>
      <point x="191" y="54" type="curve" smooth="yes"/>
      <point x="152" y="54"/>
      <point x="126" y="71"/>
      <point x="126" y="135" type="curve" smooth="yes"/>
      <point x="126" y="465" type="line"/>
      <point x="53" y="465" type="line"/>
      <point x="53" y="130" type="line" smooth="yes"/>
      <point x="53" y="27"/>
      <point x="98" y="-11"/>
      <point x="168" y="-11" type="curve" smooth="yes"/>
      <point x="214" y="-11"/>
      <point x="255" y="8"/>
      <point x="280" y="54" type="curve"/>
      <point x="286" y="54" type="line"/>
    </contour>
  </outline>
</glyph>
<glyph name="yacute" format="1">
  <advance width="362"/>
  <unicode hex="00FD"/>
  <outline>
    <contour>
      <point x="190" y="522" type="line"/>
      <point x="285" y="636" type="line"/>
      <point x="284" y="639" type="line"/>
      <point x="204" y="639" type="line"/>
      <point x="129" y="522" type="line"/>
    </contour>
    <contour>
      <point x="236" y="24" type="curve"/>
      <point x="354" y="465" type="line"/>
      <point x="281" y="465" type="line"/>
      <point x="224" y="225" type="line"/>
      <point x="194" y="104" type="line"/>
      <point x="191" y="104" type="line"/>
      <point x="186" y="122"/>
      <point x="181" y="140"/>
      <point x="176" y="158" type="curve" smooth="yes"/>
      <point x="169" y="181"/>
      <point x="163" y="204"/>
      <point x="156" y="226" type="curve"/>
      <point x="88" y="465" type="line"/>
      <point x="9" y="465" type="line"/>
      <point x="151" y="0" type="line"/>
      <point x="134" y="-80"/>
      <point x="98" y="-103"/>
      <point x="59" y="-103" type="curve" smooth="yes"/>
      <point x="34" y="-103" type="line"/>
      <point x="34" y="-154" type="line"/>
      <point x="49" y="-159"/>
      <point x="65" y="-161"/>
      <point x="86" y="-161" type="curve" smooth="yes"/>
      <point x="167" y="-161"/>
      <point x="209" y="-78"/>
    </contour>
  </outline>
</glyph>
<glyph name="thorn" format="1">
  <advance width="403"/>
  <unicode hex="00FE"/>
  <outline>
    <contour>
      <point x="129" y="423" type="curve"/>
      <point x="126" y="424" type="line"/>
      <point x="126" y="639" type="line"/>
      <point x="53" y="639" type="line"/>
      <point x="53" y="-153" type="line"/>
      <point x="126" y="-153" type="line"/>
      <point x="126" y="41" type="line"/>
      <point x="130" y="41" type="line"/>
      <point x="146" y="9"/>
      <point x="184" y="-11"/>
      <point x="229" y="-11" type="curve" smooth="yes"/>
      <point x="306" y="-11"/>
      <point x="368" y="63"/>
      <point x="368" y="232" type="curve" smooth="yes"/>
      <point x="368" y="402"/>
      <point x="312" y="476"/>
      <point x="224" y="476" type="curve" smooth="yes"/>
      <point x="183" y="476"/>
      <point x="148" y="455"/>
    </contour>
    <contour>
      <point x="209" y="411" type="curve" smooth="yes"/>
      <point x="264" y="411"/>
      <point x="292" y="365"/>
      <point x="292" y="249" type="curve" smooth="yes"/>
      <point x="292" y="216" type="line" smooth="yes"/>
      <point x="292" y="100"/>
      <point x="264" y="54"/>
      <point x="209" y="54" type="curve" smooth="yes"/>
      <point x="153" y="54"/>
      <point x="126" y="109"/>
      <point x="126" y="216" type="curve" smooth="yes"/>
      <point x="126" y="249" type="line" smooth="yes"/>
      <point x="126" y="356"/>
      <point x="153" y="411"/>
    </contour>
  </outline>
</glyph>
<glyph name="abreve" format="1">
  <advance width="403"/>
  <unicode hex="0103"/>
  <outline>
    <contour>
      <point x="311" y="639" type="curve"/>
      <point x="255" y="639" type="line"/>
      <point x="253" y="627"/>
      <point x="232" y="610"/>
      <point x="202" y="610" type="curve" smooth="yes"/>
      <point x="171" y="610"/>
      <point x="152" y="627"/>
      <point x="149" y="639" type="curve"/>
      <point x="92" y="639" type="line"/>
      <point x="92" y="599"/>
      <point x="134" y="553"/>
      <point x="202" y="553" type="curve" smooth="yes"/>
      <point x="270" y="553"/>
      <point x="311" y="599"/>
    </contour>
    <contour>
      <point x="197" y="476" type="curve" smooth="yes"/>
      <point x="110" y="476"/>
      <point x="48" y="431"/>
      <point x="48" y="347" type="curve" smooth="yes"/>
      <point x="48" y="339"/>
      <point x="48" y="332"/>
      <point x="49" y="327" type="curve"/>
      <point x="120" y="327" type="line"/>
      <point x="120" y="338" type="line" smooth="yes"/>
      <point x="120" y="373"/>
      <point x="137" y="411"/>
      <point x="192" y="411" type="curve" smooth="yes"/>
      <point x="251" y="411"/>
      <point x="265" y="380"/>
      <point x="265" y="336" type="curve" smooth="yes"/>
      <point x="265" y="276" type="line"/>
      <point x="130" y="276"/>
      <point x="30" y="248"/>
      <point x="30" y="120" type="curve" smooth="yes"/>
      <point x="30" y="8"/>
      <point x="106" y="-11"/>
      <point x="152" y="-11" type="curve" smooth="yes"/>
      <point x="201" y="-11"/>
      <point x="241" y="12"/>
      <point x="265" y="50" type="curve"/>
      <point x="270" y="50" type="line"/>
      <point x="278" y="16"/>
      <point x="305" y="-7"/>
      <point x="343" y="-7" type="curve" smooth="yes"/>
      <point x="366" y="-7"/>
      <point x="383" y="-1"/>
      <point x="391" y="4" type="curve"/>
      <point x="391" y="54" type="line"/>
      <point x="362" y="54" type="line" smooth="yes"/>
      <point x="350" y="54"/>
      <point x="338" y="63"/>
      <point x="338" y="85" type="curve" smooth="yes"/>
      <point x="338" y="346" type="line" smooth="yes"/>
      <point x="338" y="428"/>
      <point x="291" y="476"/>
    </contour>
    <contour>
      <point x="265" y="211" type="curve"/>
      <point x="265" y="169" type="line" smooth="yes"/>
      <point x="265" y="92"/>
      <point x="215" y="54"/>
      <point x="169" y="54" type="curve" smooth="yes"/>
      <point x="128" y="54"/>
      <point x="106" y="72"/>
      <point x="106" y="125" type="curve" smooth="yes"/>
      <point x="106" y="197"/>
      <point x="171" y="211"/>
    </contour>
  </outline>
</glyph>
<glyph name="Dcaron" format="1">
  <advance width="523"/>
  <unicode hex="010E"/>
  <outline>
    <contour>
      <point x="151" y="781" type="line"/>
      <point x="226" y="661" type="line"/>
      <point x="295" y="661" type="line"/>
      <point x="372" y="781" type="line"/>
      <point x="301" y="781" type="line"/>
      <point x="262" y="711" type="line"/>
      <point x="222" y="781" type="line"/>
    </contour>
    <contour>
      <point x="250" y="606" type="curve"/>
      <point x="62" y="606" type="line"/>
      <point x="62" y="0" type="line"/>
      <point x="250" y="0" type="line" smooth="yes"/>
      <point x="393" y="0"/>
      <point x="480" y="104"/>
      <point x="480" y="312" type="curve" smooth="yes"/>
      <point x="480" y="507"/>
      <point x="393" y="606"/>
    </contour>
    <contour>
      <point x="243" y="71" type="curve"/>
      <point x="140" y="71" type="line"/>
      <point x="140" y="536" type="line"/>
      <point x="243" y="536" type="line" smooth="yes"/>
      <point x="339" y="536"/>
      <point x="399" y="469"/>
      <point x="399" y="334" type="curve" smooth="yes"/>
      <point x="399" y="290" type="line" smooth="yes"/>
      <point x="399" y="142"/>
      <point x="339" y="71"/>
    </contour>
  </outline>
</glyph>
<glyph name="Edotaccent" format="1">
  <advance width="484"/>
  <unicode hex="0116"/>
  <outline>
    <contour>
      <point x="203" y="781" type="line"/>
      <point x="203" y="697" type="line"/>
      <point x="280" y="697" type="line"/>
      <point x="280" y="781" type="line"/>
    </contour>
    <contour>
      <point x="436" y="606" type="line"/>
      <point x="62" y="606" type="line"/>
      <point x="62" y="0" type="line"/>
      <point x="441" y="0" type="line"/>
      <point x="441" y="71" type="line"/>
      <point x="140" y="71" type="line"/>
      <point x="140" y="275" type="line"/>
      <point x="397" y="275" type="line"/>
      <point x="397" y="346" type="line"/>
      <point x="140" y="346" type="line"/>
      <point x="140" y="536" type="line"/>
      <point x="436" y="536" type="line"/>
    </contour>
  </outline>
</glyph>
<glyph name="gcircumflex" format="1">
  <advance width="403"/>
  <unicode hex="011D"/>
  <outline>
    <contour>
      <point x="202" y="589" type="line"/>
      <point x="241" y="519" type="line"/>
      <point x="312" y="519" type="line"/>
      <point x="237" y="638" type="line"/>
      <point x="167" y="638" type="line"/>
      <point x="92" y="519" type="line"/>
      <point x="163" y="519" type="line"/>
    </contour>
    <contour>
      <point x="385" y="540" type="curve"/>
      <point x="326" y="540" type="line"/>
      <point x="324" y="498"/>
      <point x="309" y="481"/>
      <point x="264" y="459" type="curve"/>
      <point x="245" y="469"/>
      <point x="221" y="476"/>
      <point x="197" y="476" type="curve" smooth="yes"/>
      <point x="103" y="476"/>
      <point x="45" y="416"/>
      <point x="45" y="319" type="curve" smooth="yes"/>
      <point x="45" y="267"/>
      <point x="65" y="226"/>
      <point x="99" y="199" type="curve"/>
      <point x="60" y="185"/>
      <point x="34" y="156"/>
      <point x="34" y="118" type="curve" smooth="yes"/>
      <point x="34" y="91"/>
      <point x="48" y="64"/>
      <point x="72" y="49" type="curve"/>
      <point x="34" y="34"/>
      <point x="11" y="-5"/>
      <point x="11" y="-50" type="curve" smooth="yes"/>
      <point x="11" y="-111"/>
      <point x="50" y="-161"/>
      <point x="126" y="-161" type="curve" smooth="yes"/>
      <point x="258" y="-161" type="line" smooth="yes"/>
      <point x="347" y="-161"/>
      <point x="394" y="-103"/>
      <point x="394" y="-29" type="curve" smooth="yes"/>
      <point x="394" y="30"/>
      <point x="352" y="80"/>
      <point x="285" y="80" type="curve" smooth="yes"/>
      <point x="152" y="80" type="line" smooth="yes"/>
      <point x="129" y="80"/>
      <point x="110" y="98"/>
      <point x="110" y="121" type="curve" smooth="yes"/>
      <point x="110" y="144"/>
      <point x="128" y="163"/>
      <point x="152" y="163" type="curve" smooth="yes"/>
      <point x="201" y="163" type="line" smooth="yes"/>
      <point x="291" y="164"/>
      <point x="349" y="223"/>
      <point x="349" y="319" type="curve" smooth="yes"/>
      <point x="349" y="365"/>
      <point x="333" y="402"/>
      <point x="308" y="429" type="curve"/>
      <point x="356" y="441"/>
      <point x="385" y="484"/>
    </contour>
    <contour>
      <point x="196" y="415" type="curve" smooth="yes"/>
      <point x="248" y="415"/>
      <point x="276" y="381"/>
      <point x="276" y="319" type="curve" smooth="yes"/>
      <point x="276" y="260"/>
      <point x="248" y="223"/>
      <point x="196" y="223" type="curve" smooth="yes"/>
      <point x="145" y="223"/>
      <point x="118" y="257"/>
      <point x="118" y="319" type="curve" smooth="yes"/>
      <point x="118" y="378"/>
      <point x="145" y="415"/>
    </contour>
    <contour>
      <point x="138" y="11" type="curve"/>
      <point x="266" y="11" type="line" smooth="yes"/>
      <point x="303" y="11"/>
      <point x="321" y="-13"/>
      <point x="321" y="-43" type="curve" smooth="yes"/>
      <point x="321" y="-73"/>
      <point x="297" y="-98"/>
      <point x="266" y="-98" type="curve" smooth="yes"/>
      <point x="138" y="-98" type="line" smooth="yes"/>
      <point x="102" y="-98"/>
      <point x="84" y="-73"/>
      <point x="84" y="-43" type="curve" smooth="yes"/>
      <point x="84" y="-13"/>
      <point x="101" y="11"/>
    </contour>
  </outline>
</glyph>
<glyph name="Itilde" format="1">
  <advance width="202"/>
  <unicode hex="0128"/>
  <outline>
    <contour>
      <point x="230" y="781" type="curve"/>
      <point x="179" y="781" type="line"/>
      <point x="176" y="760"/>
      <point x="164" y="754"/>
      <point x="149" y="754" type="curve" smooth="yes"/>
      <point x="132" y="754"/>
      <point x="116" y="760"/>
      <point x="100" y="767" type="curve" smooth="yes"/>
      <point x="83" y="774"/>
      <point x="66" y="781"/>
      <point x="47" y="781" type="curve" smooth="yes"/>
      <point x="-6" y="781"/>
      <point x="-28" y="729"/>
      <point x="-28" y="689" type="curve"/>
      <point x="23" y="689" type="line"/>
      <point x="26" y="709"/>
      <point x="37" y="716"/>
      <point x="53" y="716" type="curve" smooth="yes"/>
      <point x="70" y="716"/>
      <point x="86" y="710"/>
      <point x="102" y="703" type="curve" smooth="yes"/>
      <point x="119" y="696"/>
      <point x="136" y="689"/>
      <point x="155" y="689" type="curve" smooth="yes"/>
      <point x="208" y="689"/>
      <point x="230" y="740"/>
    </contour>
    <contour>
      <point x="62" y="606" type="line"/>
      <point x="62" y="0" type="line"/>
      <point x="140" y="0" type="line"/>
      <point x="140" y="606" type="line"/>
    </contour>
  </outline>
</glyph>
<glyph name="itilde" format="1">
  <advance width="202"/>
  <unicode hex="0129"/>
  <outline>
    <contour>
      <point x="230" y="639" type="curve"/>
      <point x="179" y="639" type="line"/>
      <point x="176" y="619"/>
      <point x="164" y="612"/>
      <point x="149" y="612" type="curve" smooth="yes"/>
      <point x="132" y="612"/>
      <point x="116" y="618"/>
      <point x="100" y="625" type="curve" smooth="yes"/>
      <point x="83" y="632"/>
      <point x="66" y="639"/>
      <point x="47" y="639" type="curve" smooth="yes"/>
      <point x="-6" y="639"/>
      <point x="-28" y="588"/>
      <point x="-28" y="547" type="curve"/>
      <point x="23" y="547" type="line"/>
      <point x="26" y="568"/>
      <point x="37" y="575"/>
      <point x="53" y="575" type="curve" smooth="yes"/>
      <point x="70" y="575"/>
      <point x="86" y="568"/>
      <point x="102" y="561" type="curve" smooth="yes"/>
      <point x="119" y="554"/>
      <point x="136" y="547"/>
      <point x="155" y="547" type="curve" smooth="yes"/>
      <point x="208" y="547"/>
      <point x="230" y="598"/>
    </contour>
    <contour>
      <point x="65" y="465" type="line"/>
      <point x="65" y="0" type="line"/>
      <point x="137" y="0" type="line"/>
      <point x="137" y="465" type="line"/>
    </contour>
  </outline>
</glyph>
<glyph name="imacron" format="1">
  <advance width="202"/>
  <unicode hex="012B"/>
  <outline>
    <contour>
      <point x="-10" y="593" type="line"/>
      <point x="-10" y="530" type="line"/>
      <point x="212" y="530" type="line"/>
      <point x="212" y="593" type="line"/>
    </contour>
    <contour>
      <point x="65" y="465" type="line"/>
      <point x="65" y="0" type="line"/>
      <point x="137" y="0" type="line"/>
      <point x="137" y="465" type="line"/>
    </contour>
  </outline>
</glyph>
<glyph name="Ibreve" format="1">
  <advance width="202"/>
  <unicode hex="012C"/>
  <outline>
    <contour>
      <point x="210" y="781" type="curve"/>
      <point x="154" y="781" type="line"/>
      <point x="152" y="768"/>
      <point x="131" y="751"/>
      <point x="101" y="751" type="curve" smooth="yes"/>
      <point x="72" y="751"/>
      <point x="51" y="768"/>
      <point x="49" y="781" type="curve"/>
      <point x="-9" y="781" type="line"/>
      <point x="-9" y="741"/>
      <point x="34" y="695"/>
      <point x="101" y="695" type="curve" smooth="yes"/>
      <point x="169" y="695"/>
      <point x="210" y="741"/>
    </contour>
    <contour>
      <point x="62" y="606" type="line"/>
      <point x="62" y="0" type="line"/>
      <point x="140" y="0" type="line"/>
      <point x="140" y="606" type="line"/>
    </contour>
  </outline>
</glyph>
<glyph name="Iogonek" format="1">
  <advance width="202"/>
  <unicode hex="012E"/>
  <outline>
    <contour>
      <point x="140" y="0" type="curve"/>
      <point x="140" y="606" type="line"/>
      <point x="62" y="606" type="line"/>
      <point x="62" y="0" type="line"/>
      <point x="82" y="0" type="line"/>
      <point x="64" y="-20"/>
      <point x="50" y="-43"/>
      <point x="50" y="-81" type="curve" smooth="yes"/>
      <point x="50" y="-142"/>
      <point x="95" y="-161"/>
      <point x="133" y="-161" type="curve" smooth="yes"/>
      <point x="151" y="-161"/>
      <point x="169" y="-156"/>
      <point x="187" y="-149" type="curve"/>
      <point x="187" y="-103" type="line"/>
      <point x="159" y="-103" type="line" smooth="yes"/>
      <point x="130" y="-103"/>
      <point x="118" y="-80"/>
      <point x="118" y="-55" type="curve" smooth="yes"/>
      <point x="118" y="-32"/>
      <point x="129" y="-15"/>
      <point x="138" y="-2" type="curve"/>
      <point x="139" y="-2"/>
      <point x="139" y="-1"/>
    </contour>
  </outline>
</glyph>
<glyph name="Idotaccent" format="1">
  <advance width="202"/>
  <unicode hex="0130"/>
  <outline>
    <contour>
      <point x="63" y="781" type="line"/>
      <point x="63" y="697" type="line"/>
      <point x="140" y="697" type="line"/>
      <point x="140" y="781" type="line"/>
    </contour>
    <contour>
      <point x="62" y="606" type="line"/>
      <point x="62" y="0" type="line"/>
      <point x="140" y="0" type="line"/>
      <point x="140" y="606" type="line"/>
    </contour>
  </outline>
</glyph>
<glyph name="dotlessi" format="1">
  <advance width="202"/>
  <unicode hex="0131"/>
  <outline>
    <contour>
      <point x="101" y="465" type="move" name="mark0"/>
    </contour>
    <contour>
      <point x="0" y="0" type="move" name="mark1"/>
    </contour>
    <contour>
      <point x="65" y="465" type="line"/>
      <point x="65" y="0" type="line"/>
      <point x="137" y="0" type="line"/>
      <point x="137" y="465" type="line"/>
    </contour>
  </outline>
</glyph>
<glyph name="IJ" format="1">
  <advance width="564"/>
  <unicode hex="0132"/>
  <outline>
    <contour>
      <point x="62" y="0" type="line"/>
      <point x="140" y="0" type="line"/>
      <point x="140" y="606" type="line"/>
      <point x="62" y="606" type="line"/>
    </contour>
    <contour>
      <point x="507" y="144" type="curve"/>
      <point x="507" y="606" type="line"/>
      <point x="429" y="606" type="line"/>
      <point x="429" y="140" type="line" smooth="yes"/>
      <point x="429" y="88"/>
      <point x="404" y="61"/>
      <point x="360" y="61" type="curve" smooth="yes"/>
      <point x="316" y="61"/>
      <point x="291" y="88"/>
      <point x="291" y="140" type="curve" smooth="yes"/>
      <point x="291" y="184" type="line"/>
      <point x="213" y="184" type="line"/>
      <point x="213" y="144" type="line" smooth="yes"/>
      <point x="213" y="43"/>
      <point x="267" y="-11"/>
      <point x="360" y="-11" type="curve" smooth="yes"/>
      <point x="453" y="-11"/>
      <point x="507" y="43"/>
    </contour>
  </outline>
</glyph>
<glyph name="ij" format="1">
  <advance width="322"/>
  <unicode hex="0133"/>
  <outline>
    <contour>
      <point x="44" y="552" type="line"/>
      <point x="117" y="552" type="line"/>
      <point x="117" y="639" type="line"/>
      <point x="44" y="639" type="line"/>
    </contour>
    <contour>
      <point x="205" y="552" type="line"/>
      <point x="278" y="552" type="line"/>
      <point x="278" y="639" type="line"/>
      <point x="205" y="639" type="line"/>
    </contour>
    <contour>
      <point x="44" y="0" type="line"/>
      <point x="117" y="0" type="line"/>
      <point x="117" y="465" type="line"/>
      <point x="44" y="465" type="line"/>
    </contour>
    <contour>
      <point x="278" y="-54" type="curve"/>
      <point x="278" y="465" type="line"/>
      <point x="205" y="465" type="line"/>
      <point x="205" y="-57" type="line" smooth="yes"/>
      <point x="205" y="-85"/>
      <point x="191" y="-100"/>
      <point x="164" y="-100" type="curve" smooth="yes"/>
      <point x="125" y="-100" type="line"/>
      <point x="125" y="-150" type="line"/>
      <point x="140" y="-156"/>
      <point x="164" y="-161"/>
      <point x="186" y="-161" type="curve" smooth="yes"/>
      <point x="256" y="-161"/>
      <point x="278" y="-107"/>
    </contour>
  </outline>
</glyph>
<glyph name="Kcommaaccent" format="1">
  <advance width="484"/>
  <unicode hex="0136"/>
  <outline>
    <contour>
      <point x="467" y="606" type="line"/>
      <point x="380" y="606" type="line"/>
      <point x="140" y="286" type="line"/>
      <point x="140" y="606" type="line"/>
      <point x="62" y="606" type="line"/>
      <point x="62" y="0" type="line"/>
      <point x="140" y="0" type="line"/>
      <point x="140" y="188" type="line"/>
      <point x="237" y="296" type="line"/>
      <point x="385" y="0" type="line"/>
      <point x="473" y="0" type="line"/>
      <point x="285" y="362" type="line"/>
    </contour>
    <contour>
      <point x="215" y="-196" type="line"/>
      <point x="254" y="-196" type="line"/>
      <point x="279" y="-127" type="line"/>
      <point x="279" y="-53" type="line"/>
      <point x="204" y="-53" type="line"/>
      <point x="204" y="-133" type="line"/>
      <point x="234" y="-133" type="line"/>
    </contour>
  </outline>
</glyph>
<glyph name="kcommaaccent" format="1">
  <advance width="362"/>
  <unicode hex="0137"/>
  <outline>
    <contour>
      <point x="356" y="465" type="line"/>
      <point x="276" y="465" type="line"/>
      <point x="126" y="249" type="line"/>
      <point x="126" y="639" type="line"/>
      <point x="53" y="639" type="line"/>
      <point x="53" y="0" type="line"/>
      <point x="126" y="0" type="line"/>
      <point x="126" y="158" type="line"/>
      <point x="175" y="212" type="line"/>
      <point x="281" y="0" type="line"/>
      <point x="363" y="0" type="line"/>
      <point x="219" y="274" type="line"/>
    </contour>
    <contour>
      <point x="154" y="-196" type="line"/>
      <point x="194" y="-196" type="line"/>
      <point x="219" y="-127" type="line"/>
      <point x="219" y="-53" type="line"/>
      <point x="144" y="-53" type="line"/>
      <point x="144" y="-133" type="line"/>
      <point x="174" y="-133" type="line"/>
    </contour>
  </outline>
</glyph>
<glyph name="lacute" format="1">
  <advance width="161"/>
  <unicode hex="013A"/>
  <outline>
    <contour>
      <point x="89" y="664" type="line"/>
      <point x="184" y="778" type="line"/>
      <point x="184" y="781" type="line"/>
      <point x="104" y="781" type="line"/>
      <point x="28" y="664" type="line"/>
    </contour>
    <contour>
      <point x="44" y="0" type="line"/>
      <point x="117" y="0" type="line"/>
      <point x="117" y="639" type="line"/>
      <point x="44" y="639" type="line"/>
    </contour>
  </outline>
</glyph>
<glyph name="Lcommaaccent" format="1">
  <advance width="403"/>
  <unicode hex="013B"/>
  <outline>
    <contour>
      <point x="387" y="71" type="line"/>
      <point x="140" y="71" type="line"/>
      <point x="140" y="606" type="line"/>
      <point x="62" y="606" type="line"/>
      <point x="62" y="0" type="line"/>
      <point x="387" y="0" type="line"/>
    </contour>
    <contour>
      <point x="214" y="-196" type="line"/>
      <point x="240" y="-127" type="line"/>
      <point x="240" y="-53" type="line"/>
      <point x="164" y="-53" type="line"/>
      <point x="164" y="-133" type="line"/>
      <point x="194" y="-133" type="line"/>
      <point x="174" y="-196" type="line"/>
    </contour>
  </outline>
</glyph>
<glyph name="lcommaaccent" format="1">
  <advance width="161"/>
  <unicode hex="013C"/>
  <outline>
    <contour>
      <point x="44" y="639" type="line"/>
      <point x="44" y="0" type="line"/>
      <point x="117" y="0" type="line"/>
      <point x="117" y="639" type="line"/>
    </contour>
    <contour>
      <point x="54" y="-196" type="line"/>
      <point x="93" y="-196" type="line"/>
      <point x="118" y="-127" type="line"/>
      <point x="118" y="-53" type="line"/>
      <point x="43" y="-53" type="line"/>
      <point x="43" y="-133" type="line"/>
      <point x="73" y="-133" type="line"/>
    </contour>
  </outline>
</glyph>
<glyph name="Lcaron" format="1">
  <advance width="403"/>
  <unicode hex="013D"/>
  <outline>
    <contour>
      <point x="387" y="71" type="line"/>
      <point x="140" y="71" type="line"/>
      <point x="140" y="606" type="line"/>
      <point x="62" y="606" type="line"/>
      <point x="62" y="0" type="line"/>
      <point x="387" y="0" type="line"/>
    </contour>
    <contour>
      <point x="328" y="401" type="line"/>
      <point x="370" y="519" type="line"/>
      <point x="370" y="606" type="line"/>
      <point x="282" y="606" type="line"/>
      <point x="282" y="511" type="line"/>
      <point x="317" y="511" type="line"/>
      <point x="282" y="401" type="line"/>
    </contour>
  </outline>
</glyph>
<glyph name="lcaron" format="1">
  <advance width="211"/>
  <unicode hex="013E"/>
  <outline>
    <contour>
      <point x="44" y="639" type="line"/>
      <point x="44" y="0" type="line"/>
      <point x="117" y="0" type="line"/>
      <point x="117" y="639" type="line"/>
    </contour>
    <contour>
      <point x="152" y="401" type="line"/>
      <point x="198" y="401" type="line"/>
      <point x="240" y="519" type="line"/>
      <point x="240" y="606" type="line"/>
      <point x="152" y="606" type="line"/>
      <point x="152" y="511" type="line"/>
      <point x="187" y="511" type="line"/>
    </contour>
  </outline>
</glyph>
<glyph name="Ldot" format="1">
  <advance width="403"/>
  <unicode hex="013F"/>
  <outline>
    <contour>
      <point x="387" y="71" type="line"/>
      <point x="140" y="71" type="line"/>
      <point x="140" y="606" type="line"/>
      <point x="62" y="606" type="line"/>
      <point x="62" y="0" type="line"/>
      <point x="387" y="0" type="line"/>
    </contour>
    <contour>
      <point x="261" y="366" type="line"/>
      <point x="350" y="366" type="line"/>
      <point x="350" y="464" type="line"/>
      <point x="261" y="464" type="line"/>
    </contour>
  </outline>
</glyph>
<glyph name="ldot" format="1">
  <advance width="286"/>
  <unicode hex="0140"/>
  <outline>
    <contour>
      <point x="44" y="639" type="line"/>
      <point x="44" y="0" type="line"/>
      <point x="117" y="0" type="line"/>
      <point x="117" y="639" type="line"/>
    </contour>
    <contour>
      <point x="152" y="353" type="line"/>
      <point x="152" y="255" type="line"/>
      <point x="241" y="255" type="line"/>
      <point x="241" y="353" type="line"/>
    </contour>
  </outline>
</glyph>
<glyph name="lslash" format="1">
  <advance width="161"/>
  <unicode hex="0142"/>
  <outline>
    <contour>
      <point x="194" y="350" type="line"/>
      <point x="194" y="414" type="line"/>
      <point x="117" y="346" type="line"/>
      <point x="117" y="639" type="line"/>
      <point x="44" y="639" type="line"/>
      <point x="44" y="281" type="line"/>
      <point x="-19" y="225" type="line"/>
      <point x="-19" y="163" type="line"/>
      <point x="44" y="217" type="line"/>
      <point x="44" y="0" type="line"/>
      <point x="117" y="0" type="line"/>
      <point x="117" y="282" type="line"/>
    </contour>
  </outline>
</glyph>
<glyph name="Nacute" format="1">
  <advance width="523"/>
  <unicode hex="0143"/>
  <outline>
    <contour>
      <point x="271" y="664" type="line"/>
      <point x="365" y="778" type="line"/>
      <point x="364" y="781" type="line"/>
      <point x="285" y="781" type="line"/>
      <point x="209" y="664" type="line"/>
    </contour>
    <contour>
      <point x="397" y="0" type="line"/>
      <point x="461" y="0" type="line"/>
      <point x="461" y="606" type="line"/>
      <point x="392" y="606" type="line"/>
      <point x="392" y="225" type="line" smooth="yes"/>
      <point x="392" y="206"/>
      <point x="394" y="145"/>
      <point x="394" y="145" type="curve"/>
      <point x="392" y="144" type="line"/>
      <point x="392" y="144"/>
      <point x="368" y="202"/>
      <point x="354" y="225" type="curve" smooth="yes"/>
      <point x="129" y="606" type="line"/>
      <point x="62" y="606" type="line"/>
      <point x="62" y="0" type="line"/>
      <point x="132" y="0" type="line"/>
      <point x="132" y="386" type="line" smooth="yes"/>
      <point x="132" y="411"/>
      <point x="128" y="467"/>
      <point x="128" y="467" type="curve"/>
      <point x="131" y="468" type="line"/>
      <point x="131" y="468"/>
      <point x="155" y="412"/>
      <point x="170" y="386" type="curve" smooth="yes"/>
    </contour>
  </outline>
</glyph>
<glyph name="nacute" format="1">
  <advance width="403"/>
  <unicode hex="0144"/>
  <outline>
    <contour>
      <point x="210" y="522" type="line"/>
      <point x="305" y="636" type="line"/>
      <point x="304" y="639" type="line"/>
      <point x="225" y="639" type="line"/>
      <point x="149" y="522" type="line"/>
    </contour>
    <contour>
      <point x="235" y="476" type="curve" smooth="yes"/>
      <point x="189" y="476"/>
      <point x="149" y="457"/>
      <point x="123" y="411" type="curve"/>
      <point x="118" y="411" type="line"/>
      <point x="108" y="465" type="line"/>
      <point x="53" y="465" type="line"/>
      <point x="53" y="0" type="line"/>
      <point x="126" y="0" type="line"/>
      <point x="126" y="284" type="line" smooth="yes"/>
      <point x="126" y="364"/>
      <point x="166" y="411"/>
      <point x="212" y="411" type="curve" smooth="yes"/>
      <point x="251" y="411"/>
      <point x="278" y="394"/>
      <point x="278" y="330" type="curve" smooth="yes"/>
      <point x="278" y="0" type="line"/>
      <point x="350" y="0" type="line"/>
      <point x="350" y="335" type="line" smooth="yes"/>
      <point x="350" y="438"/>
      <point x="305" y="476"/>
    </contour>
  </outline>
</glyph>
<glyph name="napostrophe" format="1">
  <advance width="507"/>
  <unicode hex="0149"/>
  <outline>
    <contour>
      <point x="92" y="462" type="line"/>
      <point x="118" y="531" type="line"/>
      <point x="118" y="606" type="line"/>
      <point x="42" y="606" type="line"/>
      <point x="42" y="525" type="line"/>
      <point x="72" y="525" type="line"/>
      <point x="52" y="462" type="line"/>
    </contour>
    <contour>
      <point x="339" y="476" type="curve" smooth="yes"/>
      <point x="293" y="476"/>
      <point x="252" y="457"/>
      <point x="226" y="411" type="curve"/>
      <point x="221" y="411" type="line"/>
      <point x="211" y="465" type="line"/>
      <point x="156" y="465" type="line"/>
      <point x="156" y="0" type="line"/>
      <point x="229" y="0" type="line"/>
      <point x="229" y="284" type="line" smooth="yes"/>
      <point x="229" y="364"/>
      <point x="270" y="411"/>
      <point x="315" y="411" type="curve" smooth="yes"/>
      <point x="354" y="411"/>
      <point x="381" y="394"/>
      <point x="381" y="330" type="curve" smooth="yes"/>
      <point x="381" y="0" type="line"/>
      <point x="453" y="0" type="line"/>
      <point x="453" y="335" type="line" smooth="yes"/>
      <point x="453" y="438"/>
      <point x="408" y="476"/>
    </contour>
  </outline>
</glyph>
<glyph name="omacron" format="1">
  <advance width="403"/>
  <unicode hex="014D"/>
  <outline>
    <contour>
      <point x="91" y="593" type="line"/>
      <point x="91" y="530" type="line"/>
      <point x="313" y="530" type="line"/>
      <point x="313" y="593" type="line"/>
    </contour>
    <contour>
      <point x="202" y="476" type="curve" smooth="yes"/>
      <point x="93" y="476"/>
      <point x="35" y="400"/>
      <point x="35" y="232" type="curve" smooth="yes"/>
      <point x="35" y="65"/>
      <point x="93" y="-11"/>
      <point x="202" y="-11" type="curve" smooth="yes"/>
      <point x="310" y="-11"/>
      <point x="368" y="65"/>
      <point x="368" y="232" type="curve" smooth="yes"/>
      <point x="368" y="400"/>
      <point x="310" y="476"/>
    </contour>
    <contour>
      <point x="202" y="411" type="curve" smooth="yes"/>
      <point x="262" y="411"/>
      <point x="292" y="356"/>
      <point x="292" y="249" type="curve" smooth="yes"/>
      <point x="292" y="216" type="line" smooth="yes"/>
      <point x="292" y="109"/>
      <point x="262" y="54"/>
      <point x="202" y="54" type="curve" smooth="yes"/>
      <point x="141" y="54"/>
      <point x="111" y="109"/>
      <point x="111" y="216" type="curve" smooth="yes"/>
      <point x="111" y="249" type="line" smooth="yes"/>
      <point x="111" y="356"/>
      <point x="141" y="411"/>
    </contour>
  </outline>
</glyph>
<glyph name="Ohungarumlaut" format="1">
  <advance width="564"/>
  <unicode hex="0150"/>
  <outline>
    <contour>
      <point x="258" y="664" type="line"/>
      <point x="332" y="778" type="line"/>
      <point x="331" y="781" type="line"/>
      <point x="253" y="781" type="line"/>
      <point x="198" y="664" type="line"/>
    </contour>
    <contour>
      <point x="374" y="664" type="line"/>
      <point x="448" y="778" type="line"/>
      <point x="447" y="781" type="line"/>
      <point x="368" y="781" type="line"/>
      <point x="313" y="664" type="line"/>
    </contour>
    <contour>
      <point x="282" y="617" type="curve" smooth="yes"/>
      <point x="133" y="617"/>
      <point x="43" y="514"/>
      <point x="43" y="303" type="curve" smooth="yes"/>
      <point x="43" y="93"/>
      <point x="133" y="-11"/>
      <point x="282" y="-11" type="curve" smooth="yes"/>
      <point x="431" y="-11"/>
      <point x="521" y="93"/>
      <point x="521" y="303" type="curve" smooth="yes"/>
      <point x="521" y="514"/>
      <point x="431" y="617"/>
    </contour>
    <contour>
      <point x="282" y="545" type="curve" smooth="yes"/>
      <point x="379" y="545"/>
      <point x="439" y="473"/>
      <point x="439" y="325" type="curve" smooth="yes"/>
      <point x="439" y="281" type="line" smooth="yes"/>
      <point x="439" y="133"/>
      <point x="379" y="61"/>
      <point x="282" y="61" type="curve" smooth="yes"/>
      <point x="185" y="61"/>
      <point x="125" y="133"/>
      <point x="125" y="281" type="curve" smooth="yes"/>
      <point x="125" y="325" type="line" smooth="yes"/>
      <point x="125" y="473"/>
      <point x="185" y="545"/>
    </contour>
  </outline>
</glyph>
<glyph name="OE" format="1">
  <advance width="725"/>
  <unicode hex="0152"/>
  <outline>
    <contour>
      <point x="362" y="606" type="move" name="mark0"/>
    </contour>
    <contour>
      <point x="0" y="0" type="move" name="mark1"/>
    </contour>
    <contour>
      <point x="241" y="617" type="curve" smooth="yes"/>
      <point x="117" y="617"/>
      <point x="43" y="514"/>
      <point x="43" y="303" type="curve" smooth="yes"/>
      <point x="43" y="93"/>
      <point x="117" y="-11"/>
      <point x="241" y="-11" type="curve" smooth="yes"/>
      <point x="298" y="-11"/>
      <point x="343" y="12"/>
      <point x="376" y="60" type="curve"/>
      <point x="376" y="0" type="line"/>
      <point x="693" y="0" type="line"/>
      <point x="693" y="71" type="line"/>
      <point x="453" y="71" type="line"/>
      <point x="453" y="275" type="line"/>
      <point x="648" y="275" type="line"/>
      <point x="648" y="346" type="line"/>
      <point x="453" y="346" type="line"/>
      <point x="453" y="536" type="line"/>
      <point x="688" y="536" type="line"/>
      <point x="688" y="606" type="line"/>
      <point x="376" y="606" type="line"/>
      <point x="376" y="546" type="line"/>
      <point x="343" y="593"/>
      <point x="298" y="617"/>
    </contour>
    <contour>
      <point x="250" y="545" type="curve" smooth="yes"/>
      <point x="328" y="545"/>
      <point x="376" y="473"/>
      <point x="376" y="325" type="curve" smooth="yes"/>
      <point x="376" y="281" type="line" smooth="yes"/>
      <point x="376" y="133"/>
      <point x="328" y="61"/>
      <point x="250" y="61" type="curve" smooth="yes"/>
      <point x="172" y="61"/>
      <point x="125" y="133"/>
      <point x="125" y="281" type="curve" smooth="yes"/>
      <point x="125" y="325" type="line" smooth="yes"/>
      <point x="125" y="473"/>
      <point x="172" y="545"/>
    </contour>
  </outline>
</glyph>
<glyph name="rcaron" format="1">
  <advance width="241"/>
  <unicode hex="0159"/>
  <outline>
    <contour>
      <point x="-3" y="639" type="line"/>
      <point x="73" y="520" type="line"/>
      <point x="142" y="520" type="line"/>
      <point x="218" y="639" type="line"/>
      <point x="148" y="639" type="line"/>
      <point x="108" y="569" type="line"/>
      <point x="69" y="639" type="line"/>
    </contour>
    <contour>
      <point x="202" y="476" type="curve" smooth="yes"/>
      <point x="157" y="476"/>
      <point x="134" y="439"/>
      <point x="123" y="404" type="curve"/>
      <point x="118" y="404" type="line"/>
      <point x="108" y="465" type="line"/>
      <point x="53" y="465" type="line"/>
      <point x="53" y="0" type="line"/>
      <point x="126" y="0" type="line"/>
      <point x="126" y="284" type="line" smooth="yes"/>
      <point x="126" y="366"/>
      <point x="166" y="393"/>
      <point x="212" y="393" type="curve" smooth="yes"/>
      <point x="236" y="393" type="line"/>
      <point x="236" y="469" type="line"/>
      <point x="236" y="469"/>
      <point x="221" y="476"/>
    </contour>
  </outline>
</glyph>
<glyph name="Sacute" format="1">
  <advance width="484"/>
  <unicode hex="015A"/>
  <outline>
    <contour>
      <point x="250" y="664" type="line"/>
      <point x="346" y="778" type="line"/>
      <point x="345" y="781" type="line"/>
      <point x="265" y="781" type="line"/>
      <point x="189" y="664" type="line"/>
    </contour>
    <contour>
      <point x="241" y="617" type="curve" smooth="yes"/>
      <point x="135" y="617"/>
      <point x="49" y="566"/>
      <point x="49" y="454" type="curve" smooth="yes"/>
      <point x="49" y="335"/>
      <point x="142" y="304"/>
      <point x="228" y="276" type="curve" smooth="yes"/>
      <point x="299" y="253"/>
      <point x="364" y="232"/>
      <point x="364" y="162" type="curve" smooth="yes"/>
      <point x="364" y="96"/>
      <point x="318" y="61"/>
      <point x="237" y="61" type="curve" smooth="yes"/>
      <point x="168" y="61"/>
      <point x="117" y="96"/>
      <point x="117" y="171" type="curve"/>
      <point x="118" y="189" type="line"/>
      <point x="37" y="189" type="line"/>
      <point x="37" y="188"/>
      <point x="37" y="187"/>
      <point x="37" y="185" type="curve" smooth="yes"/>
      <point x="36" y="181"/>
      <point x="36" y="176"/>
      <point x="36" y="171" type="curve" smooth="yes"/>
      <point x="36" y="38"/>
      <point x="130" y="-11"/>
      <point x="240" y="-11" type="curve" smooth="yes"/>
      <point x="358" y="-11"/>
      <point x="446" y="39"/>
      <point x="446" y="175" type="curve" smooth="yes"/>
      <point x="446" y="292"/>
      <point x="351" y="323"/>
      <point x="266" y="351" type="curve" smooth="yes"/>
      <point x="195" y="374"/>
      <point x="131" y="395"/>
      <point x="131" y="461" type="curve" smooth="yes"/>
      <point x="131" y="519"/>
      <point x="179" y="545"/>
      <point x="243" y="545" type="curve" smooth="yes"/>
      <point x="304" y="545"/>
      <point x="351" y="511"/>
      <point x="351" y="449" type="curve" smooth="yes"/>
      <point x="351" y="436" type="line"/>
      <point x="431" y="436" type="line"/>
      <point x="431" y="446" type="line" smooth="yes"/>
      <point x="431" y="568"/>
      <point x="347" y="617"/>
    </contour>
  </outline>
</glyph>
<glyph name="Scircumflex" format="1">
  <advance width="484"/>
  <unicode hex="015C"/>
  <outline>
    <contour>
      <point x="242" y="730" type="line"/>
      <point x="281" y="660" type="line"/>
      <point x="352" y="660" type="line"/>
      <point x="277" y="780" type="line"/>
      <point x="208" y="780" type="line"/>
      <point x="132" y="660" type="line"/>
      <point x="202" y="660" type="line"/>
    </contour>
    <contour>
      <point x="241" y="617" type="curve" smooth="yes"/>
      <point x="135" y="617"/>
      <point x="49" y="566"/>
      <point x="49" y="454" type="curve" smooth="yes"/>
      <point x="49" y="335"/>
      <point x="142" y="304"/>
      <point x="228" y="276" type="curve" smooth="yes"/>
      <point x="299" y="253"/>
      <point x="364" y="232"/>
      <point x="364" y="162" type="curve" smooth="yes"/>
      <point x="364" y="96"/>
      <point x="318" y="61"/>
      <point x="237" y="61" type="curve" smooth="yes"/>
      <point x="168" y="61"/>
      <point x="117" y="96"/>
      <point x="117" y="171" type="curve"/>
      <point x="118" y="189" type="line"/>
      <point x="37" y="189" type="line"/>
      <point x="37" y="188"/>
      <point x="37" y="187"/>
      <point x="37" y="185" type="curve" smooth="yes"/>
      <point x="36" y="181"/>
      <point x="36" y="176"/>
      <point x="36" y="171" type="curve" smooth="yes"/>
      <point x="36" y="38"/>
      <point x="130" y="-11"/>
      <point x="240" y="-11" type="curve" smooth="yes"/>
      <point x="358" y="-11"/>
      <point x="446" y="39"/>
      <point x="446" y="175" type="curve" smooth="yes"/>
      <point x="446" y="292"/>
      <point x="351" y="323"/>
      <point x="266" y="351" type="curve" smooth="yes"/>
      <point x="195" y="374"/>
      <point x="131" y="395"/>
      <point x="131" y="461" type="curve" smooth="yes"/>
      <point x="131" y="519"/>
      <point x="179" y="545"/>
      <point x="243" y="545" type="curve" smooth="yes"/>
      <point x="304" y="545"/>
      <point x="351" y="511"/>
      <point x="351" y="449" type="curve" smooth="yes"/>
      <point x="351" y="436" type="line"/>
      <point x="431" y="436" type="line"/>
      <point x="431" y="446" type="line" smooth="yes"/>
      <point x="431" y="568"/>
      <point x="347" y="617"/>
    </contour>
  </outline>
</glyph>
<glyph name="Scedilla" format="1">
  <advance width="484"/>
  <unicode hex="015E"/>
  <outline>
    <contour>
      <point x="241" y="617" type="curve" smooth="yes"/>
      <point x="135" y="617"/>
      <point x="49" y="566"/>
      <point x="49" y="454" type="curve" smooth="yes"/>
      <point x="49" y="335"/>
      <point x="142" y="304"/>
      <point x="228" y="276" type="curve" smooth="yes"/>
      <point x="299" y="253"/>
      <point x="364" y="232"/>
      <point x="364" y="162" type="curve" smooth="yes"/>
      <point x="364" y="96"/>
      <point x="318" y="61"/>
      <point x="237" y="61" type="curve" smooth="yes"/>
      <point x="168" y="61"/>
      <point x="117" y="96"/>
      <point x="117" y="171" type="curve"/>
      <point x="118" y="189" type="line"/>
      <point x="37" y="189" type="line"/>
      <point x="37" y="188"/>
      <point x="37" y="187"/>
      <point x="37" y="185" type="curve" smooth="yes"/>
      <point x="36" y="181"/>
      <point x="36" y="176"/>
      <point x="36" y="171" type="curve" smooth="yes"/>
      <point x="36" y="51"/>
      <point x="111" y="0"/>
      <point x="208" y="-9" type="curve"/>
      <point x="199" y="-68" type="line"/>
      <point x="228" y="-68" type="line" smooth="yes"/>
      <point x="251" y="-68"/>
      <point x="258" y="-75"/>
      <point x="258" y="-89" type="curve" smooth="yes"/>
      <point x="258" y="-106"/>
      <point x="246" y="-111"/>
      <point x="226" y="-111" type="curve" smooth="yes"/>
      <point x="159" y="-111" type="line"/>
      <point x="159" y="-154" type="line"/>
      <point x="180" y="-158"/>
      <point x="208" y="-161"/>
      <point x="233" y="-161" type="curve" smooth="yes"/>
      <point x="269" y="-161"/>
      <point x="325" y="-149"/>
      <point x="325" y="-89" type="curve" smooth="yes"/>
      <point x="325" y="-49"/>
      <point x="292" y="-34"/>
      <point x="254" y="-32" type="curve"/>
      <point x="256" y="-10" type="line"/>
      <point x="366" y="-5"/>
      <point x="446" y="45"/>
      <point x="446" y="175" type="curve" smooth="yes"/>
      <point x="446" y="292"/>
      <point x="351" y="323"/>
      <point x="266" y="351" type="curve" smooth="yes"/>
      <point x="195" y="374"/>
      <point x="131" y="395"/>
      <point x="131" y="461" type="curve" smooth="yes"/>
      <point x="131" y="519"/>
      <point x="179" y="545"/>
      <point x="243" y="545" type="curve" smooth="yes"/>
      <point x="304" y="545"/>
      <point x="351" y="511"/>
      <point x="351" y="449" type="curve" smooth="yes"/>
      <point x="351" y="436" type="line"/>
      <point x="431" y="436" type="line"/>
      <point x="431" y="446" type="line" smooth="yes"/>
      <point x="431" y="568"/>
      <point x="347" y="617"/>
    </contour>
  </outline>
</glyph>
<glyph name="scedilla" format="1">
  <advance width="362"/>
  <unicode hex="015F"/>
  <outline>
    <contour>
      <point x="185" y="476" type="curve" smooth="yes"/>
      <point x="96" y="476"/>
      <point x="40" y="425"/>
      <point x="40" y="343" type="curve" smooth="yes"/>
      <point x="40" y="252"/>
      <point x="103" y="229"/>
      <point x="160" y="209" type="curve" smooth="yes"/>
      <point x="208" y="191"/>
      <point x="252" y="175"/>
      <point x="252" y="122" type="curve" smooth="yes"/>
      <point x="252" y="77"/>
      <point x="220" y="53"/>
      <point x="182" y="53" type="curve" smooth="yes"/>
      <point x="140" y="53"/>
      <point x="106" y="78"/>
      <point x="106" y="136" type="curve" smooth="yes"/>
      <point x="106" y="145" type="line"/>
      <point x="30" y="145" type="line"/>
      <point x="30" y="144"/>
      <point x="30" y="144"/>
      <point x="30" y="142" type="curve" smooth="yes"/>
      <point x="30" y="140"/>
      <point x="29" y="135"/>
      <point x="29" y="126" type="curve" smooth="yes"/>
      <point x="29" y="64"/>
      <point x="63" y="3"/>
      <point x="147" y="-9" type="curve"/>
      <point x="138" y="-68" type="line"/>
      <point x="167" y="-68" type="line" smooth="yes"/>
      <point x="190" y="-68"/>
      <point x="197" y="-75"/>
      <point x="197" y="-89" type="curve" smooth="yes"/>
      <point x="197" y="-106"/>
      <point x="185" y="-111"/>
      <point x="165" y="-111" type="curve" smooth="yes"/>
      <point x="98" y="-111" type="line"/>
      <point x="98" y="-154" type="line"/>
      <point x="119" y="-158"/>
      <point x="148" y="-161"/>
      <point x="172" y="-161" type="curve" smooth="yes"/>
      <point x="209" y="-161"/>
      <point x="264" y="-149"/>
      <point x="264" y="-89" type="curve" smooth="yes"/>
      <point x="264" y="-49"/>
      <point x="231" y="-34"/>
      <point x="193" y="-32" type="curve"/>
      <point x="195" y="-10" type="line"/>
      <point x="272" y="-4"/>
      <point x="327" y="39"/>
      <point x="327" y="133" type="curve" smooth="yes"/>
      <point x="327" y="231"/>
      <point x="259" y="255"/>
      <point x="200" y="275" type="curve" smooth="yes"/>
      <point x="155" y="291"/>
      <point x="115" y="304"/>
      <point x="115" y="348" type="curve" smooth="yes"/>
      <point x="115" y="374"/>
      <point x="126" y="412"/>
      <point x="178" y="412" type="curve" smooth="yes"/>
      <point x="227" y="412"/>
      <point x="242" y="376"/>
      <point x="242" y="339" type="curve" smooth="yes"/>
      <point x="242" y="331" type="line"/>
      <point x="317" y="331" type="line"/>
      <point x="317" y="332"/>
      <point x="317" y="333"/>
      <point x="317" y="336" type="curve" smooth="yes"/>
      <point x="318" y="339"/>
      <point x="318" y="344"/>
      <point x="318" y="348" type="curve" smooth="yes"/>
      <point x="318" y="417"/>
      <point x="271" y="476"/>
    </contour>
  </outline>
</glyph>
<glyph name="scaron" format="1">
  <advance width="362"/>
  <unicode hex="0161"/>
  <outline>
    <contour>
      <point x="147" y="520" type="line"/>
      <point x="216" y="520" type="line"/>
      <point x="292" y="639" type="line"/>
      <point x="221" y="639" type="line"/>
      <point x="181" y="569" type="line"/>
      <point x="142" y="639" type="line"/>
      <point x="72" y="639" type="line"/>
    </contour>
    <contour>
      <point x="185" y="476" type="curve" smooth="yes"/>
      <point x="96" y="476"/>
      <point x="40" y="425"/>
      <point x="40" y="343" type="curve" smooth="yes"/>
      <point x="40" y="252"/>
      <point x="103" y="229"/>
      <point x="160" y="209" type="curve" smooth="yes"/>
      <point x="208" y="191"/>
      <point x="252" y="175"/>
      <point x="252" y="122" type="curve" smooth="yes"/>
      <point x="252" y="77"/>
      <point x="220" y="53"/>
      <point x="182" y="53" type="curve" smooth="yes"/>
      <point x="140" y="53"/>
      <point x="106" y="78"/>
      <point x="106" y="136" type="curve" smooth="yes"/>
      <point x="106" y="145" type="line"/>
      <point x="30" y="145" type="line"/>
      <point x="30" y="144"/>
      <point x="30" y="144"/>
      <point x="30" y="142" type="curve" smooth="yes"/>
      <point x="30" y="140"/>
      <point x="29" y="135"/>
      <point x="29" y="126" type="curve" smooth="yes"/>
      <point x="29" y="57"/>
      <point x="72" y="-11"/>
      <point x="179" y="-11" type="curve" smooth="yes"/>
      <point x="264" y="-11"/>
      <point x="327" y="33"/>
      <point x="327" y="133" type="curve" smooth="yes"/>
      <point x="327" y="231"/>
      <point x="259" y="255"/>
      <point x="200" y="275" type="curve" smooth="yes"/>
      <point x="155" y="291"/>
      <point x="115" y="304"/>
      <point x="115" y="348" type="curve" smooth="yes"/>
      <point x="115" y="374"/>
      <point x="126" y="412"/>
      <point x="178" y="412" type="curve" smooth="yes"/>
      <point x="227" y="412"/>
      <point x="242" y="376"/>
      <point x="242" y="339" type="curve" smooth="yes"/>
      <point x="242" y="331" type="line"/>
      <point x="317" y="331" type="line"/>
      <point x="317" y="332"/>
      <point x="317" y="333"/>
      <point x="317" y="336" type="curve" smooth="yes"/>
      <point x="318" y="339"/>
      <point x="318" y="344"/>
      <point x="318" y="348" type="curve" smooth="yes"/>
      <point x="318" y="417"/>
      <point x="271" y="476"/>
    </contour>
  </outline>
</glyph>
<glyph name="tcedilla" format="1">
  <advance width="202"/>
  <unicode hex="0163"/>
  <outline>
    <contour>
      <point x="0" y="0" type="move" name="mark0"/>
    </contour>
    <contour>
      <point x="118" y="0" type="move" name="mark1"/>
    </contour>
    <contour>
      <point x="129" y="-32" type="curve"/>
      <point x="133" y="-9" type="line"/>
      <point x="135" y="-9" type="line" smooth="yes"/>
      <point x="153" y="-9"/>
      <point x="175" y="-4"/>
      <point x="187" y="4" type="curve"/>
      <point x="187" y="54" type="line"/>
      <point x="166" y="54" type="line" smooth="yes"/>
      <point x="139" y="54"/>
      <point x="125" y="69"/>
      <point x="125" y="96" type="curve" smooth="yes"/>
      <point x="125" y="400" type="line"/>
      <point x="187" y="400" type="line"/>
      <point x="187" y="465" type="line"/>
      <point x="125" y="465" type="line"/>
      <point x="125" y="594" type="line"/>
      <point x="68" y="594" type="line"/>
      <point x="52" y="465" type="line"/>
      <point x="12" y="465" type="line"/>
      <point x="12" y="400" type="line"/>
      <point x="52" y="400" type="line"/>
      <point x="52" y="98" type="line" smooth="yes"/>
      <point x="52" y="62"/>
      <point x="61" y="26"/>
      <point x="86" y="6" type="curve"/>
      <point x="75" y="-68" type="line"/>
      <point x="104" y="-68" type="line" smooth="yes"/>
      <point x="127" y="-68"/>
      <point x="134" y="-75"/>
      <point x="134" y="-89" type="curve" smooth="yes"/>
      <point x="134" y="-106"/>
      <point x="121" y="-111"/>
      <point x="102" y="-111" type="curve" smooth="yes"/>
      <point x="35" y="-111" type="line"/>
      <point x="35" y="-154" type="line"/>
      <point x="56" y="-158"/>
      <point x="84" y="-161"/>
      <point x="109" y="-161" type="curve" smooth="yes"/>
      <point x="145" y="-161"/>
      <point x="201" y="-149"/>
      <point x="201" y="-89" type="curve" smooth="yes"/>
      <point x="201" y="-49"/>
      <point x="167" y="-34"/>
    </contour>
  </outline>
</glyph>
<glyph name="Tcaron" format="1">
  <advance width="443"/>
  <unicode hex="0164"/>
  <outline>
    <contour>
      <point x="187" y="661" type="line"/>
      <point x="255" y="661" type="line"/>
      <point x="331" y="781" type="line"/>
      <point x="261" y="781" type="line"/>
      <point x="221" y="711" type="line"/>
      <point x="182" y="781" type="line"/>
      <point x="111" y="781" type="line"/>
    </contour>
    <contour>
      <point x="260" y="536" type="line"/>
      <point x="425" y="536" type="line"/>
      <point x="425" y="606" type="line"/>
      <point x="17" y="606" type="line"/>
      <point x="17" y="536" type="line"/>
      <point x="182" y="536" type="line"/>
      <point x="182" y="0" type="line"/>
      <point x="260" y="0" type="line"/>
    </contour>
  </outline>
</glyph>
<glyph name="tbar" format="1">
  <advance width="202"/>
  <unicode hex="0167"/>
  <outline>
    <contour>
      <point x="187" y="465" type="line"/>
      <point x="125" y="465" type="line"/>
      <point x="125" y="594" type="line"/>
      <point x="68" y="594" type="line"/>
      <point x="52" y="465" type="line"/>
      <point x="12" y="465" type="line"/>
      <point x="12" y="400" type="line"/>
      <point x="52" y="400" type="line"/>
      <point x="52" y="309" type="line"/>
      <point x="14" y="309" type="line"/>
      <point x="14" y="248" type="line"/>
      <point x="52" y="248" type="line"/>
      <point x="52" y="98" type="line" smooth="yes"/>
      <point x="52" y="45"/>
      <point x="72" y="-9"/>
      <point x="135" y="-9" type="curve" smooth="yes"/>
      <point x="153" y="-9"/>
      <point x="175" y="-4"/>
      <point x="187" y="4" type="curve"/>
      <point x="187" y="54" type="line"/>
      <point x="166" y="54" type="line" smooth="yes"/>
      <point x="139" y="54"/>
      <point x="125" y="69"/>
      <point x="125" y="96" type="curve" smooth="yes"/>
      <point x="125" y="248" type="line"/>
      <point x="183" y="248" type="line"/>
      <point x="183" y="309" type="line"/>
      <point x="125" y="309" type="line"/>
      <point x="125" y="400" type="line"/>
      <point x="187" y="400" type="line"/>
    </contour>
  </outline>
</glyph>
<glyph name="Utilde" format="1">
  <advance width="523"/>
  <unicode hex="0168"/>
  <outline>
    <contour>
      <point x="391" y="781" type="curve"/>
      <point x="339" y="781" type="line"/>
      <point x="337" y="760"/>
      <point x="325" y="754"/>
      <point x="309" y="754" type="curve" smooth="yes"/>
      <point x="292" y="754"/>
      <point x="277" y="760"/>
      <point x="261" y="767" type="curve" smooth="yes"/>
      <point x="245" y="774"/>
      <point x="228" y="781"/>
      <point x="208" y="781" type="curve" smooth="yes"/>
      <point x="155" y="781"/>
      <point x="133" y="729"/>
      <point x="133" y="689" type="curve"/>
      <point x="184" y="689" type="line"/>
      <point x="187" y="709"/>
      <point x="198" y="716"/>
      <point x="214" y="716" type="curve" smooth="yes"/>
      <point x="230" y="716"/>
      <point x="246" y="710"/>
      <point x="261" y="703" type="curve" smooth="yes"/>
      <point x="278" y="696"/>
      <point x="296" y="689"/>
      <point x="316" y="689" type="curve" smooth="yes"/>
      <point x="369" y="689"/>
      <point x="391" y="740"/>
    </contour>
    <contour>
      <point x="461" y="197" type="curve"/>
      <point x="461" y="606" type="line"/>
      <point x="384" y="606" type="line"/>
      <point x="384" y="193" type="line" smooth="yes"/>
      <point x="384" y="107"/>
      <point x="338" y="61"/>
      <point x="262" y="61" type="curve" smooth="yes"/>
      <point x="186" y="61"/>
      <point x="140" y="107"/>
      <point x="140" y="193" type="curve" smooth="yes"/>
      <point x="140" y="606" type="line"/>
      <point x="62" y="606" type="line"/>
      <point x="62" y="197" type="line" smooth="yes"/>
      <point x="62" y="61"/>
      <point x="137" y="-11"/>
      <point x="262" y="-11" type="curve" smooth="yes"/>
      <point x="386" y="-11"/>
      <point x="461" y="61"/>
    </contour>
  </outline>
</glyph>
<glyph name="ubreve" format="1">
  <advance width="403"/>
  <unicode hex="016D"/>
  <outline>
    <contour>
      <point x="311" y="639" type="curve"/>
      <point x="255" y="639" type="line"/>
      <point x="253" y="627"/>
      <point x="232" y="610"/>
      <point x="202" y="610" type="curve" smooth="yes"/>
      <point x="171" y="610"/>
      <point x="152" y="627"/>
      <point x="149" y="639" type="curve"/>
      <point x="92" y="639" type="line"/>
      <point x="92" y="599"/>
      <point x="134" y="553"/>
      <point x="202" y="553" type="curve" smooth="yes"/>
      <point x="270" y="553"/>
      <point x="311" y="599"/>
    </contour>
    <contour>
      <point x="286" y="54" type="line"/>
      <point x="295" y="0" type="line"/>
      <point x="350" y="0" type="line"/>
      <point x="350" y="465" type="line"/>
      <point x="278" y="465" type="line"/>
      <point x="278" y="181" type="line" smooth="yes"/>
      <point x="278" y="101"/>
      <point x="237" y="54"/>
      <point x="191" y="54" type="curve" smooth="yes"/>
      <point x="152" y="54"/>
      <point x="126" y="71"/>
      <point x="126" y="135" type="curve" smooth="yes"/>
      <point x="126" y="465" type="line"/>
      <point x="53" y="465" type="line"/>
      <point x="53" y="130" type="line" smooth="yes"/>
      <point x="53" y="27"/>
      <point x="98" y="-11"/>
      <point x="168" y="-11" type="curve" smooth="yes"/>
      <point x="214" y="-11"/>
      <point x="255" y="8"/>
      <point x="280" y="54" type="curve"/>
    </contour>
  </outline>
</glyph>
<glyph name="uring" format="1">
  <advance width="403"/>
  <unicode hex="016F"/>
  <outline>
    <contour>
      <point x="202" y="667" type="curve" smooth="yes"/>
      <point x="155" y="667"/>
      <point x="117" y="629"/>
      <point x="117" y="583" type="curve" smooth="yes"/>
      <point x="117" y="534"/>
      <point x="156" y="497"/>
      <point x="202" y="497" type="curve" smooth="yes"/>
      <point x="248" y="497"/>
      <point x="286" y="535"/>
      <point x="286" y="583" type="curve" smooth="yes"/>
      <point x="286" y="628"/>
      <point x="249" y="667"/>
    </contour>
    <contour>
      <point x="202" y="627" type="curve" smooth="yes"/>
      <point x="225" y="627"/>
      <point x="247" y="607"/>
      <point x="247" y="583" type="curve" smooth="yes"/>
      <point x="247" y="558"/>
      <point x="225" y="537"/>
      <point x="202" y="537" type="curve" smooth="yes"/>
      <point x="177" y="537"/>
      <point x="156" y="558"/>
      <point x="156" y="583" type="curve" smooth="yes"/>
      <point x="156" y="607"/>
      <point x="177" y="627"/>
    </contour>
    <contour>
      <point x="286" y="54" type="line"/>
      <point x="295" y="0" type="line"/>
      <point x="350" y="0" type="line"/>
      <point x="350" y="465" type="line"/>
      <point x="278" y="465" type="line"/>
      <point x="278" y="181" type="line" smooth="yes"/>
      <point x="278" y="101"/>
      <point x="237" y="54"/>
      <point x="191" y="54" type="curve" smooth="yes"/>
      <point x="152" y="54"/>
      <point x="126" y="71"/>
      <point x="126" y="135" type="curve" smooth="yes"/>
      <point x="126" y="465" type="line"/>
      <point x="53" y="465" type="line"/>
      <point x="53" y="130" type="line" smooth="yes"/>
      <point x="53" y="27"/>
      <point x="98" y="-11"/>
      <point x="168" y="-11" type="curve" smooth="yes"/>
      <point x="214" y="-11"/>
      <point x="255" y="8"/>
      <point x="280" y="54" type="curve"/>
    </contour>
  </outline>
</glyph>
<glyph name="uogonek" format="1">
  <advance width="403"/>
  <unicode hex="0173"/>
  <outline>
    <contour>
      <point x="397" y="-103" type="line"/>
      <point x="369" y="-103" type="line" smooth="yes"/>
      <point x="339" y="-103"/>
      <point x="329" y="-80"/>
      <point x="329" y="-55" type="curve" smooth="yes"/>
      <point x="329" y="-34"/>
      <point x="340" y="-13"/>
      <point x="350" y="0" type="curve"/>
      <point x="350" y="465" type="line"/>
      <point x="278" y="465" type="line"/>
      <point x="278" y="181" type="line" smooth="yes"/>
      <point x="278" y="101"/>
      <point x="237" y="54"/>
      <point x="191" y="54" type="curve" smooth="yes"/>
      <point x="152" y="54"/>
      <point x="126" y="71"/>
      <point x="126" y="135" type="curve" smooth="yes"/>
      <point x="126" y="465" type="line"/>
      <point x="53" y="465" type="line"/>
      <point x="53" y="130" type="line" smooth="yes"/>
      <point x="53" y="27"/>
      <point x="98" y="-11"/>
      <point x="168" y="-11" type="curve" smooth="yes"/>
      <point x="214" y="-11"/>
      <point x="255" y="8"/>
      <point x="280" y="54" type="curve"/>
      <point x="286" y="54" type="line"/>
      <point x="294" y="3" type="line"/>
      <point x="276" y="-17"/>
      <point x="260" y="-42"/>
      <point x="260" y="-81" type="curve" smooth="yes"/>
      <point x="260" y="-142"/>
      <point x="305" y="-161"/>
      <point x="343" y="-161" type="curve" smooth="yes"/>
      <point x="361" y="-161"/>
      <point x="378" y="-156"/>
      <point x="397" y="-149" type="curve"/>
    </contour>
  </outline>
</glyph>
<glyph name="Wcircumflex" format="1">
  <advance width="684"/>
  <unicode hex="0174"/>
  <outline>
    <contour>
      <point x="343" y="730" type="line"/>
      <point x="382" y="660" type="line"/>
      <point x="453" y="660" type="line"/>
      <point x="377" y="780" type="line"/>
      <point x="309" y="780" type="line"/>
      <point x="232" y="660" type="line"/>
      <point x="303" y="660" type="line"/>
    </contour>
    <contour>
      <point x="360" y="411" type="curve"/>
      <point x="434" y="0" type="line"/>
      <point x="535" y="0" type="line"/>
      <point x="675" y="606" type="line"/>
      <point x="605" y="606" type="line"/>
      <point x="512" y="187" type="line" smooth="yes"/>
      <point x="503" y="148"/>
      <point x="493" y="80"/>
      <point x="493" y="80" type="curve"/>
      <point x="490" y="80" type="line"/>
      <point x="490" y="80"/>
      <point x="482" y="143"/>
      <point x="474" y="187" type="curve" smooth="yes"/>
      <point x="399" y="606" type="line"/>
      <point x="291" y="606" type="line"/>
      <point x="221" y="187" type="line" smooth="yes"/>
      <point x="212" y="134"/>
      <point x="206" y="80"/>
      <point x="206" y="80" type="curve"/>
      <point x="202" y="80" type="line"/>
      <point x="202" y="80"/>
      <point x="192" y="152"/>
      <point x="184" y="187" type="curve" smooth="yes"/>
      <point x="91" y="606" type="line"/>
      <point x="9" y="606" type="line"/>
      <point x="149" y="0" type="line"/>
      <point x="250" y="0" type="line"/>
      <point x="323" y="411" type="line" smooth="yes"/>
      <point x="330" y="452"/>
      <point x="339" y="533"/>
      <point x="339" y="533" type="curve"/>
      <point x="343" y="533" type="line"/>
      <point x="343" y="533"/>
      <point x="353" y="452"/>
    </contour>
  </outline>
</glyph>
<glyph name="Zacute" format="1">
  <advance width="443"/>
  <unicode hex="0179"/>
  <outline>
    <contour>
      <point x="230" y="664" type="line"/>
      <point x="325" y="778" type="line"/>
      <point x="324" y="781" type="line"/>
      <point x="245" y="781" type="line"/>
      <point x="169" y="664" type="line"/>
    </contour>
    <contour>
      <point x="128" y="71" type="line"/>
      <point x="417" y="573" type="line"/>
      <point x="417" y="606" type="line"/>
      <point x="36" y="606" type="line"/>
      <point x="36" y="536" type="line"/>
      <point x="306" y="536" type="line"/>
      <point x="18" y="34" type="line"/>
      <point x="18" y="0" type="line"/>
      <point x="423" y="0" type="line"/>
      <point x="423" y="71" type="line"/>
    </contour>
  </outline>
</glyph>
<glyph name="zdotaccent" format="1">
  <advance width="362"/>
  <unicode hex="017C"/>
  <outline>
    <contour>
      <point x="143" y="639" type="line"/>
      <point x="143" y="555" type="line"/>
      <point x="220" y="555" type="line"/>
      <point x="220" y="639" type="line"/>
    </contour>
    <contour>
      <point x="339" y="65" type="line"/>
      <point x="122" y="65" type="line"/>
      <point x="327" y="431" type="line"/>
      <point x="327" y="465" type="line"/>
      <point x="37" y="465" type="line"/>
      <point x="37" y="400" type="line"/>
      <point x="227" y="400" type="line"/>
      <point x="23" y="34" type="line"/>
      <point x="23" y="0" type="line"/>
      <point x="339" y="0" type="line"/>
    </contour>
  </outline>
</glyph>
<glyph name="Zcaron" format="1">
  <advance width="443"/>
  <unicode hex="017D"/>
  <outline>
    <contour>
      <point x="187" y="661" type="line"/>
      <point x="255" y="661" type="line"/>
      <point x="331" y="781" type="line"/>
      <point x="261" y="781" type="line"/>
      <point x="221" y="711" type="line"/>
      <point x="182" y="781" type="line"/>
      <point x="111" y="781" type="line"/>
    </contour>
    <contour>
      <point x="128" y="71" type="line"/>
      <point x="417" y="573" type="line"/>
      <point x="417" y="606" type="line"/>
      <point x="36" y="606" type="line"/>
      <point x="36" y="536" type="line"/>
      <point x="306" y="536" type="line"/>
      <point x="18" y="34" type="line"/>
      <point x="18" y="0" type="line"/>
      <point x="423" y="0" type="line"/>
      <point x="423" y="71" type="line"/>
    </contour>
  </outline>
</glyph>
<glyph name="zcaron" format="1">
  <advance width="362"/>
  <unicode hex="017E"/>
  <outline>
    <contour>
      <point x="72" y="639" type="line"/>
      <point x="147" y="520" type="line"/>
      <point x="216" y="520" type="line"/>
      <point x="292" y="639" type="line"/>
      <point x="221" y="639" type="line"/>
      <point x="181" y="569" type="line"/>
      <point x="142" y="639" type="line"/>
    </contour>
    <contour>
      <point x="339" y="65" type="line"/>
      <point x="122" y="65" type="line"/>
      <point x="327" y="431" type="line"/>
      <point x="327" y="465" type="line"/>
      <point x="37" y="465" type="line"/>
      <point x="37" y="400" type="line"/>
      <point x="227" y="400" type="line"/>
      <point x="23" y="34" type="line"/>
      <point x="23" y="0" type="line"/>
      <point x="339" y="0" type="line"/>
    </contour>
  </outline>
</glyph>
<glyph name="aringacute" format="1">
  <advance width="403"/>
  <unicode hex="01FB"/>
  <outline>
    <contour>
      <point x="234" y="679" type="line"/>
      <point x="320" y="778" type="line"/>
      <point x="319" y="781" type="line"/>
      <point x="240" y="781" type="line"/>
      <point x="173" y="679" type="line"/>
    </contour>
    <contour>
      <point x="202" y="659" type="curve" smooth="yes"/>
      <point x="155" y="659"/>
      <point x="117" y="624"/>
      <point x="117" y="579" type="curve" smooth="yes"/>
      <point x="117" y="533"/>
      <point x="156" y="499"/>
      <point x="202" y="499" type="curve" smooth="yes"/>
      <point x="249" y="499"/>
      <point x="286" y="534"/>
      <point x="286" y="579" type="curve" smooth="yes"/>
      <point x="286" y="623"/>
      <point x="250" y="659"/>
    </contour>
    <contour>
      <point x="202" y="620" type="curve" smooth="yes"/>
      <point x="225" y="620"/>
      <point x="247" y="603"/>
      <point x="247" y="579" type="curve" smooth="yes"/>
      <point x="247" y="555"/>
      <point x="225" y="537"/>
      <point x="202" y="537" type="curve" smooth="yes"/>
      <point x="178" y="537"/>
      <point x="156" y="555"/>
      <point x="156" y="579" type="curve" smooth="yes"/>
      <point x="156" y="603"/>
      <point x="178" y="620"/>
    </contour>
    <contour>
      <point x="197" y="476" type="curve" smooth="yes"/>
      <point x="110" y="476"/>
      <point x="48" y="431"/>
      <point x="48" y="347" type="curve" smooth="yes"/>
      <point x="48" y="339"/>
      <point x="48" y="332"/>
      <point x="49" y="327" type="curve"/>
      <point x="120" y="327" type="line"/>
      <point x="120" y="338" type="line" smooth="yes"/>
      <point x="120" y="373"/>
      <point x="137" y="411"/>
      <point x="192" y="411" type="curve" smooth="yes"/>
      <point x="251" y="411"/>
      <point x="265" y="380"/>
      <point x="265" y="336" type="curve" smooth="yes"/>
      <point x="265" y="276" type="line"/>
      <point x="130" y="276"/>
      <point x="30" y="248"/>
      <point x="30" y="120" type="curve" smooth="yes"/>
      <point x="30" y="8"/>
      <point x="106" y="-11"/>
      <point x="152" y="-11" type="curve" smooth="yes"/>
      <point x="201" y="-11"/>
      <point x="241" y="12"/>
      <point x="265" y="50" type="curve"/>
      <point x="270" y="50" type="line"/>
      <point x="278" y="16"/>
      <point x="305" y="-7"/>
      <point x="343" y="-7" type="curve" smooth="yes"/>
      <point x="366" y="-7"/>
      <point x="383" y="-1"/>
      <point x="391" y="4" type="curve"/>
      <point x="391" y="54" type="line"/>
      <point x="362" y="54" type="line" smooth="yes"/>
      <point x="350" y="54"/>
      <point x="338" y="63"/>
      <point x="338" y="85" type="curve" smooth="yes"/>
      <point x="338" y="346" type="line" smooth="yes"/>
      <point x="338" y="428"/>
      <point x="291" y="476"/>
    </contour>
    <contour>
      <point x="265" y="211" type="curve"/>
      <point x="265" y="169" type="line" smooth="yes"/>
      <point x="265" y="92"/>
      <point x="215" y="54"/>
      <point x="169" y="54" type="curve" smooth="yes"/>
      <point x="128" y="54"/>
      <point x="106" y="72"/>
      <point x="106" y="125" type="curve" smooth="yes"/>
      <point x="106" y="197"/>
      <point x="171" y="211"/>
    </contour>
  </outline>
</glyph>
<glyph name="AEacute" format="1">
  <advance width="725"/>
  <unicode hex="01FC"/>
  <outline>
    <contour>
      <point x="457" y="664" type="line"/>
      <point x="552" y="778" type="line"/>
      <point x="552" y="781" type="line"/>
      <point x="472" y="781" type="line"/>
      <point x="396" y="664" type="line"/>
    </contour>
    <contour>
      <point x="362" y="536" type="line"/>
      <point x="687" y="536" type="line"/>
      <point x="687" y="606" type="line"/>
      <point x="247" y="606" type="line"/>
      <point x="-1" y="0" type="line"/>
      <point x="77" y="0" type="line"/>
      <point x="129" y="135" type="line"/>
      <point x="370" y="135" type="line"/>
      <point x="400" y="0" type="line"/>
      <point x="692" y="0" type="line"/>
      <point x="692" y="71" type="line"/>
      <point x="468" y="71" type="line"/>
      <point x="422" y="275" type="line"/>
      <point x="648" y="275" type="line"/>
      <point x="648" y="346" type="line"/>
      <point x="406" y="346" type="line"/>
    </contour>
    <contour>
      <point x="282" y="535" type="curve"/>
      <point x="286" y="535" type="line"/>
      <point x="287" y="529"/>
      <point x="288" y="524"/>
      <point x="288" y="519" type="curve"/>
      <point x="290" y="506"/>
      <point x="292" y="493"/>
      <point x="295" y="480" type="curve" smooth="yes"/>
      <point x="355" y="206" type="line"/>
      <point x="156" y="206" type="line"/>
      <point x="263" y="480" type="line"/>
      <point x="270" y="496"/>
      <point x="275" y="511"/>
      <point x="280" y="527" type="curve"/>
      <point x="280" y="530"/>
      <point x="281" y="532"/>
    </contour>
  </outline>
</glyph>
<glyph name="Oslashacute" format="1">
  <advance width="564"/>
  <unicode hex="01FE"/>
  <outline>
    <contour>
      <point x="291" y="664" type="line"/>
      <point x="386" y="778" type="line"/>
      <point x="385" y="781" type="line"/>
      <point x="306" y="781" type="line"/>
      <point x="230" y="664" type="line"/>
    </contour>
    <contour>
      <point x="457" y="538" type="curve"/>
      <point x="521" y="639" type="line"/>
      <point x="464" y="639" type="line"/>
      <point x="423" y="573" type="line"/>
      <point x="385" y="602"/>
      <point x="338" y="617"/>
      <point x="282" y="617" type="curve" smooth="yes"/>
      <point x="133" y="617"/>
      <point x="43" y="514"/>
      <point x="43" y="303" type="curve" smooth="yes"/>
      <point x="43" y="198"/>
      <point x="65" y="119"/>
      <point x="107" y="67" type="curve"/>
      <point x="44" y="-33" type="line"/>
      <point x="101" y="-33" type="line"/>
      <point x="141" y="33" type="line"/>
      <point x="179" y="4"/>
      <point x="226" y="-11"/>
      <point x="282" y="-11" type="curve" smooth="yes"/>
      <point x="431" y="-11"/>
      <point x="521" y="93"/>
      <point x="521" y="303" type="curve" smooth="yes"/>
      <point x="521" y="408"/>
      <point x="498" y="486"/>
    </contour>
    <contour>
      <point x="282" y="545" type="curve" smooth="yes"/>
      <point x="322" y="545"/>
      <point x="355" y="533"/>
      <point x="382" y="507" type="curve"/>
      <point x="152" y="140" type="line"/>
      <point x="134" y="175"/>
      <point x="125" y="222"/>
      <point x="125" y="281" type="curve" smooth="yes"/>
      <point x="125" y="325" type="line" smooth="yes"/>
      <point x="125" y="473"/>
      <point x="185" y="545"/>
    </contour>
    <contour>
      <point x="182" y="98" type="curve"/>
      <point x="412" y="466" type="line"/>
      <point x="430" y="431"/>
      <point x="439" y="384"/>
      <point x="439" y="325" type="curve" smooth="yes"/>
      <point x="439" y="281" type="line" smooth="yes"/>
      <point x="439" y="133"/>
      <point x="379" y="61"/>
      <point x="282" y="61" type="curve" smooth="yes"/>
      <point x="241" y="61"/>
      <point x="208" y="73"/>
    </contour>
  </outline>
</glyph>
<glyph name="oslashacute" format="1">
  <advance width="443"/>
  <unicode hex="01FF"/>
  <outline>
    <contour>
      <point x="230" y="522" type="line"/>
      <point x="325" y="636" type="line"/>
      <point x="324" y="639" type="line"/>
      <point x="245" y="639" type="line"/>
      <point x="169" y="522" type="line"/>
    </contour>
    <contour>
      <point x="345" y="416" type="curve"/>
      <point x="387" y="493" type="line"/>
      <point x="339" y="493" type="line"/>
      <point x="314" y="448" type="line"/>
      <point x="289" y="467"/>
      <point x="258" y="476"/>
      <point x="221" y="476" type="curve" smooth="yes"/>
      <point x="112" y="476"/>
      <point x="55" y="400"/>
      <point x="55" y="232" type="curve" smooth="yes"/>
      <point x="55" y="149"/>
      <point x="69" y="88"/>
      <point x="96" y="49" type="curve"/>
      <point x="55" y="-28" type="line"/>
      <point x="103" y="-28" type="line"/>
      <point x="127" y="17" type="line"/>
      <point x="152" y="-2"/>
      <point x="184" y="-11"/>
      <point x="221" y="-11" type="curve" smooth="yes"/>
      <point x="330" y="-11"/>
      <point x="387" y="65"/>
      <point x="387" y="232" type="curve" smooth="yes"/>
      <point x="387" y="316"/>
      <point x="373" y="377"/>
    </contour>
    <contour>
      <point x="221" y="411" type="curve" smooth="yes"/>
      <point x="245" y="411"/>
      <point x="264" y="402"/>
      <point x="279" y="385" type="curve"/>
      <point x="140" y="128" type="line"/>
      <point x="133" y="152"/>
      <point x="131" y="181"/>
      <point x="131" y="216" type="curve" smooth="yes"/>
      <point x="131" y="249" type="line" smooth="yes"/>
      <point x="131" y="356"/>
      <point x="161" y="411"/>
    </contour>
    <contour>
      <point x="163" y="80" type="curve"/>
      <point x="301" y="336" type="line"/>
      <point x="308" y="313"/>
      <point x="311" y="284"/>
      <point x="311" y="249" type="curve" smooth="yes"/>
      <point x="311" y="216" type="line" smooth="yes"/>
      <point x="311" y="109"/>
      <point x="281" y="54"/>
      <point x="221" y="54" type="curve" smooth="yes"/>
      <point x="196" y="54"/>
      <point x="177" y="63"/>
    </contour>
  </outline>
</glyph>
<glyph name="circumflex" format="1">
  <advance width="241"/>
  <unicode hex="02C6"/>
  <outline>
    <contour>
      <point x="119" y="589" type="line"/>
      <point x="158" y="519" type="line"/>
      <point x="229" y="519" type="line"/>
      <point x="154" y="638" type="line"/>
      <point x="85" y="638" type="line"/>
      <point x="9" y="519" type="line"/>
      <point x="80" y="519" type="line"/>
    </contour>
  </outline>
</glyph>
<glyph name="firsttonechinese" format="1">
  <advance width="442"/>
  <unicode hex="02C9"/>
  <outline>
    <contour>
      <point x="0" y="746" type="line"/>
      <point x="0" y="699" type="line"/>
      <point x="443" y="699" type="line"/>
      <point x="443" y="746" type="line"/>
    </contour>
  </outline>
</glyph>
<glyph name="dotaccent" format="1">
  <advance width="241"/>
  <unicode hex="02D9"/>
  <outline>
    <contour>
      <point x="82" y="639" type="line"/>
      <point x="82" y="555" type="line"/>
      <point x="159" y="555" type="line"/>
      <point x="159" y="639" type="line"/>
    </contour>
  </outline>
</glyph>
<glyph name="ring" format="1">
  <advance width="241"/>
  <unicode hex="02DA"/>
  <outline>
    <contour>
      <point x="123" y="667" type="curve" smooth="yes"/>
      <point x="76" y="667"/>
      <point x="38" y="629"/>
      <point x="38" y="583" type="curve" smooth="yes"/>
      <point x="38" y="534"/>
      <point x="77" y="497"/>
      <point x="123" y="497" type="curve" smooth="yes"/>
      <point x="170" y="497"/>
      <point x="208" y="535"/>
      <point x="208" y="583" type="curve" smooth="yes"/>
      <point x="208" y="628"/>
      <point x="171" y="667"/>
    </contour>
    <contour>
      <point x="123" y="627" type="curve" smooth="yes"/>
      <point x="147" y="627"/>
      <point x="168" y="607"/>
      <point x="168" y="583" type="curve" smooth="yes"/>
      <point x="168" y="558"/>
      <point x="147" y="537"/>
      <point x="123" y="537" type="curve" smooth="yes"/>
      <point x="98" y="537"/>
      <point x="78" y="558"/>
      <point x="78" y="583" type="curve" smooth="yes"/>
      <point x="78" y="607"/>
      <point x="98" y="627"/>
    </contour>
  </outline>
</glyph>
<glyph name="tilde" format="1">
  <advance width="241"/>
  <unicode hex="02DC"/>
  <outline>
    <contour>
      <point x="249" y="639" type="curve"/>
      <point x="198" y="639" type="line"/>
      <point x="195" y="619"/>
      <point x="184" y="612"/>
      <point x="168" y="612" type="curve" smooth="yes"/>
      <point x="151" y="612"/>
      <point x="135" y="618"/>
      <point x="119" y="625" type="curve" smooth="yes"/>
      <point x="102" y="632"/>
      <point x="85" y="639"/>
      <point x="66" y="639" type="curve" smooth="yes"/>
      <point x="13" y="639"/>
      <point x="-9" y="588"/>
      <point x="-9" y="547" type="curve"/>
      <point x="42" y="547" type="line"/>
      <point x="45" y="568"/>
      <point x="57" y="575"/>
      <point x="72" y="575" type="curve" smooth="yes"/>
      <point x="89" y="575"/>
      <point x="105" y="568"/>
      <point x="121" y="561" type="curve" smooth="yes"/>
      <point x="138" y="554"/>
      <point x="155" y="547"/>
      <point x="174" y="547" type="curve" smooth="yes"/>
      <point x="227" y="547"/>
      <point x="249" y="598"/>
    </contour>
  </outline>
</glyph>
<glyph name="Omega" format="1">
  <advance width="679"/>
  <unicode hex="03A9"/>
  <outline>
    <contour>
      <point x="339" y="617" type="curve" smooth="yes"/>
      <point x="191" y="617"/>
      <point x="101" y="514"/>
      <point x="101" y="303" type="curve" smooth="yes"/>
      <point x="101" y="200"/>
      <point x="130" y="123"/>
      <point x="182" y="71" type="curve"/>
      <point x="171" y="71"/>
      <point x="161" y="72"/>
      <point x="151" y="73" type="curve"/>
      <point x="140" y="73"/>
      <point x="131" y="74"/>
      <point x="123" y="74" type="curve" smooth="yes"/>
      <point x="101" y="74" type="line"/>
      <point x="101" y="0" type="line"/>
      <point x="310" y="0" type="line"/>
      <point x="310" y="54" type="line"/>
      <point x="231" y="72"/>
      <point x="182" y="143"/>
      <point x="182" y="270" type="curve" smooth="yes"/>
      <point x="182" y="325" type="line" smooth="yes"/>
      <point x="182" y="473"/>
      <point x="242" y="545"/>
      <point x="339" y="545" type="curve" smooth="yes"/>
      <point x="437" y="545"/>
      <point x="497" y="473"/>
      <point x="497" y="325" type="curve" smooth="yes"/>
      <point x="497" y="266" type="line" smooth="yes"/>
      <point x="497" y="141"/>
      <point x="448" y="71"/>
      <point x="368" y="54" type="curve"/>
      <point x="368" y="0" type="line"/>
      <point x="578" y="0" type="line"/>
      <point x="578" y="74" type="line"/>
      <point x="556" y="74" type="line" smooth="yes"/>
      <point x="541" y="74"/>
      <point x="527" y="73"/>
      <point x="514" y="72" type="curve" smooth="yes"/>
      <point x="508" y="72"/>
      <point x="502" y="71"/>
      <point x="496" y="71" type="curve"/>
      <point x="548" y="123"/>
      <point x="578" y="200"/>
      <point x="578" y="303" type="curve" smooth="yes"/>
      <point x="578" y="514"/>
      <point x="488" y="617"/>
    </contour>
  </outline>
</glyph>
<glyph name="uni0900" format="1">
  <advance width="0"/>
  <unicode hex="0900"/>
  <outline>
    <contour>
      <point x="-27" y="697" type="curve"/>
      <point x="43" y="697" type="line"/>
      <point x="43" y="777"/>
      <point x="-20" y="833"/>
      <point x="-110" y="833" type="curve" smooth="yes"/>
      <point x="-198" y="833"/>
      <point x="-261" y="777"/>
      <point x="-261" y="697" type="curve"/>
      <point x="-191" y="697" type="line"/>
      <point x="-191" y="757"/>
      <point x="-160" y="781"/>
      <point x="-110" y="781" type="curve" smooth="yes"/>
      <point x="-59" y="781"/>
      <point x="-27" y="757"/>
    </contour>
    <contour>
      <point x="-77" y="735" type="line"/>
      <point x="-145" y="735" type="line"/>
      <point x="-145" y="667" type="line"/>
      <point x="-77" y="667" type="line"/>
    </contour>
  </outline>
</glyph>
<glyph name="candraBindudeva" format="1">
  <advance width="0"/>
  <unicode hex="0901"/>
  <outline>
    <contour>
      <point x="-109" y="606" type="move" name="_mark0"/>
    </contour>
    <contour>
      <point x="-109" y="606" type="move" name="_mark0"/>
    </contour>
    <contour>
      <point x="-145" y="823" type="line"/>
      <point x="-145" y="755" type="line"/>
      <point x="-77" y="755" type="line"/>
      <point x="-77" y="823" type="line"/>
    </contour>
    <contour>
      <point x="43" y="793" type="curve"/>
      <point x="-27" y="793" type="line"/>
      <point x="-27" y="733"/>
      <point x="-59" y="709"/>
      <point x="-110" y="709" type="curve" smooth="yes"/>
      <point x="-160" y="709"/>
      <point x="-191" y="733"/>
      <point x="-191" y="793" type="curve"/>
      <point x="-261" y="793" type="line"/>
      <point x="-261" y="713"/>
      <point x="-198" y="657"/>
      <point x="-110" y="657" type="curve" smooth="yes"/>
      <point x="-20" y="657"/>
      <point x="43" y="713"/>
    </contour>
  </outline>
</glyph>
<glyph name="anusvaradeva" format="1">
  <advance width="0"/>
  <unicode hex="0902"/>
  <outline>
    <contour>
      <point x="-111" y="606" type="move" name="_mark0"/>
    </contour>
    <contour>
      <point x="-111" y="606" type="move" name="_mark0"/>
    </contour>
    <contour>
      <point x="-144" y="742" type="line"/>
      <point x="-144" y="674" type="line"/>
      <point x="-76" y="674" type="line"/>
      <point x="-76" y="742" type="line"/>
    </contour>
  </outline>
</glyph>
<glyph name="visargadeva" format="1">
  <advance width="197"/>
  <unicode hex="0903"/>
  <outline>
    <contour>
      <point x="137" y="465" type="line"/>
      <point x="60" y="465" type="line"/>
      <point x="60" y="388" type="line"/>
      <point x="137" y="388" type="line"/>
    </contour>
    <contour>
      <point x="137" y="169" type="line"/>
      <point x="60" y="169" type="line"/>
      <point x="60" y="92" type="line"/>
      <point x="137" y="92" type="line"/>
    </contour>
  </outline>
</glyph>
<glyph name="uni0904" format="1">
  <advance width="590"/>
  <unicode hex="0904"/>
  <outline>
    <contour>
      <point x="486" y="606" type="move" name="mark0"/>
    </contour>
    <contour>
      <point x="485" y="0" type="move" name="mark0"/>
    </contour>
    <contour>
      <point x="308" y="0" type="move" name="mark1"/>
    </contour>
    <contour>
      <point x="0" y="0" type="move" name="mark2"/>
    </contour>
    <contour>
      <point x="600" y="541" type="line"/>
      <point x="600" y="606" type="line"/>
      <point x="523" y="606" type="line"/>
      <point x="523" y="662" type="line" smooth="yes"/>
      <point x="523" y="734"/>
      <point x="488" y="765"/>
      <point x="405" y="765" type="curve" smooth="yes"/>
      <point x="237" y="765" type="line" smooth="yes"/>
      <point x="205" y="765"/>
      <point x="192" y="777"/>
      <point x="192" y="805" type="curve" smooth="yes"/>
      <point x="192" y="827" type="line"/>
      <point x="120" y="827" type="line"/>
      <point x="120" y="805" type="line" smooth="yes"/>
      <point x="120" y="732"/>
      <point x="155" y="701"/>
      <point x="237" y="701" type="curve" smooth="yes"/>
      <point x="405" y="701" type="line" smooth="yes"/>
      <point x="437" y="701"/>
      <point x="451" y="689"/>
      <point x="451" y="662" type="curve" smooth="yes"/>
      <point x="451" y="606" type="line"/>
      <point x="372" y="606" type="line"/>
      <point x="372" y="541" type="line"/>
      <point x="450" y="541" type="line"/>
      <point x="450" y="306" type="line"/>
      <point x="315" y="306" type="line"/>
      <point x="301" y="323"/>
      <point x="284" y="336"/>
      <point x="264" y="342" type="curve"/>
      <point x="264" y="345" type="line"/>
      <point x="305" y="366"/>
      <point x="335" y="402"/>
      <point x="335" y="470" type="curve" smooth="yes"/>
      <point x="335" y="564"/>
      <point x="280" y="617"/>
      <point x="192" y="617" type="curve" smooth="yes"/>
      <point x="107" y="617"/>
      <point x="48" y="563"/>
      <point x="48" y="478" type="curve" smooth="yes"/>
      <point x="48" y="473"/>
      <point x="49" y="463"/>
      <point x="50" y="459" type="curve"/>
      <point x="122" y="459" type="line"/>
      <point x="122" y="468" type="line" smooth="yes"/>
      <point x="122" y="527"/>
      <point x="151" y="554"/>
      <point x="192" y="554" type="curve" smooth="yes"/>
      <point x="232" y="554"/>
      <point x="261" y="525"/>
      <point x="261" y="464" type="curve" smooth="yes"/>
      <point x="261" y="402"/>
      <point x="230" y="370"/>
      <point x="188" y="370" type="curve" smooth="yes"/>
      <point x="145" y="370" type="line"/>
      <point x="145" y="308" type="line"/>
      <point x="186" y="308" type="line" smooth="yes"/>
      <point x="234" y="308"/>
      <point x="270" y="281"/>
      <point x="270" y="214" type="curve" smooth="yes"/>
      <point x="270" y="150"/>
      <point x="238" y="116"/>
      <point x="188" y="116" type="curve" smooth="yes"/>
      <point x="140" y="116"/>
      <point x="112" y="147"/>
      <point x="112" y="205" type="curve" smooth="yes"/>
      <point x="112" y="216" type="line"/>
      <point x="40" y="216" type="line"/>
      <point x="39" y="212"/>
      <point x="38" y="202"/>
      <point x="38" y="197" type="curve" smooth="yes"/>
      <point x="38" y="110"/>
      <point x="94" y="52"/>
      <point x="190" y="52" type="curve" smooth="yes"/>
      <point x="284" y="52"/>
      <point x="345" y="112"/>
      <point x="345" y="209" type="curve" smooth="yes"/>
      <point x="345" y="220"/>
      <point x="344" y="231"/>
      <point x="342" y="241" type="curve"/>
      <point x="450" y="241" type="line"/>
      <point x="450" y="0" type="line"/>
      <point x="522" y="0" type="line"/>
      <point x="522" y="541" type="line"/>
    </contour>
  </outline>
</glyph>
<glyph name="iideva" format="1">
  <advance width="406"/>
  <unicode hex="0908"/>
  <outline>
    <contour>
      <point x="271" y="606" type="move" name="mark0"/>
    </contour>
    <contour>
      <point x="271" y="0" type="move" name="mark0"/>
    </contour>
    <contour>
      <point x="0" y="0" type="move" name="mark1"/>
    </contour>
    <contour>
      <point x="0" y="0" type="move" name="mark2"/>
    </contour>
    <contour>
      <point x="195" y="370" type="curve"/>
      <point x="337" y="370" type="line"/>
      <point x="337" y="541" type="line"/>
      <point x="416" y="541" type="line"/>
      <point x="416" y="606" type="line"/>
      <point x="319" y="606" type="line"/>
      <point x="301" y="637"/>
      <point x="293" y="664"/>
      <point x="293" y="689" type="curve" smooth="yes"/>
      <point x="293" y="734"/>
      <point x="324" y="761"/>
      <point x="379" y="762" type="curve" smooth="yes"/>
      <point x="383" y="762" type="line"/>
      <point x="383" y="826" type="line"/>
      <point x="379" y="827"/>
      <point x="369" y="827"/>
      <point x="363" y="827" type="curve" smooth="yes"/>
      <point x="281" y="827"/>
      <point x="220" y="777"/>
      <point x="220" y="705" type="curve" smooth="yes"/>
      <point x="220" y="674"/>
      <point x="230" y="641"/>
      <point x="251" y="606" type="curve"/>
      <point x="-10" y="606" type="line"/>
      <point x="-10" y="541" type="line"/>
      <point x="264" y="541" type="line"/>
      <point x="264" y="434" type="line"/>
      <point x="199" y="434" type="line" smooth="yes"/>
      <point x="113" y="434"/>
      <point x="50" y="402"/>
      <point x="50" y="314" type="curve" smooth="yes"/>
      <point x="50" y="238"/>
      <point x="96" y="199"/>
      <point x="186" y="199" type="curve" smooth="yes"/>
      <point x="215" y="199" type="line" smooth="yes"/>
      <point x="261" y="199"/>
      <point x="288" y="175"/>
      <point x="288" y="130" type="curve" smooth="yes"/>
      <point x="288" y="77"/>
      <point x="251" y="53"/>
      <point x="202" y="53" type="curve" smooth="yes"/>
      <point x="152" y="53"/>
      <point x="112" y="78"/>
      <point x="112" y="136" type="curve" smooth="yes"/>
      <point x="112" y="145" type="line"/>
      <point x="40" y="145" type="line"/>
      <point x="40" y="-86" type="line"/>
      <point x="112" y="-86" type="line"/>
      <point x="112" y="15" type="line"/>
      <point x="136" y="-1"/>
      <point x="169" y="-11"/>
      <point x="211" y="-11" type="curve" smooth="yes"/>
      <point x="302" y="-11"/>
      <point x="364" y="34"/>
      <point x="364" y="129" type="curve" smooth="yes"/>
      <point x="364" y="214"/>
      <point x="311" y="265"/>
      <point x="220" y="265" type="curve" smooth="yes"/>
      <point x="183" y="265" type="line" smooth="yes"/>
      <point x="146" y="265"/>
      <point x="126" y="283"/>
      <point x="126" y="314" type="curve" smooth="yes"/>
      <point x="126" y="353"/>
      <point x="157" y="370"/>
    </contour>
  </outline>
</glyph>
<glyph name="udeva" format="1">
  <advance width="392"/>
  <unicode hex="0909"/>
  <outline>
    <contour>
      <point x="196" y="602" type="move" name="mark0"/>
    </contour>
    <contour>
      <point x="196" y="0" type="move" name="mark0"/>
    </contour>
    <contour>
      <point x="0" y="0" type="move" name="mark1"/>
    </contour>
    <contour>
      <point x="0" y="0" type="move" name="mark2"/>
    </contour>
    <contour>
      <point x="402" y="541" type="line"/>
      <point x="402" y="606" type="line"/>
      <point x="-10" y="606" type="line"/>
      <point x="-10" y="541" type="line"/>
      <point x="199" y="541" type="line" smooth="yes"/>
      <point x="246" y="541"/>
      <point x="285" y="516"/>
      <point x="285" y="453" type="curve" smooth="yes"/>
      <point x="285" y="391"/>
      <point x="244" y="361"/>
      <point x="195" y="361" type="curve" smooth="yes"/>
      <point x="143" y="361" type="line"/>
      <point x="143" y="303" type="line"/>
      <point x="194" y="303" type="line" smooth="yes"/>
      <point x="247" y="303"/>
      <point x="295" y="284"/>
      <point x="295" y="210" type="curve" smooth="yes"/>
      <point x="295" y="143"/>
      <point x="256" y="115"/>
      <point x="196" y="115" type="curve" smooth="yes"/>
      <point x="135" y="115"/>
      <point x="103" y="149"/>
      <point x="103" y="213" type="curve" smooth="yes"/>
      <point x="103" y="224" type="line"/>
      <point x="34" y="224" type="line"/>
      <point x="32" y="214"/>
      <point x="31" y="205"/>
      <point x="31" y="195" type="curve" smooth="yes"/>
      <point x="31" y="109"/>
      <point x="99" y="51"/>
      <point x="202" y="51" type="curve" smooth="yes"/>
      <point x="302" y="51"/>
      <point x="368" y="113"/>
      <point x="368" y="205" type="curve" smooth="yes"/>
      <point x="368" y="264"/>
      <point x="332" y="316"/>
      <point x="278" y="335" type="curve"/>
      <point x="278" y="338" type="line"/>
      <point x="325" y="361"/>
      <point x="357" y="406"/>
      <point x="357" y="451" type="curve" smooth="yes"/>
      <point x="357" y="488"/>
      <point x="346" y="519"/>
      <point x="326" y="541" type="curve"/>
    </contour>
  </outline>
</glyph>
<glyph name="uudeva" format="1">
  <advance width="630"/>
  <unicode hex="090A"/>
  <outline>
    <contour>
      <point x="640" y="541" type="line"/>
      <point x="640" y="606" type="line"/>
      <point x="-10" y="606" type="line"/>
      <point x="-10" y="541" type="line"/>
      <point x="199" y="541" type="line" smooth="yes"/>
      <point x="246" y="541"/>
      <point x="285" y="516"/>
      <point x="285" y="453" type="curve" smooth="yes"/>
      <point x="285" y="391"/>
      <point x="244" y="361"/>
      <point x="195" y="361" type="curve" smooth="yes"/>
      <point x="143" y="361" type="line"/>
      <point x="143" y="303" type="line"/>
      <point x="194" y="303" type="line" smooth="yes"/>
      <point x="250" y="303"/>
      <point x="303" y="284"/>
      <point x="303" y="210" type="curve" smooth="yes"/>
      <point x="303" y="143"/>
      <point x="264" y="115"/>
      <point x="203" y="115" type="curve" smooth="yes"/>
      <point x="138" y="115"/>
      <point x="103" y="149"/>
      <point x="103" y="213" type="curve" smooth="yes"/>
      <point x="103" y="224" type="line"/>
      <point x="34" y="224" type="line"/>
      <point x="32" y="214"/>
      <point x="31" y="205"/>
      <point x="31" y="195" type="curve" smooth="yes"/>
      <point x="31" y="116"/>
      <point x="91" y="51"/>
      <point x="202" y="51" type="curve" smooth="yes"/>
      <point x="327" y="51"/>
      <point x="350" y="124"/>
      <point x="367" y="193" type="curve" smooth="yes"/>
      <point x="368" y="197"/>
      <point x="369" y="201"/>
      <point x="370" y="204" type="curve" smooth="yes"/>
      <point x="383" y="260"/>
      <point x="395" y="309"/>
      <point x="461" y="309" type="curve" smooth="yes"/>
      <point x="511" y="309"/>
      <point x="538" y="278"/>
      <point x="538" y="220" type="curve" smooth="yes"/>
      <point x="538" y="201" type="line" smooth="yes"/>
      <point x="538" y="148"/>
      <point x="505" y="112"/>
      <point x="451" y="112" type="curve" smooth="yes"/>
      <point x="439" y="112" type="line"/>
      <point x="439" y="49" type="line"/>
      <point x="441" y="49"/>
      <point x="442" y="49"/>
      <point x="444" y="48" type="curve"/>
      <point x="450" y="48"/>
      <point x="454" y="47"/>
      <point x="459" y="47" type="curve" smooth="yes"/>
      <point x="550" y="47"/>
      <point x="610" y="107"/>
      <point x="610" y="210" type="curve" smooth="yes"/>
      <point x="610" y="308"/>
      <point x="550" y="373"/>
      <point x="464" y="373" type="curve" smooth="yes"/>
      <point x="397" y="373"/>
      <point x="353" y="338"/>
      <point x="335" y="290" type="curve"/>
      <point x="320" y="311"/>
      <point x="301" y="326"/>
      <point x="278" y="335" type="curve"/>
      <point x="278" y="338" type="line"/>
      <point x="325" y="361"/>
      <point x="357" y="406"/>
      <point x="357" y="451" type="curve" smooth="yes"/>
      <point x="357" y="488"/>
      <point x="346" y="519"/>
      <point x="326" y="541" type="curve"/>
    </contour>
  </outline>
</glyph>
<glyph name="lvocalicdeva" format="1">
  <advance width="610"/>
  <unicode hex="090C"/>
  <outline>
    <contour>
      <point x="500" y="606" type="move" name="mark0"/>
    </contour>
    <contour>
      <point x="500" y="0" type="move" name="mark0"/>
    </contour>
    <contour>
      <point x="0" y="0" type="move" name="mark1"/>
    </contour>
    <contour>
      <point x="0" y="0" type="move" name="mark2"/>
    </contour>
    <contour>
      <point x="506" y="96" type="curve"/>
      <point x="537" y="96" type="line"/>
      <point x="537" y="541" type="line"/>
      <point x="620" y="541" type="line"/>
      <point x="620" y="606" type="line"/>
      <point x="-10" y="606" type="line"/>
      <point x="-10" y="541" type="line"/>
      <point x="464" y="541" type="line"/>
      <point x="464" y="411" type="line"/>
      <point x="446" y="426"/>
      <point x="423" y="434"/>
      <point x="397" y="434" type="curve" smooth="yes"/>
      <point x="334" y="434"/>
      <point x="301" y="396"/>
      <point x="286" y="344" type="curve"/>
      <point x="283" y="344" type="line"/>
      <point x="267" y="396"/>
      <point x="230" y="434"/>
      <point x="167" y="434" type="curve" smooth="yes"/>
      <point x="80" y="434"/>
      <point x="29" y="357"/>
      <point x="29" y="243" type="curve" smooth="yes"/>
      <point x="29" y="74"/>
      <point x="107" y="0"/>
      <point x="248" y="0" type="curve" smooth="yes"/>
      <point x="260" y="0"/>
      <point x="271" y="1"/>
      <point x="282" y="4" type="curve"/>
      <point x="282" y="64" type="line"/>
      <point x="266" y="64" type="line" smooth="yes"/>
      <point x="151" y="64"/>
      <point x="104" y="116"/>
      <point x="104" y="232" type="curve" smooth="yes"/>
      <point x="104" y="319"/>
      <point x="125" y="370"/>
      <point x="177" y="370" type="curve" smooth="yes"/>
      <point x="231" y="370"/>
      <point x="247" y="317"/>
      <point x="247" y="260" type="curve" smooth="yes"/>
      <point x="247" y="192" type="line"/>
      <point x="322" y="192" type="line"/>
      <point x="322" y="260" type="line" smooth="yes"/>
      <point x="322" y="317"/>
      <point x="338" y="370"/>
      <point x="391" y="370" type="curve" smooth="yes"/>
      <point x="443" y="370"/>
      <point x="464" y="331"/>
      <point x="464" y="267" type="curve" smooth="yes"/>
      <point x="464" y="156" type="line"/>
      <point x="412" y="143"/>
      <point x="370" y="102"/>
      <point x="370" y="40" type="curve" smooth="yes"/>
      <point x="370" y="-37"/>
      <point x="435" y="-83"/>
      <point x="502" y="-83" type="curve" smooth="yes"/>
      <point x="530" y="-83"/>
      <point x="556" y="-76"/>
      <point x="578" y="-67" type="curve"/>
      <point x="578" y="-6" type="line"/>
      <point x="557" y="-13"/>
      <point x="534" y="-18"/>
      <point x="506" y="-18" type="curve" smooth="yes"/>
      <point x="469" y="-18"/>
      <point x="443" y="7"/>
      <point x="443" y="39" type="curve" smooth="yes"/>
      <point x="443" y="71"/>
      <point x="469" y="96"/>
    </contour>
  </outline>
</glyph>
<glyph name="ecandradeva" format="1">
  <advance width="438"/>
  <unicode hex="090D"/>
  <outline>
    <contour>
      <point x="219" y="465" type="move" name="mark0"/>
    </contour>
    <contour>
      <point x="219" y="0" type="move" name="mark0"/>
    </contour>
    <contour>
      <point x="0" y="0" type="move" name="mark1"/>
    </contour>
    <contour>
      <point x="0" y="0" type="move" name="mark2"/>
    </contour>
    <contour>
      <point x="327" y="663" type="curve" smooth="yes"/>
      <point x="417" y="663"/>
      <point x="470" y="719"/>
      <point x="470" y="799" type="curve"/>
      <point x="400" y="799" type="line"/>
      <point x="400" y="745"/>
      <point x="370" y="720"/>
      <point x="327" y="720" type="curve" smooth="yes"/>
      <point x="290" y="720"/>
      <point x="256" y="745"/>
      <point x="256" y="799" type="curve"/>
      <point x="186" y="799" type="line"/>
      <point x="186" y="719"/>
      <point x="239" y="663"/>
    </contour>
    <contour>
      <point x="448" y="606" type="line"/>
      <point x="-10" y="606" type="line"/>
      <point x="-10" y="541" type="line"/>
      <point x="73" y="541" type="line"/>
      <point x="73" y="289" type="line" smooth="yes"/>
      <point x="73" y="258"/>
      <point x="81" y="236"/>
      <point x="100" y="215" type="curve"/>
      <point x="276" y="42" type="line"/>
      <point x="290" y="27"/>
      <point x="295" y="14"/>
      <point x="295" y="-2" type="curve" smooth="yes"/>
      <point x="295" y="-7"/>
      <point x="294" y="-24"/>
      <point x="289" y="-47" type="curve"/>
      <point x="349" y="-47" type="line"/>
      <point x="360" y="-26"/>
      <point x="365" y="-7"/>
      <point x="365" y="13" type="curve" smooth="yes"/>
      <point x="365" y="38"/>
      <point x="349" y="63"/>
      <point x="324" y="90" type="curve"/>
      <point x="160" y="250" type="line"/>
      <point x="150" y="261"/>
      <point x="146" y="274"/>
      <point x="146" y="294" type="curve" smooth="yes"/>
      <point x="146" y="541" type="line"/>
      <point x="292" y="541" type="line"/>
      <point x="292" y="356" type="line" smooth="yes"/>
      <point x="292" y="328"/>
      <point x="277" y="313"/>
      <point x="251" y="313" type="curve" smooth="yes"/>
      <point x="234" y="313" type="line"/>
      <point x="234" y="257" type="line"/>
      <point x="246" y="254"/>
      <point x="260" y="252"/>
      <point x="273" y="252" type="curve" smooth="yes"/>
      <point x="344" y="252"/>
      <point x="365" y="306"/>
      <point x="365" y="359" type="curve" smooth="yes"/>
      <point x="365" y="541" type="line"/>
      <point x="448" y="541" type="line"/>
    </contour>
  </outline>
</glyph>
